<?xml version="1.0" encoding="utf-8" standalone="no"?>
<!DOCTYPE svg PUBLIC "-//W3C//DTD SVG 1.1//EN"
  "http://www.w3.org/Graphics/SVG/1.1/DTD/svg11.dtd">
<svg xmlns:xlink="http://www.w3.org/1999/xlink" width="108pt" height="288pt" viewBox="0 0 108 288" xmlns="http://www.w3.org/2000/svg" version="1.1">
 <metadata>
  <rdf:RDF xmlns:dc="http://purl.org/dc/elements/1.1/" xmlns:cc="http://creativecommons.org/ns#" xmlns:rdf="http://www.w3.org/1999/02/22-rdf-syntax-ns#">
   <cc:Work>
    <dc:type rdf:resource="http://purl.org/dc/dcmitype/StillImage"/>
    <dc:date>2024-12-17T00:26:17.814465</dc:date>
    <dc:format>image/svg+xml</dc:format>
    <dc:creator>
     <cc:Agent>
      <dc:title>Matplotlib v3.9.2, https://matplotlib.org/</dc:title>
     </cc:Agent>
    </dc:creator>
   </cc:Work>
  </rdf:RDF>
 </metadata>
 <defs>
  <style type="text/css">*{stroke-linejoin: round; stroke-linecap: butt}</style>
 </defs>
 <g id="figure_1">
  <g id="patch_1">
   <path d="M 0 288 
L 108 288 
L 108 0 
L 0 0 
z
" style="fill: #ffffff"/>
  </g>
  <g id="axes_1">
   <g id="patch_2">
    <path d="M 60.5 254.48 
L 97.2 254.48 
L 97.2 14.76 
L 60.5 14.76 
z
" style="fill: #ffffff"/>
   </g>
   <g id="patch_3">
    <path d="M 60.5 195.621037 
L 97.572598 195.621037 
L 97.572598 169.892697 
L 60.5 169.892697 
z
" clip-path="url(#p4eef20ee34)" style="fill: #0000ff; opacity: 0.5; stroke: #0000ff; stroke-linejoin: miter"/>
   </g>
   <g id="patch_4">
    <path d="M 60.5 153.848874 
L 97.572598 153.848874 
L 97.572598 57.938438 
L 60.5 57.938438 
z
" clip-path="url(#p4eef20ee34)" style="fill: #0000ff; opacity: 0.5; stroke: #0000ff; stroke-linejoin: miter"/>
   </g>
   <g id="matplotlib.axis_1">
    <g id="text_1">
     <!-- Γ -->
     <g transform="translate(60.5 272.3675) scale(0.2 -0.2)">
      <defs>
       <path id="TimesNewRomanPSMT-393" d="M 3516 4238 
L 3531 3247 
L 3409 3247 
Q 3397 3547 3281 3728 
Q 3166 3909 2998 3957 
Q 2831 4006 2516 4006 
L 1328 4006 
L 1328 772 
Q 1328 353 1436 240 
Q 1544 128 1934 116 
L 1934 0 
L 116 0 
L 116 116 
Q 509 128 618 240 
Q 728 353 728 772 
L 728 3466 
Q 728 3884 618 3996 
Q 509 4109 116 4122 
L 116 4238 
L 3516 4238 
z
" transform="scale(0.015625)"/>
      </defs>
      <use xlink:href="#TimesNewRomanPSMT-393"/>
     </g>
    </g>
   </g>
   <g id="matplotlib.axis_2">
    <g id="ytick_1">
     <g id="line2d_1">
      <defs>
       <path id="m4474a27257" d="M 0 0 
L -3.5 0 
" style="stroke: #000000; stroke-width: 0.8"/>
      </defs>
      <g>
       <use xlink:href="#m4474a27257" x="60.5" y="254.48" style="stroke: #000000; stroke-width: 0.8"/>
      </g>
     </g>
     <g id="text_2">
      <!-- 0 -->
      <g transform="translate(48.5 257.951875) scale(0.1 -0.1)">
       <defs>
        <path id="TimesNewRomanPSMT-30" d="M 231 2094 
Q 231 2819 450 3342 
Q 669 3866 1031 4122 
Q 1313 4325 1613 4325 
Q 2100 4325 2488 3828 
Q 2972 3213 2972 2159 
Q 2972 1422 2759 906 
Q 2547 391 2217 158 
Q 1888 -75 1581 -75 
Q 975 -75 572 641 
Q 231 1244 231 2094 
z
M 844 2016 
Q 844 1141 1059 588 
Q 1238 122 1591 122 
Q 1759 122 1940 273 
Q 2122 425 2216 781 
Q 2359 1319 2359 2297 
Q 2359 3022 2209 3506 
Q 2097 3866 1919 4016 
Q 1791 4119 1609 4119 
Q 1397 4119 1231 3928 
Q 1006 3669 925 3112 
Q 844 2556 844 2016 
z
" transform="scale(0.015625)"/>
       </defs>
       <use xlink:href="#TimesNewRomanPSMT-30"/>
      </g>
     </g>
    </g>
    <g id="ytick_2">
     <g id="line2d_2">
      <g>
       <use xlink:href="#m4474a27257" x="60.5" y="14.76" style="stroke: #000000; stroke-width: 0.8"/>
      </g>
     </g>
     <g id="text_3">
      <!-- 6500 -->
      <g transform="translate(33.5 18.231875) scale(0.1 -0.1)">
       <defs>
        <path id="TimesNewRomanPSMT-36" d="M 2869 4325 
L 2869 4209 
Q 2456 4169 2195 4045 
Q 1934 3922 1679 3669 
Q 1425 3416 1258 3105 
Q 1091 2794 978 2366 
Q 1428 2675 1881 2675 
Q 2316 2675 2634 2325 
Q 2953 1975 2953 1425 
Q 2953 894 2631 456 
Q 2244 -75 1606 -75 
Q 1172 -75 869 213 
Q 275 772 275 1663 
Q 275 2231 503 2743 
Q 731 3256 1154 3653 
Q 1578 4050 1965 4187 
Q 2353 4325 2688 4325 
L 2869 4325 
z
M 925 2138 
Q 869 1716 869 1456 
Q 869 1156 980 804 
Q 1091 453 1309 247 
Q 1469 100 1697 100 
Q 1969 100 2183 356 
Q 2397 613 2397 1088 
Q 2397 1622 2184 2012 
Q 1972 2403 1581 2403 
Q 1463 2403 1327 2353 
Q 1191 2303 925 2138 
z
" transform="scale(0.015625)"/>
        <path id="TimesNewRomanPSMT-35" d="M 2778 4238 
L 2534 3706 
L 1259 3706 
L 981 3138 
Q 1809 3016 2294 2522 
Q 2709 2097 2709 1522 
Q 2709 1188 2573 903 
Q 2438 619 2231 419 
Q 2025 219 1772 97 
Q 1413 -75 1034 -75 
Q 653 -75 479 54 
Q 306 184 306 341 
Q 306 428 378 495 
Q 450 563 559 563 
Q 641 563 702 538 
Q 763 513 909 409 
Q 1144 247 1384 247 
Q 1750 247 2026 523 
Q 2303 800 2303 1197 
Q 2303 1581 2056 1914 
Q 1809 2247 1375 2428 
Q 1034 2569 447 2591 
L 1259 4238 
L 2778 4238 
z
" transform="scale(0.015625)"/>
       </defs>
       <use xlink:href="#TimesNewRomanPSMT-36"/>
       <use xlink:href="#TimesNewRomanPSMT-35" x="50"/>
       <use xlink:href="#TimesNewRomanPSMT-30" x="100"/>
       <use xlink:href="#TimesNewRomanPSMT-30" x="150"/>
      </g>
     </g>
    </g>
    <g id="text_4">
     <!--   -->
     <g transform="translate(25.221875 137.12) rotate(-90) scale(0.2 -0.2)">
      <defs>
       <path id="TimesNewRomanPSMT-20" transform="scale(0.015625)"/>
      </defs>
      <use xlink:href="#TimesNewRomanPSMT-20"/>
     </g>
    </g>
   </g>
   <g id="line2d_3">
    <path d="M 60.5 125.4 
L 97.2 125.4 
" clip-path="url(#p4eef20ee34)" style="fill: none; stroke-dasharray: 5.55,2.4; stroke-dashoffset: 0; stroke: #ffa500; stroke-width: 1.5"/>
   </g>
   <g id="line2d_4">
    <path d="M 60.5 254.47998 
L 60.5 254.47998 
" clip-path="url(#p4eef20ee34)" style="fill: none; stroke: #2e54a1; stroke-width: 1.5; stroke-linecap: square"/>
   </g>
   <g id="line2d_5">
    <path d="M 60.5 254.47998 
L 62.35363 250.848474 
L 62.35363 250.848474 
" clip-path="url(#p4eef20ee34)" style="fill: none; stroke: #2e54a1; stroke-width: 1.5; stroke-linecap: square"/>
   </g>
   <g id="line2d_6">
    <path d="M 60.5 254.47998 
L 64.20726 247.223751 
L 64.20726 247.223751 
" clip-path="url(#p4eef20ee34)" style="fill: none; stroke: #2e54a1; stroke-width: 1.5; stroke-linecap: square"/>
   </g>
   <g id="line2d_7">
    <path d="M 60.5 254.47998 
L 66.06089 243.612828 
L 66.06089 243.612828 
" clip-path="url(#p4eef20ee34)" style="fill: none; stroke: #2e54a1; stroke-width: 1.5; stroke-linecap: square"/>
   </g>
   <g id="line2d_8">
    <path d="M 60.5 254.47998 
L 67.91452 240.023105 
L 67.91452 240.023105 
" clip-path="url(#p4eef20ee34)" style="fill: none; stroke: #2e54a1; stroke-width: 1.5; stroke-linecap: square"/>
   </g>
   <g id="line2d_9">
    <path d="M 60.5 254.47998 
L 69.76815 236.462595 
L 69.76815 236.462595 
" clip-path="url(#p4eef20ee34)" style="fill: none; stroke: #2e54a1; stroke-width: 1.5; stroke-linecap: square"/>
   </g>
   <g id="line2d_10">
    <path d="M 60.5 254.47998 
L 71.454786 233.255683 
L 71.62178 232.940158 
L 71.62178 232.940158 
" clip-path="url(#p4eef20ee34)" style="fill: none; stroke: #2e54a1; stroke-width: 1.5; stroke-linecap: square"/>
   </g>
   <g id="line2d_11">
    <path d="M 60.5 254.47998 
L 71.462208 233.241652 
L 73.475409 229.465746 
L 73.475409 229.465746 
" clip-path="url(#p4eef20ee34)" style="fill: none; stroke: #2e54a1; stroke-width: 1.5; stroke-linecap: square"/>
   </g>
   <g id="line2d_12">
    <path d="M 60.5 254.47998 
L 71.454786 233.255683 
L 75.329039 226.050665 
L 75.329039 226.050665 
" clip-path="url(#p4eef20ee34)" style="fill: none; stroke: #2e54a1; stroke-width: 1.5; stroke-linecap: square"/>
   </g>
   <g id="line2d_13">
    <path d="M 60.5 254.47998 
L 71.454786 233.255683 
L 76.765185 223.453683 
L 77.182669 222.707825 
L 77.182669 222.707825 
" clip-path="url(#p4eef20ee34)" style="fill: none; stroke: #2e54a1; stroke-width: 1.5; stroke-linecap: square"/>
   </g>
   <g id="line2d_14">
    <path d="M 60.5 254.47998 
L 71.447364 233.269715 
L 76.754052 223.473632 
L 79.036299 219.451962 
L 79.036299 219.451962 
" clip-path="url(#p4eef20ee34)" style="fill: none; stroke: #2e54a1; stroke-width: 1.5; stroke-linecap: square"/>
   </g>
   <g id="line2d_15">
    <path d="M 60.5 254.47998 
L 71.460352 233.245159 
L 76.767041 223.450359 
L 80.828698 216.402045 
L 80.889929 216.299764 
L 80.889929 216.299764 
" clip-path="url(#p4eef20ee34)" style="fill: none; stroke: #2e54a1; stroke-width: 1.5; stroke-linecap: square"/>
   </g>
   <g id="line2d_16">
    <path d="M 60.5 254.47998 
L 71.454786 233.255683 
L 76.754052 223.473632 
L 80.806432 216.439271 
L 82.743559 213.269819 
L 82.743559 213.269819 
" clip-path="url(#p4eef20ee34)" style="fill: none; stroke: #2e54a1; stroke-width: 1.5; stroke-linecap: square"/>
   </g>
   <g id="line2d_17">
    <path d="M 60.5 254.47998 
L 71.451075 233.262699 
L 76.757763 223.466982 
L 80.810143 216.433065 
L 84.138884 211.08182 
L 84.597189 210.382266 
L 84.597189 210.382266 
" clip-path="url(#p4eef20ee34)" style="fill: none; stroke: #2e54a1; stroke-width: 1.5; stroke-linecap: square"/>
   </g>
   <g id="line2d_18">
    <path d="M 60.5 254.47998 
L 71.436231 233.290765 
L 76.735497 223.506885 
L 80.787877 216.470306 
L 84.138884 211.08182 
L 86.450819 207.658024 
L 86.450819 207.658024 
" clip-path="url(#p4eef20ee34)" style="fill: none; stroke: #2e54a1; stroke-width: 1.5; stroke-linecap: square"/>
   </g>
   <g id="line2d_19">
    <path d="M 60.5 254.47998 
L 71.438086 233.287257 
L 76.754052 223.473632 
L 80.817565 216.420656 
L 84.157439 211.053308 
L 87.024164 206.851684 
L 88.304449 205.117506 
L 88.304449 205.117506 
" clip-path="url(#p4eef20ee34)" style="fill: none; stroke: #2e54a1; stroke-width: 1.5; stroke-linecap: square"/>
   </g>
   <g id="line2d_20">
    <path d="M 60.5 254.47998 
L 71.454786 233.255683 
L 76.768896 223.447035 
L 80.806432 216.439271 
L 84.131462 211.093229 
L 87.011175 206.869752 
L 89.594011 203.468211 
L 90.158079 202.778846 
L 90.158079 202.778846 
" clip-path="url(#p4eef20ee34)" style="fill: none; stroke: #2e54a1; stroke-width: 1.5; stroke-linecap: square"/>
   </g>
   <g id="line2d_21">
    <path d="M 60.5 254.47998 
L 71.445508 233.273224 
L 76.744775 223.490257 
L 80.813854 216.42686 
L 84.157439 211.053308 
L 87.027875 206.846524 
L 89.582878 203.482016 
L 91.948622 200.724474 
L 92.011709 200.655867 
L 92.011709 200.655867 
" clip-path="url(#p4eef20ee34)" style="fill: none; stroke: #2e54a1; stroke-width: 1.5; stroke-linecap: square"/>
   </g>
   <g id="line2d_22">
    <path d="M 60.5 254.47998 
L 71.454786 233.255683 
L 76.765185 223.453683 
L 80.806432 216.439271 
L 84.146306 211.070414 
L 87.018597 206.859426 
L 89.5903 203.472812 
L 91.961611 200.710328 
L 93.865339 198.756229 
L 93.865339 198.756229 
" clip-path="url(#p4eef20ee34)" style="fill: none; stroke: #2e54a1; stroke-width: 1.5; stroke-linecap: square"/>
   </g>
   <g id="line2d_23">
    <path d="M 60.5 254.47998 
L 71.428809 233.304799 
L 76.752197 223.476957 
L 80.806432 216.439271 
L 84.155583 211.056159 
L 87.04643 206.820733 
L 89.619988 203.436029 
L 91.982021 200.68812 
L 94.238291 198.401174 
L 95.718968 197.080286 
L 95.718968 197.080286 
" clip-path="url(#p4eef20ee34)" style="fill: none; stroke: #2e54a1; stroke-width: 1.5; stroke-linecap: square"/>
   </g>
   <g id="line2d_24">
    <path d="M 60.5 254.47998 
L 71.447364 233.269715 
L 76.754052 223.473632 
L 80.79901 216.451684 
L 84.138884 211.08182 
L 87.033441 206.838784 
L 89.594011 203.468211 
L 91.969032 200.702249 
L 94.195615 198.441343 
L 96.385088 196.531523 
L 97.572598 195.621037 
L 97.572598 195.621037 
" clip-path="url(#p4eef20ee34)" style="fill: none; stroke: #2e54a1; stroke-width: 1.5; stroke-linecap: square"/>
   </g>
   <g id="line2d_25">
    <path d="M 60.5 169.892697 
L 60.5 169.892697 
" clip-path="url(#p4eef20ee34)" style="fill: none; stroke: #2e54a1; stroke-width: 1.5; stroke-linecap: square"/>
   </g>
   <g id="line2d_26">
    <path d="M 60.5 169.892697 
L 62.35363 169.875203 
L 62.35363 169.875203 
" clip-path="url(#p4eef20ee34)" style="fill: none; stroke: #2e54a1; stroke-width: 1.5; stroke-linecap: square"/>
   </g>
   <g id="line2d_27">
    <path d="M 60.5 169.892697 
L 64.20726 169.822162 
L 64.20726 169.822162 
" clip-path="url(#p4eef20ee34)" style="fill: none; stroke: #2e54a1; stroke-width: 1.5; stroke-linecap: square"/>
   </g>
   <g id="line2d_28">
    <path d="M 60.5 169.892697 
L 65.136858 169.781692 
L 66.06089 169.731879 
L 66.06089 169.731879 
" clip-path="url(#p4eef20ee34)" style="fill: none; stroke: #2e54a1; stroke-width: 1.5; stroke-linecap: square"/>
   </g>
   <g id="line2d_29">
    <path d="M 60.5 169.892697 
L 65.138714 169.781601 
L 67.91452 169.601467 
L 67.91452 169.601467 
" clip-path="url(#p4eef20ee34)" style="fill: none; stroke: #2e54a1; stroke-width: 1.5; stroke-linecap: square"/>
   </g>
   <g id="line2d_30">
    <path d="M 60.5 169.892697 
L 65.138714 169.781601 
L 69.44344 169.460788 
L 69.76815 169.426756 
L 69.76815 169.426756 
" clip-path="url(#p4eef20ee34)" style="fill: none; stroke: #2e54a1; stroke-width: 1.5; stroke-linecap: square"/>
   </g>
   <g id="line2d_31">
    <path d="M 60.5 169.892697 
L 65.142424 169.781421 
L 69.450862 169.460027 
L 71.62178 169.202162 
L 71.62178 169.202162 
" clip-path="url(#p4eef20ee34)" style="fill: none; stroke: #2e54a1; stroke-width: 1.5; stroke-linecap: square"/>
   </g>
   <g id="line2d_32">
    <path d="M 60.5 169.892697 
L 65.136858 169.781692 
L 69.436018 169.461548 
L 73.22863 168.961613 
L 73.475409 168.920524 
L 73.475409 168.920524 
" clip-path="url(#p4eef20ee34)" style="fill: none; stroke: #2e54a1; stroke-width: 1.5; stroke-linecap: square"/>
   </g>
   <g id="line2d_33">
    <path d="M 60.5 169.892697 
L 65.146135 169.78124 
L 69.450862 169.460027 
L 73.236052 168.960394 
L 75.329039 168.572918 
L 75.329039 168.572918 
" clip-path="url(#p4eef20ee34)" style="fill: none; stroke: #2e54a1; stroke-width: 1.5; stroke-linecap: square"/>
   </g>
   <g id="line2d_34">
    <path d="M 60.5 169.892697 
L 65.142424 169.781421 
L 69.450862 169.460027 
L 73.241618 168.959479 
L 76.548093 168.303186 
L 77.182669 168.148462 
L 77.182669 168.148462 
" clip-path="url(#p4eef20ee34)" style="fill: none; stroke: #2e54a1; stroke-width: 1.5; stroke-linecap: square"/>
   </g>
   <g id="line2d_35">
    <path d="M 60.5 169.892697 
L 65.138714 169.781601 
L 69.44344 169.460788 
L 73.22863 168.961613 
L 76.531394 168.307121 
L 79.036299 167.634148 
L 79.036299 167.634148 
" clip-path="url(#p4eef20ee34)" style="fill: none; stroke: #2e54a1; stroke-width: 1.5; stroke-linecap: square"/>
   </g>
   <g id="line2d_36">
    <path d="M 60.5 169.892697 
L 65.133147 169.781872 
L 69.439729 169.461168 
L 73.236052 168.960394 
L 76.542527 168.304498 
L 79.461205 167.502044 
L 80.889929 167.014764 
L 80.889929 167.014764 
" clip-path="url(#p4eef20ee34)" style="fill: none; stroke: #2e54a1; stroke-width: 1.5; stroke-linecap: square"/>
   </g>
   <g id="line2d_37">
    <path d="M 60.5 169.892697 
L 65.131292 169.781962 
L 69.428596 169.462307 
L 73.213786 168.964048 
L 76.531394 168.307121 
L 79.448217 167.506166 
L 82.075584 166.555567 
L 82.743559 166.272981 
L 82.743559 166.272981 
" clip-path="url(#p4eef20ee34)" style="fill: none; stroke: #2e54a1; stroke-width: 1.5; stroke-linecap: square"/>
   </g>
   <g id="line2d_38">
    <path d="M 60.5 169.892697 
L 65.131292 169.781962 
L 69.424885 169.462687 
L 73.211931 168.964352 
L 76.51655 168.310612 
L 79.435229 167.510282 
L 82.064451 166.560127 
L 84.476582 165.451902 
L 84.597189 165.389741 
L 84.597189 165.389741 
" clip-path="url(#p4eef20ee34)" style="fill: none; stroke: #2e54a1; stroke-width: 1.5; stroke-linecap: square"/>
   </g>
   <g id="line2d_39">
    <path d="M 60.5 169.892697 
L 65.149846 169.781059 
L 69.461995 169.458884 
L 73.254607 168.957342 
L 76.55366 168.301873 
L 79.463061 167.501455 
L 82.086717 166.551003 
L 84.476582 165.451902 
L 86.450819 164.345057 
L 86.450819 164.345057 
" clip-path="url(#p4eef20ee34)" style="fill: none; stroke: #2e54a1; stroke-width: 1.5; stroke-linecap: square"/>
   </g>
   <g id="line2d_40">
    <path d="M 60.5 169.892697 
L 65.147991 169.781149 
L 69.461995 169.458884 
L 73.247185 168.958563 
L 76.559226 168.300559 
L 79.481616 167.495557 
L 82.09785 166.546434 
L 84.491426 165.444288 
L 86.745841 164.162572 
L 88.304449 163.119331 
L 88.304449 163.119331 
" clip-path="url(#p4eef20ee34)" style="fill: none; stroke: #2e54a1; stroke-width: 1.5; stroke-linecap: square"/>
   </g>
   <g id="line2d_41">
    <path d="M 60.5 169.892697 
L 65.131292 169.781962 
L 69.436018 169.461548 
L 73.236052 168.960394 
L 76.531394 168.307121 
L 79.440795 167.508519 
L 82.053318 166.564681 
L 84.458028 165.461405 
L 86.714298 164.182304 
L 88.881505 162.697963 
L 90.158079 161.695159 
L 90.158079 161.695159 
" clip-path="url(#p4eef20ee34)" style="fill: none; stroke: #2e54a1; stroke-width: 1.5; stroke-linecap: square"/>
   </g>
   <g id="line2d_42">
    <path d="M 60.5 169.892697 
L 65.136858 169.781692 
L 69.42674 169.462497 
L 73.211931 168.964352 
L 76.523972 168.308867 
L 79.425951 167.513219 
L 82.044041 166.568473 
L 84.441328 165.469944 
L 86.712442 164.183463 
L 88.888927 162.692416 
L 91.033868 160.949262 
L 92.011709 160.059386 
L 92.011709 160.059386 
" clip-path="url(#p4eef20ee34)" style="fill: none; stroke: #2e54a1; stroke-width: 1.5; stroke-linecap: square"/>
   </g>
   <g id="line2d_43">
    <path d="M 60.5 169.892697 
L 65.142424 169.781421 
L 69.450862 169.460027 
L 73.224919 168.962222 
L 76.531394 168.307121 
L 79.437084 167.509695 
L 82.042186 166.569231 
L 84.446895 165.467099 
L 86.718009 164.179986 
L 88.888927 162.692416 
L 91.026446 160.955785 
L 93.197364 158.898584 
L 93.865339 158.204993 
L 93.865339 158.204993 
" clip-path="url(#p4eef20ee34)" style="fill: none; stroke: #2e54a1; stroke-width: 1.5; stroke-linecap: square"/>
   </g>
   <g id="line2d_44">
    <path d="M 60.5 169.892697 
L 65.153557 169.780877 
L 69.454573 169.459646 
L 73.226774 168.961917 
L 76.540671 168.304935 
L 79.466772 167.500276 
L 82.075584 166.555567 
L 84.472871 165.453804 
L 86.729142 164.173025 
L 88.914903 162.672976 
L 91.065411 160.921501 
L 93.215919 158.879703 
L 95.436935 156.461492 
L 95.718968 156.132264 
L 95.718968 156.132264 
" clip-path="url(#p4eef20ee34)" style="fill: none; stroke: #2e54a1; stroke-width: 1.5; stroke-linecap: square"/>
   </g>
   <g id="line2d_45">
    <path d="M 60.5 169.892697 
L 65.138714 169.781601 
L 69.44344 169.460788 
L 73.22863 168.961613 
L 76.531394 168.307121 
L 79.463061 167.501455 
L 82.06074 166.561645 
L 84.472871 165.453804 
L 86.736564 164.168381 
L 88.888927 162.692416 
L 91.04129 160.942736 
L 93.193653 158.902357 
L 95.420235 156.480832 
L 97.572598 153.848874 
L 97.572598 153.848874 
" clip-path="url(#p4eef20ee34)" style="fill: none; stroke: #2e54a1; stroke-width: 1.5; stroke-linecap: square"/>
   </g>
   <g id="line2d_46">
    <path d="M 60.5 45.684607 
L 60.5 45.684607 
" clip-path="url(#p4eef20ee34)" style="fill: none; stroke: #249087; stroke-width: 1.5; stroke-linecap: square"/>
   </g>
   <g id="line2d_47">
    <path d="M 60.5 45.684607 
L 62.35363 45.694186 
L 62.35363 45.694186 
" clip-path="url(#p4eef20ee34)" style="fill: none; stroke: #249087; stroke-width: 1.5; stroke-linecap: square"/>
   </g>
   <g id="line2d_48">
    <path d="M 60.5 45.684607 
L 64.20726 45.73434 
L 64.20726 45.73434 
" clip-path="url(#p4eef20ee34)" style="fill: none; stroke: #249087; stroke-width: 1.5; stroke-linecap: square"/>
   </g>
   <g id="line2d_49">
    <path d="M 60.5 45.684607 
L 64.652576 45.750862 
L 66.06089 45.823416 
L 66.06089 45.823416 
" clip-path="url(#p4eef20ee34)" style="fill: none; stroke: #249087; stroke-width: 1.5; stroke-linecap: square"/>
   </g>
   <g id="line2d_50">
    <path d="M 60.5 45.684607 
L 64.656287 45.751012 
L 67.91452 45.966012 
L 67.91452 45.966012 
" clip-path="url(#p4eef20ee34)" style="fill: none; stroke: #249087; stroke-width: 1.5; stroke-linecap: square"/>
   </g>
   <g id="line2d_51">
    <path d="M 60.5 45.684607 
L 64.656287 45.751012 
L 68.4322 46.015334 
L 69.76815 46.162064 
L 69.76815 46.162064 
" clip-path="url(#p4eef20ee34)" style="fill: none; stroke: #249087; stroke-width: 1.5; stroke-linecap: square"/>
   </g>
   <g id="line2d_52">
    <path d="M 60.5 45.684607 
L 64.663709 45.751314 
L 68.437767 46.015887 
L 71.62178 46.413918 
L 71.62178 46.413918 
" clip-path="url(#p4eef20ee34)" style="fill: none; stroke: #249087; stroke-width: 1.5; stroke-linecap: square"/>
   </g>
   <g id="line2d_53">
    <path d="M 60.5 45.684607 
L 64.656287 45.751012 
L 68.435911 46.015703 
L 72.150593 46.496585 
L 73.475409 46.726053 
L 73.475409 46.726053 
" clip-path="url(#p4eef20ee34)" style="fill: none; stroke: #249087; stroke-width: 1.5; stroke-linecap: square"/>
   </g>
   <g id="line2d_54">
    <path d="M 60.5 45.684607 
L 64.656287 45.751012 
L 68.426634 46.014782 
L 72.137604 46.494495 
L 75.329039 47.104286 
L 75.329039 47.104286 
" clip-path="url(#p4eef20ee34)" style="fill: none; stroke: #249087; stroke-width: 1.5; stroke-linecap: square"/>
   </g>
   <g id="line2d_55">
    <path d="M 60.5 45.684607 
L 64.658143 45.751087 
L 68.4322 46.015334 
L 72.13946 46.494794 
L 75.57953 47.160823 
L 77.182669 47.555199 
L 77.182669 47.555199 
" clip-path="url(#p4eef20ee34)" style="fill: none; stroke: #249087; stroke-width: 1.5; stroke-linecap: square"/>
   </g>
   <g id="line2d_56">
    <path d="M 60.5 45.684607 
L 64.674842 45.751768 
L 68.460032 46.018104 
L 72.171003 46.499876 
L 75.603651 47.166338 
L 78.776531 48.006198 
L 79.036299 48.085551 
L 79.036299 48.085551 
" clip-path="url(#p4eef20ee34)" style="fill: none; stroke: #249087; stroke-width: 1.5; stroke-linecap: square"/>
   </g>
   <g id="line2d_57">
    <path d="M 60.5 45.684607 
L 64.663709 45.751314 
L 68.439622 46.016072 
L 72.154304 46.497183 
L 75.583241 47.16167 
L 78.767254 48.003395 
L 80.889929 48.701567 
L 80.889929 48.701567 
" clip-path="url(#p4eef20ee34)" style="fill: none; stroke: #249087; stroke-width: 1.5; stroke-linecap: square"/>
   </g>
   <g id="line2d_58">
    <path d="M 60.5 45.684607 
L 64.663709 45.751314 
L 68.448899 46.016995 
L 72.167292 46.499277 
L 75.596229 47.164639 
L 78.780242 48.00732 
L 81.786129 49.031631 
L 82.743559 49.408066 
L 82.743559 49.408066 
" clip-path="url(#p4eef20ee34)" style="fill: none; stroke: #249087; stroke-width: 1.5; stroke-linecap: square"/>
   </g>
   <g id="line2d_59">
    <path d="M 60.5 45.684607 
L 64.672987 45.751692 
L 68.460032 46.018104 
L 72.174714 46.500475 
L 75.59994 47.165488 
L 78.783953 48.008442 
L 81.799117 49.036572 
L 84.597189 50.207543 
L 84.597189 50.207543 
" clip-path="url(#p4eef20ee34)" style="fill: none; stroke: #249087; stroke-width: 1.5; stroke-linecap: square"/>
   </g>
   <g id="line2d_60">
    <path d="M 60.5 45.684607 
L 64.682264 45.752071 
L 68.448899 46.016995 
L 72.163581 46.498678 
L 75.592518 47.163791 
L 78.761687 48.001714 
L 81.774996 49.027399 
L 84.73635 50.271321 
L 86.450819 51.099365 
L 86.450819 51.099365 
" clip-path="url(#p4eef20ee34)" style="fill: none; stroke: #249087; stroke-width: 1.5; stroke-linecap: square"/>
   </g>
   <g id="line2d_61">
    <path d="M 60.5 45.684607 
L 64.674842 45.751768 
L 68.460032 46.018104 
L 72.161726 46.498379 
L 75.585096 47.162094 
L 78.757976 48.000594 
L 81.763863 49.02317 
L 84.714085 50.261082 
L 87.775635 51.791151 
L 88.304449 52.079306 
L 88.304449 52.079306 
" clip-path="url(#p4eef20ee34)" style="fill: none; stroke: #249087; stroke-width: 1.5; stroke-linecap: square"/>
   </g>
   <g id="line2d_62">
    <path d="M 60.5 45.684607 
L 64.685975 45.752223 
L 68.456321 46.017734 
L 72.167292 46.499277 
L 75.611073 47.168037 
L 78.787664 48.009564 
L 81.786129 49.031631 
L 84.754905 50.279864 
L 87.812745 51.811154 
L 90.158079 53.139559 
L 90.158079 53.139559 
" clip-path="url(#p4eef20ee34)" style="fill: none; stroke: #249087; stroke-width: 1.5; stroke-linecap: square"/>
   </g>
   <g id="line2d_63">
    <path d="M 60.5 45.684607 
L 64.695252 45.752605 
L 68.480443 46.020143 
L 72.202546 46.504976 
L 75.640761 47.174847 
L 78.826629 48.021371 
L 81.823238 49.045761 
L 84.788304 50.295265 
L 87.847999 51.830188 
L 91.223127 53.780961 
L 92.011709 54.26924 
L 92.011709 54.26924 
" clip-path="url(#p4eef20ee34)" style="fill: none; stroke: #249087; stroke-width: 1.5; stroke-linecap: square"/>
   </g>
   <g id="line2d_64">
    <path d="M 60.5 45.684607 
L 64.674842 45.751768 
L 68.448899 46.016995 
L 72.156159 46.497482 
L 75.596229 47.164639 
L 78.769109 48.003955 
L 81.774996 49.027399 
L 84.747483 50.276446 
L 87.786768 51.797149 
L 91.160041 53.742372 
L 93.865339 55.455237 
L 93.865339 55.455237 
" clip-path="url(#p4eef20ee34)" style="fill: none; stroke: #249087; stroke-width: 1.5; stroke-linecap: square"/>
   </g>
   <g id="line2d_65">
    <path d="M 60.5 45.684607 
L 64.695252 45.752605 
L 68.467454 46.018845 
L 72.169148 46.499576 
L 75.588807 47.162942 
L 78.761687 48.001714 
L 81.758296 49.021057 
L 84.719651 50.26364 
L 87.786768 51.797149 
L 91.13592 53.727636 
L 95.260664 56.376489 
L 95.718968 56.683198 
L 95.718968 56.683198 
" clip-path="url(#p4eef20ee34)" style="fill: none; stroke: #249087; stroke-width: 1.5; stroke-linecap: square"/>
   </g>
   <g id="line2d_66">
    <path d="M 60.5 45.684607 
L 64.693397 45.752528 
L 68.478587 46.019957 
L 72.189558 46.502874 
L 75.603651 47.166338 
L 78.795086 48.01181 
L 81.800972 49.037278 
L 84.769749 50.286706 
L 87.812745 51.811154 
L 91.189729 53.760522 
L 95.346016 56.433473 
L 97.572598 57.938438 
L 97.572598 57.938438 
" clip-path="url(#p4eef20ee34)" style="fill: none; stroke: #249087; stroke-width: 1.5; stroke-linecap: square"/>
   </g>
   <g id="line2d_67">
    <path d="M 60.5 45.526831 
L 60.5 45.526831 
" clip-path="url(#p4eef20ee34)" style="fill: none; stroke: #249087; stroke-width: 1.5; stroke-linecap: square"/>
   </g>
   <g id="line2d_68">
    <path d="M 60.5 45.526831 
L 62.35363 45.532046 
L 62.35363 45.532046 
" clip-path="url(#p4eef20ee34)" style="fill: none; stroke: #249087; stroke-width: 1.5; stroke-linecap: square"/>
   </g>
   <g id="line2d_69">
    <path d="M 60.5 45.526831 
L 64.20726 45.53681 
L 64.20726 45.53681 
" clip-path="url(#p4eef20ee34)" style="fill: none; stroke: #249087; stroke-width: 1.5; stroke-linecap: square"/>
   </g>
   <g id="line2d_70">
    <path d="M 60.5 45.526831 
L 66.06089 45.524379 
L 66.06089 45.524379 
" clip-path="url(#p4eef20ee34)" style="fill: none; stroke: #249087; stroke-width: 1.5; stroke-linecap: square"/>
   </g>
   <g id="line2d_71">
    <path d="M 60.5 45.526831 
L 67.825456 45.494741 
L 67.91452 45.492851 
L 67.91452 45.492851 
" clip-path="url(#p4eef20ee34)" style="fill: none; stroke: #249087; stroke-width: 1.5; stroke-linecap: square"/>
   </g>
   <g id="line2d_72">
    <path d="M 60.5 45.526831 
L 67.829167 45.494663 
L 69.76815 45.446086 
L 69.76815 45.446086 
" clip-path="url(#p4eef20ee34)" style="fill: none; stroke: #249087; stroke-width: 1.5; stroke-linecap: square"/>
   </g>
   <g id="line2d_73">
    <path d="M 60.5 45.526831 
L 67.836589 45.494507 
L 71.62178 45.386638 
L 71.62178 45.386638 
" clip-path="url(#p4eef20ee34)" style="fill: none; stroke: #249087; stroke-width: 1.5; stroke-linecap: square"/>
   </g>
   <g id="line2d_74">
    <path d="M 60.5 45.526831 
L 67.851433 45.494194 
L 73.475409 45.315978 
L 73.475409 45.315978 
" clip-path="url(#p4eef20ee34)" style="fill: none; stroke: #249087; stroke-width: 1.5; stroke-linecap: square"/>
   </g>
   <g id="line2d_75">
    <path d="M 60.5 45.526831 
L 67.847722 45.494272 
L 75.329039 45.23516 
L 75.329039 45.23516 
" clip-path="url(#p4eef20ee34)" style="fill: none; stroke: #249087; stroke-width: 1.5; stroke-linecap: square"/>
   </g>
   <g id="line2d_76">
    <path d="M 60.5 45.526831 
L 67.864422 45.493919 
L 75.746524 45.215653 
L 77.182669 45.145132 
L 77.182669 45.145132 
" clip-path="url(#p4eef20ee34)" style="fill: none; stroke: #249087; stroke-width: 1.5; stroke-linecap: square"/>
   </g>
   <g id="line2d_77">
    <path d="M 60.5 45.526831 
L 67.866277 45.493879 
L 75.75209 45.21539 
L 79.036299 45.04688 
L 79.036299 45.04688 
" clip-path="url(#p4eef20ee34)" style="fill: none; stroke: #249087; stroke-width: 1.5; stroke-linecap: square"/>
   </g>
   <g id="line2d_78">
    <path d="M 60.5 45.526831 
L 67.868133 45.49384 
L 75.746524 45.215653 
L 80.889929 44.941505 
L 80.889929 44.941505 
" clip-path="url(#p4eef20ee34)" style="fill: none; stroke: #249087; stroke-width: 1.5; stroke-linecap: square"/>
   </g>
   <g id="line2d_79">
    <path d="M 60.5 45.526831 
L 67.869988 45.493801 
L 75.75209 45.21539 
L 82.743559 44.830283 
L 82.743559 44.830283 
" clip-path="url(#p4eef20ee34)" style="fill: none; stroke: #249087; stroke-width: 1.5; stroke-linecap: square"/>
   </g>
   <g id="line2d_80">
    <path d="M 60.5 45.526831 
L 67.881121 45.493564 
L 75.768789 45.2146 
L 84.597189 44.714736 
L 84.597189 44.714736 
" clip-path="url(#p4eef20ee34)" style="fill: none; stroke: #249087; stroke-width: 1.5; stroke-linecap: square"/>
   </g>
   <g id="line2d_81">
    <path d="M 60.5 45.526831 
L 67.903387 45.493089 
L 75.800333 45.213105 
L 86.450819 44.596704 
L 86.450819 44.596704 
" clip-path="url(#p4eef20ee34)" style="fill: none; stroke: #249087; stroke-width: 1.5; stroke-linecap: square"/>
   </g>
   <g id="line2d_82">
    <path d="M 60.5 45.526831 
L 67.903387 45.493089 
L 75.807755 45.212753 
L 86.467518 44.595636 
L 88.304449 44.478458 
L 88.304449 44.478458 
" clip-path="url(#p4eef20ee34)" style="fill: none; stroke: #249087; stroke-width: 1.5; stroke-linecap: square"/>
   </g>
   <g id="line2d_83">
    <path d="M 60.5 45.526831 
L 67.892254 45.493327 
L 75.7892 45.213633 
L 86.447108 44.596941 
L 90.158079 44.362854 
L 90.158079 44.362854 
" clip-path="url(#p4eef20ee34)" style="fill: none; stroke: #249087; stroke-width: 1.5; stroke-linecap: square"/>
   </g>
   <g id="line2d_84">
    <path d="M 60.5 45.526831 
L 67.912664 45.492891 
L 75.83002 45.211697 
L 86.49164 44.594093 
L 92.011709 44.253555 
L 92.011709 44.253555 
" clip-path="url(#p4eef20ee34)" style="fill: none; stroke: #249087; stroke-width: 1.5; stroke-linecap: square"/>
   </g>
   <g id="line2d_85">
    <path d="M 60.5 45.526831 
L 67.91452 45.492851 
L 75.83002 45.211697 
L 86.517616 44.592431 
L 93.865339 44.155371 
L 93.865339 44.155371 
" clip-path="url(#p4eef20ee34)" style="fill: none; stroke: #249087; stroke-width: 1.5; stroke-linecap: square"/>
   </g>
   <g id="line2d_86">
    <path d="M 60.5 45.526831 
L 67.938641 45.492333 
L 75.835587 45.211432 
L 86.517616 44.592431 
L 95.718968 44.074756 
L 95.718968 44.074756 
" clip-path="url(#p4eef20ee34)" style="fill: none; stroke: #249087; stroke-width: 1.5; stroke-linecap: square"/>
   </g>
   <g id="line2d_87">
    <path d="M 60.5 45.526831 
L 67.921942 45.492692 
L 75.826309 45.211873 
L 86.513905 44.592669 
L 96.978843 44.034457 
L 97.572598 44.020576 
L 97.572598 44.020576 
" clip-path="url(#p4eef20ee34)" style="fill: none; stroke: #249087; stroke-width: 1.5; stroke-linecap: square"/>
   </g>
   <g id="line2d_88">
    <path d="M 60.5 34.286149 
L 60.5 34.286149 
" clip-path="url(#p4eef20ee34)" style="fill: none; stroke: #ff0000; stroke-width: 1.5; stroke-linecap: square"/>
   </g>
   <g id="line2d_89">
    <path d="M 60.5 34.286149 
L 62.35363 34.289558 
L 62.35363 34.289558 
" clip-path="url(#p4eef20ee34)" style="fill: none; stroke: #ff0000; stroke-width: 1.5; stroke-linecap: square"/>
   </g>
   <g id="line2d_90">
    <path d="M 60.5 34.286149 
L 64.20726 34.299802 
L 64.20726 34.299802 
" clip-path="url(#p4eef20ee34)" style="fill: none; stroke: #ff0000; stroke-width: 1.5; stroke-linecap: square"/>
   </g>
   <g id="line2d_91">
    <path d="M 60.5 34.286149 
L 66.06089 34.316924 
L 66.06089 34.316924 
" clip-path="url(#p4eef20ee34)" style="fill: none; stroke: #ff0000; stroke-width: 1.5; stroke-linecap: square"/>
   </g>
   <g id="line2d_92">
    <path d="M 60.5 34.286149 
L 67.91452 34.341001 
L 67.91452 34.341001 
" clip-path="url(#p4eef20ee34)" style="fill: none; stroke: #ff0000; stroke-width: 1.5; stroke-linecap: square"/>
   </g>
   <g id="line2d_93">
    <path d="M 60.5 34.286149 
L 69.76815 34.37214 
L 69.76815 34.37214 
" clip-path="url(#p4eef20ee34)" style="fill: none; stroke: #ff0000; stroke-width: 1.5; stroke-linecap: square"/>
   </g>
   <g id="line2d_94">
    <path d="M 60.5 34.286149 
L 71.020602 34.397249 
L 71.62178 34.410485 
L 71.62178 34.410485 
" clip-path="url(#p4eef20ee34)" style="fill: none; stroke: #ff0000; stroke-width: 1.5; stroke-linecap: square"/>
   </g>
   <g id="line2d_95">
    <path d="M 60.5 34.286149 
L 71.020602 34.397249 
L 73.475409 34.456215 
L 73.475409 34.456215 
" clip-path="url(#p4eef20ee34)" style="fill: none; stroke: #ff0000; stroke-width: 1.5; stroke-linecap: square"/>
   </g>
   <g id="line2d_96">
    <path d="M 60.5 34.286149 
L 71.024313 34.397328 
L 75.329039 34.509555 
L 75.329039 34.509555 
" clip-path="url(#p4eef20ee34)" style="fill: none; stroke: #ff0000; stroke-width: 1.5; stroke-linecap: square"/>
   </g>
   <g id="line2d_97">
    <path d="M 60.5 34.286149 
L 71.020602 34.397249 
L 77.182669 34.570773 
L 77.182669 34.570773 
" clip-path="url(#p4eef20ee34)" style="fill: none; stroke: #ff0000; stroke-width: 1.5; stroke-linecap: square"/>
   </g>
   <g id="line2d_98">
    <path d="M 60.5 34.286149 
L 71.020602 34.397249 
L 79.036299 34.640193 
L 79.036299 34.640193 
" clip-path="url(#p4eef20ee34)" style="fill: none; stroke: #ff0000; stroke-width: 1.5; stroke-linecap: square"/>
   </g>
   <g id="line2d_99">
    <path d="M 60.5 34.286149 
L 71.011325 34.397051 
L 80.889929 34.718201 
L 80.889929 34.718201 
" clip-path="url(#p4eef20ee34)" style="fill: none; stroke: #ff0000; stroke-width: 1.5; stroke-linecap: square"/>
   </g>
   <g id="line2d_100">
    <path d="M 60.5 34.286149 
L 71.009469 34.397011 
L 80.917761 34.71944 
L 82.743559 34.805253 
L 82.743559 34.805253 
" clip-path="url(#p4eef20ee34)" style="fill: none; stroke: #ff0000; stroke-width: 1.5; stroke-linecap: square"/>
   </g>
   <g id="line2d_101">
    <path d="M 60.5 34.286149 
L 71.016891 34.39717 
L 80.93075 34.720019 
L 84.597189 34.90189 
L 84.597189 34.90189 
" clip-path="url(#p4eef20ee34)" style="fill: none; stroke: #ff0000; stroke-width: 1.5; stroke-linecap: square"/>
   </g>
   <g id="line2d_102">
    <path d="M 60.5 34.286149 
L 71.020602 34.397249 
L 80.943738 34.720598 
L 86.450819 35.008751 
L 86.450819 35.008751 
" clip-path="url(#p4eef20ee34)" style="fill: none; stroke: #ff0000; stroke-width: 1.5; stroke-linecap: square"/>
   </g>
   <g id="line2d_103">
    <path d="M 60.5 34.286149 
L 71.020602 34.397249 
L 80.928894 34.719936 
L 88.304449 35.126585 
L 88.304449 35.126585 
" clip-path="url(#p4eef20ee34)" style="fill: none; stroke: #ff0000; stroke-width: 1.5; stroke-linecap: square"/>
   </g>
   <g id="line2d_104">
    <path d="M 60.5 34.286149 
L 71.009469 34.397011 
L 80.925183 34.719771 
L 89.653387 35.219732 
L 90.158079 35.256271 
L 90.158079 35.256271 
" clip-path="url(#p4eef20ee34)" style="fill: none; stroke: #ff0000; stroke-width: 1.5; stroke-linecap: square"/>
   </g>
   <g id="line2d_105">
    <path d="M 60.5 34.286149 
L 71.003903 34.396892 
L 80.908484 34.719027 
L 89.645965 35.219201 
L 92.011709 35.398823 
L 92.011709 35.398823 
" clip-path="url(#p4eef20ee34)" style="fill: none; stroke: #ff0000; stroke-width: 1.5; stroke-linecap: square"/>
   </g>
   <g id="line2d_106">
    <path d="M 60.5 34.286149 
L 71.020602 34.397249 
L 80.940027 34.720433 
L 89.690496 35.222386 
L 93.865339 35.555383 
L 93.865339 35.555383 
" clip-path="url(#p4eef20ee34)" style="fill: none; stroke: #ff0000; stroke-width: 1.5; stroke-linecap: square"/>
   </g>
   <g id="line2d_107">
    <path d="M 60.5 34.286149 
L 71.005758 34.396932 
L 80.912195 34.719192 
L 89.655242 35.219864 
L 95.718968 35.727181 
L 95.718968 35.727181 
" clip-path="url(#p4eef20ee34)" style="fill: none; stroke: #ff0000; stroke-width: 1.5; stroke-linecap: square"/>
   </g>
   <g id="line2d_108">
    <path d="M 60.5 34.286149 
L 71.002047 34.396853 
L 80.910339 34.719109 
L 89.631121 35.218141 
L 97.015953 35.857096 
L 97.572598 35.915413 
L 97.572598 35.915413 
" clip-path="url(#p4eef20ee34)" style="fill: none; stroke: #ff0000; stroke-width: 1.5; stroke-linecap: square"/>
   </g>
   <g id="patch_5">
    <path d="M 60.5 254.48 
L 60.5 14.76 
" style="fill: none; stroke: #000000; stroke-width: 0.8; stroke-linejoin: miter; stroke-linecap: square"/>
   </g>
   <g id="patch_6">
    <path d="M 97.2 254.48 
L 97.2 14.76 
" style="fill: none; stroke: #000000; stroke-width: 0.8; stroke-linejoin: miter; stroke-linecap: square"/>
   </g>
   <g id="patch_7">
    <path d="M 60.5 254.48 
L 97.2 254.48 
" style="fill: none; stroke: #000000; stroke-width: 0.8; stroke-linejoin: miter; stroke-linecap: square"/>
   </g>
   <g id="patch_8">
    <path d="M 60.5 14.76 
L 97.2 14.76 
" style="fill: none; stroke: #000000; stroke-width: 0.8; stroke-linejoin: miter; stroke-linecap: square"/>
   </g>
   <g id="text_5">
    <!-- X -->
    <g transform="translate(82.75625 271.750128) scale(0.2 -0.2)">
     <defs>
      <path id="TimesNewRomanPSMT-58" d="M 2613 2347 
L 3522 991 
Q 3900 428 4083 279 
Q 4266 131 4547 116 
L 4547 0 
L 2728 0 
L 2728 116 
Q 2909 119 2997 153 
Q 3063 181 3105 239 
Q 3147 297 3147 356 
Q 3147 428 3119 500 
Q 3097 553 2947 775 
L 2228 1863 
L 1341 725 
Q 1200 544 1172 483 
Q 1144 422 1144 356 
Q 1144 256 1228 190 
Q 1313 125 1550 116 
L 1550 0 
L 47 0 
L 47 116 
Q 206 131 322 181 
Q 516 263 691 400 
Q 866 538 1091 822 
L 2091 2084 
L 1256 3306 
Q 916 3803 678 3958 
Q 441 4113 131 4122 
L 131 4238 
L 2091 4238 
L 2091 4122 
Q 1841 4113 1748 4041 
Q 1656 3969 1656 3881 
Q 1656 3766 1806 3544 
L 2456 2572 
L 3209 3525 
Q 3341 3694 3370 3756 
Q 3400 3819 3400 3884 
Q 3400 3950 3363 4000 
Q 3316 4066 3244 4092 
Q 3172 4119 2947 4122 
L 2947 4238 
L 4450 4238 
L 4450 4122 
Q 4272 4113 4159 4066 
Q 3991 3994 3850 3872 
Q 3709 3750 3453 3422 
L 2613 2347 
z
" transform="scale(0.015625)"/>
     </defs>
     <use xlink:href="#TimesNewRomanPSMT-58"/>
    </g>
   </g>
  </g>
 </g>
 <defs>
  <clipPath id="p4eef20ee34">
   <rect x="60.5" y="14.76" width="36.7" height="239.72"/>
  </clipPath>
 </defs>
</svg>
