<?xml version="1.0" encoding="utf-8" standalone="no"?>
<!DOCTYPE svg PUBLIC "-//W3C//DTD SVG 1.1//EN"
  "http://www.w3.org/Graphics/SVG/1.1/DTD/svg11.dtd">
<svg xmlns:xlink="http://www.w3.org/1999/xlink" width="108pt" height="288pt" viewBox="0 0 108 288" xmlns="http://www.w3.org/2000/svg" version="1.1">
 <metadata>
  <rdf:RDF xmlns:dc="http://purl.org/dc/elements/1.1/" xmlns:cc="http://creativecommons.org/ns#" xmlns:rdf="http://www.w3.org/1999/02/22-rdf-syntax-ns#">
   <cc:Work>
    <dc:type rdf:resource="http://purl.org/dc/dcmitype/StillImage"/>
    <dc:date>2024-12-16T17:12:04.716081</dc:date>
    <dc:format>image/svg+xml</dc:format>
    <dc:creator>
     <cc:Agent>
      <dc:title>Matplotlib v3.9.2, https://matplotlib.org/</dc:title>
     </cc:Agent>
    </dc:creator>
   </cc:Work>
  </rdf:RDF>
 </metadata>
 <defs>
  <style type="text/css">*{stroke-linejoin: round; stroke-linecap: butt}</style>
 </defs>
 <g id="figure_1">
  <g id="patch_1">
   <path d="M 0 288 
L 108 288 
L 108 0 
L 0 0 
z
" style="fill: #ffffff"/>
  </g>
  <g id="axes_1">
   <g id="patch_2">
    <path d="M 59.1275 255.92 
L 97.2 255.92 
L 97.2 14.76 
L 59.1275 14.76 
z
" style="fill: #ffffff"/>
   </g>
   <g id="matplotlib.axis_1">
    <g id="text_1">
     <!-- Γ -->
     <g transform="translate(59.1275 272.41875) scale(0.18 -0.18)">
      <defs>
       <path id="TimesNewRomanPSMT-393" d="M 3516 4238 
L 3531 3247 
L 3409 3247 
Q 3397 3547 3281 3728 
Q 3166 3909 2998 3957 
Q 2831 4006 2516 4006 
L 1328 4006 
L 1328 772 
Q 1328 353 1436 240 
Q 1544 128 1934 116 
L 1934 0 
L 116 0 
L 116 116 
Q 509 128 618 240 
Q 728 353 728 772 
L 728 3466 
Q 728 3884 618 3996 
Q 509 4109 116 4122 
L 116 4238 
L 3516 4238 
z
" transform="scale(0.015625)"/>
      </defs>
      <use xlink:href="#TimesNewRomanPSMT-393"/>
     </g>
    </g>
   </g>
   <g id="matplotlib.axis_2">
    <g id="ytick_1">
     <g id="line2d_1">
      <defs>
       <path id="m16a2fff52c" d="M 0 0 
L -3.5 0 
" style="stroke: #000000; stroke-width: 0.8"/>
      </defs>
      <g>
       <use xlink:href="#m16a2fff52c" x="59.1275" y="255.92" style="stroke: #000000; stroke-width: 0.8"/>
      </g>
     </g>
     <g id="text_2">
      <!-- 0 -->
      <g transform="translate(47.1275 259.391875) scale(0.1 -0.1)">
       <defs>
        <path id="TimesNewRomanPSMT-30" d="M 231 2094 
Q 231 2819 450 3342 
Q 669 3866 1031 4122 
Q 1313 4325 1613 4325 
Q 2100 4325 2488 3828 
Q 2972 3213 2972 2159 
Q 2972 1422 2759 906 
Q 2547 391 2217 158 
Q 1888 -75 1581 -75 
Q 975 -75 572 641 
Q 231 1244 231 2094 
z
M 844 2016 
Q 844 1141 1059 588 
Q 1238 122 1591 122 
Q 1759 122 1940 273 
Q 2122 425 2216 781 
Q 2359 1319 2359 2297 
Q 2359 3022 2209 3506 
Q 2097 3866 1919 4016 
Q 1791 4119 1609 4119 
Q 1397 4119 1231 3928 
Q 1006 3669 925 3112 
Q 844 2556 844 2016 
z
" transform="scale(0.015625)"/>
       </defs>
       <use xlink:href="#TimesNewRomanPSMT-30"/>
      </g>
     </g>
    </g>
    <g id="ytick_2">
     <g id="line2d_2">
      <g>
       <use xlink:href="#m16a2fff52c" x="59.1275" y="14.76" style="stroke: #000000; stroke-width: 0.8"/>
      </g>
     </g>
     <g id="text_3">
      <!-- 6500 -->
      <g transform="translate(32.1275 18.231875) scale(0.1 -0.1)">
       <defs>
        <path id="TimesNewRomanPSMT-36" d="M 2869 4325 
L 2869 4209 
Q 2456 4169 2195 4045 
Q 1934 3922 1679 3669 
Q 1425 3416 1258 3105 
Q 1091 2794 978 2366 
Q 1428 2675 1881 2675 
Q 2316 2675 2634 2325 
Q 2953 1975 2953 1425 
Q 2953 894 2631 456 
Q 2244 -75 1606 -75 
Q 1172 -75 869 213 
Q 275 772 275 1663 
Q 275 2231 503 2743 
Q 731 3256 1154 3653 
Q 1578 4050 1965 4187 
Q 2353 4325 2688 4325 
L 2869 4325 
z
M 925 2138 
Q 869 1716 869 1456 
Q 869 1156 980 804 
Q 1091 453 1309 247 
Q 1469 100 1697 100 
Q 1969 100 2183 356 
Q 2397 613 2397 1088 
Q 2397 1622 2184 2012 
Q 1972 2403 1581 2403 
Q 1463 2403 1327 2353 
Q 1191 2303 925 2138 
z
" transform="scale(0.015625)"/>
        <path id="TimesNewRomanPSMT-35" d="M 2778 4238 
L 2534 3706 
L 1259 3706 
L 981 3138 
Q 1809 3016 2294 2522 
Q 2709 2097 2709 1522 
Q 2709 1188 2573 903 
Q 2438 619 2231 419 
Q 2025 219 1772 97 
Q 1413 -75 1034 -75 
Q 653 -75 479 54 
Q 306 184 306 341 
Q 306 428 378 495 
Q 450 563 559 563 
Q 641 563 702 538 
Q 763 513 909 409 
Q 1144 247 1384 247 
Q 1750 247 2026 523 
Q 2303 800 2303 1197 
Q 2303 1581 2056 1914 
Q 1809 2247 1375 2428 
Q 1034 2569 447 2591 
L 1259 4238 
L 2778 4238 
z
" transform="scale(0.015625)"/>
       </defs>
       <use xlink:href="#TimesNewRomanPSMT-36"/>
       <use xlink:href="#TimesNewRomanPSMT-35" x="50"/>
       <use xlink:href="#TimesNewRomanPSMT-30" x="100"/>
       <use xlink:href="#TimesNewRomanPSMT-30" x="150"/>
      </g>
     </g>
    </g>
    <g id="text_4">
     <!-- Frequency (Hz) -->
     <g transform="translate(24.243438 192.065312) rotate(-90) scale(0.18 -0.18)">
      <defs>
       <path id="TimesNewRomanPSMT-46" d="M 1309 4006 
L 1309 2341 
L 2081 2341 
Q 2347 2341 2470 2458 
Q 2594 2575 2634 2922 
L 2750 2922 
L 2750 1488 
L 2634 1488 
Q 2631 1734 2570 1850 
Q 2509 1966 2401 2023 
Q 2294 2081 2081 2081 
L 1309 2081 
L 1309 750 
Q 1309 428 1350 325 
Q 1381 247 1481 191 
Q 1619 116 1769 116 
L 1922 116 
L 1922 0 
L 103 0 
L 103 116 
L 253 116 
Q 516 116 634 269 
Q 709 369 709 750 
L 709 3488 
Q 709 3809 669 3913 
Q 638 3991 541 4047 
Q 406 4122 253 4122 
L 103 4122 
L 103 4238 
L 3256 4238 
L 3297 3306 
L 3188 3306 
Q 3106 3603 2998 3742 
Q 2891 3881 2733 3943 
Q 2575 4006 2244 4006 
L 1309 4006 
z
" transform="scale(0.015625)"/>
       <path id="TimesNewRomanPSMT-72" d="M 1038 2947 
L 1038 2303 
Q 1397 2947 1775 2947 
Q 1947 2947 2059 2842 
Q 2172 2738 2172 2600 
Q 2172 2478 2090 2393 
Q 2009 2309 1897 2309 
Q 1788 2309 1652 2417 
Q 1516 2525 1450 2525 
Q 1394 2525 1328 2463 
Q 1188 2334 1038 2041 
L 1038 669 
Q 1038 431 1097 309 
Q 1138 225 1241 169 
Q 1344 113 1538 113 
L 1538 0 
L 72 0 
L 72 113 
Q 291 113 397 181 
Q 475 231 506 341 
Q 522 394 522 644 
L 522 1753 
Q 522 2253 501 2348 
Q 481 2444 426 2487 
Q 372 2531 291 2531 
Q 194 2531 72 2484 
L 41 2597 
L 906 2947 
L 1038 2947 
z
" transform="scale(0.015625)"/>
       <path id="TimesNewRomanPSMT-65" d="M 681 1784 
Q 678 1147 991 784 
Q 1303 422 1725 422 
Q 2006 422 2214 576 
Q 2422 731 2563 1106 
L 2659 1044 
Q 2594 616 2278 264 
Q 1963 -88 1488 -88 
Q 972 -88 605 314 
Q 238 716 238 1394 
Q 238 2128 614 2539 
Q 991 2950 1559 2950 
Q 2041 2950 2350 2633 
Q 2659 2316 2659 1784 
L 681 1784 
z
M 681 1966 
L 2006 1966 
Q 1991 2241 1941 2353 
Q 1863 2528 1708 2628 
Q 1553 2728 1384 2728 
Q 1125 2728 920 2526 
Q 716 2325 681 1966 
z
" transform="scale(0.015625)"/>
       <path id="TimesNewRomanPSMT-71" d="M 2734 2947 
L 2734 -734 
Q 2734 -1009 2771 -1087 
Q 2809 -1166 2889 -1209 
Q 2969 -1253 3200 -1253 
L 3200 -1369 
L 1756 -1369 
L 1756 -1253 
L 1816 -1253 
Q 1991 -1253 2081 -1203 
Q 2144 -1169 2181 -1080 
Q 2219 -991 2219 -734 
L 2219 497 
Q 1934 159 1721 35 
Q 1509 -88 1281 -88 
Q 866 -88 539 290 
Q 213 669 213 1303 
Q 213 2031 644 2489 
Q 1075 2947 1684 2947 
Q 1863 2947 2013 2897 
Q 2163 2847 2281 2747 
Q 2463 2834 2628 2947 
L 2734 2947 
z
M 2219 694 
L 2219 2038 
Q 2219 2272 2158 2406 
Q 2097 2541 1940 2634 
Q 1784 2728 1588 2728 
Q 1238 2728 988 2431 
Q 738 2134 738 1531 
Q 738 953 992 653 
Q 1247 353 1606 353 
Q 1791 353 1934 433 
Q 2078 513 2219 694 
z
" transform="scale(0.015625)"/>
       <path id="TimesNewRomanPSMT-75" d="M 2709 2863 
L 2709 1128 
Q 2709 631 2732 520 
Q 2756 409 2807 365 
Q 2859 322 2928 322 
Q 3025 322 3147 375 
L 3191 266 
L 2334 -88 
L 2194 -88 
L 2194 519 
Q 1825 119 1631 15 
Q 1438 -88 1222 -88 
Q 981 -88 804 51 
Q 628 191 559 409 
Q 491 628 491 1028 
L 491 2306 
Q 491 2509 447 2587 
Q 403 2666 317 2708 
Q 231 2750 6 2747 
L 6 2863 
L 1009 2863 
L 1009 947 
Q 1009 547 1148 422 
Q 1288 297 1484 297 
Q 1619 297 1789 381 
Q 1959 466 2194 703 
L 2194 2325 
Q 2194 2569 2105 2655 
Q 2016 2741 1734 2747 
L 1734 2863 
L 2709 2863 
z
" transform="scale(0.015625)"/>
       <path id="TimesNewRomanPSMT-6e" d="M 1034 2341 
Q 1538 2947 1994 2947 
Q 2228 2947 2397 2830 
Q 2566 2713 2666 2444 
Q 2734 2256 2734 1869 
L 2734 647 
Q 2734 375 2778 278 
Q 2813 200 2889 156 
Q 2966 113 3172 113 
L 3172 0 
L 1756 0 
L 1756 113 
L 1816 113 
Q 2016 113 2095 173 
Q 2175 234 2206 353 
Q 2219 400 2219 647 
L 2219 1819 
Q 2219 2209 2117 2386 
Q 2016 2563 1775 2563 
Q 1403 2563 1034 2156 
L 1034 647 
Q 1034 356 1069 288 
Q 1113 197 1189 155 
Q 1266 113 1500 113 
L 1500 0 
L 84 0 
L 84 113 
L 147 113 
Q 366 113 442 223 
Q 519 334 519 647 
L 519 1709 
Q 519 2225 495 2337 
Q 472 2450 423 2490 
Q 375 2531 294 2531 
Q 206 2531 84 2484 
L 38 2597 
L 900 2947 
L 1034 2947 
L 1034 2341 
z
" transform="scale(0.015625)"/>
       <path id="TimesNewRomanPSMT-63" d="M 2631 1088 
Q 2516 522 2178 217 
Q 1841 -88 1431 -88 
Q 944 -88 581 321 
Q 219 731 219 1428 
Q 219 2103 620 2525 
Q 1022 2947 1584 2947 
Q 2006 2947 2278 2723 
Q 2550 2500 2550 2259 
Q 2550 2141 2473 2067 
Q 2397 1994 2259 1994 
Q 2075 1994 1981 2113 
Q 1928 2178 1911 2362 
Q 1894 2547 1784 2644 
Q 1675 2738 1481 2738 
Q 1169 2738 978 2506 
Q 725 2200 725 1697 
Q 725 1184 976 792 
Q 1228 400 1656 400 
Q 1963 400 2206 609 
Q 2378 753 2541 1131 
L 2631 1088 
z
" transform="scale(0.015625)"/>
       <path id="TimesNewRomanPSMT-79" d="M 38 2863 
L 1372 2863 
L 1372 2747 
L 1306 2747 
Q 1166 2747 1095 2686 
Q 1025 2625 1025 2534 
Q 1025 2413 1128 2197 
L 1825 753 
L 2466 2334 
Q 2519 2463 2519 2588 
Q 2519 2644 2497 2672 
Q 2472 2706 2419 2726 
Q 2366 2747 2231 2747 
L 2231 2863 
L 3163 2863 
L 3163 2747 
Q 3047 2734 2984 2696 
Q 2922 2659 2847 2556 
Q 2819 2513 2741 2316 
L 1575 -541 
Q 1406 -956 1132 -1168 
Q 859 -1381 606 -1381 
Q 422 -1381 303 -1275 
Q 184 -1169 184 -1031 
Q 184 -900 270 -820 
Q 356 -741 506 -741 
Q 609 -741 788 -809 
Q 913 -856 944 -856 
Q 1038 -856 1148 -759 
Q 1259 -663 1372 -384 
L 1575 113 
L 547 2272 
Q 500 2369 397 2513 
Q 319 2622 269 2659 
Q 197 2709 38 2747 
L 38 2863 
z
" transform="scale(0.015625)"/>
       <path id="TimesNewRomanPSMT-20" transform="scale(0.015625)"/>
       <path id="TimesNewRomanPSMT-28" d="M 1988 -1253 
L 1988 -1369 
Q 1516 -1131 1200 -813 
Q 750 -359 506 256 
Q 263 872 263 1534 
Q 263 2503 741 3301 
Q 1219 4100 1988 4444 
L 1988 4313 
Q 1603 4100 1356 3731 
Q 1109 3363 987 2797 
Q 866 2231 866 1616 
Q 866 947 969 400 
Q 1050 -31 1165 -292 
Q 1281 -553 1476 -793 
Q 1672 -1034 1988 -1253 
z
" transform="scale(0.015625)"/>
       <path id="TimesNewRomanPSMT-48" d="M 1316 2272 
L 3284 2272 
L 3284 3484 
Q 3284 3809 3244 3913 
Q 3213 3991 3113 4047 
Q 2978 4122 2828 4122 
L 2678 4122 
L 2678 4238 
L 4491 4238 
L 4491 4122 
L 4341 4122 
Q 4191 4122 4056 4050 
Q 3956 4000 3920 3898 
Q 3884 3797 3884 3484 
L 3884 750 
Q 3884 428 3925 325 
Q 3956 247 4053 191 
Q 4191 116 4341 116 
L 4491 116 
L 4491 0 
L 2678 0 
L 2678 116 
L 2828 116 
Q 3088 116 3206 269 
Q 3284 369 3284 750 
L 3284 2041 
L 1316 2041 
L 1316 750 
Q 1316 428 1356 325 
Q 1388 247 1488 191 
Q 1622 116 1772 116 
L 1925 116 
L 1925 0 
L 109 0 
L 109 116 
L 259 116 
Q 522 116 641 269 
Q 716 369 716 750 
L 716 3484 
Q 716 3809 675 3913 
Q 644 3991 547 4047 
Q 409 4122 259 4122 
L 109 4122 
L 109 4238 
L 1925 4238 
L 1925 4122 
L 1772 4122 
Q 1622 4122 1488 4050 
Q 1391 4000 1353 3898 
Q 1316 3797 1316 3484 
L 1316 2272 
z
" transform="scale(0.015625)"/>
       <path id="TimesNewRomanPSMT-7a" d="M 2688 878 
L 2653 0 
L 128 0 
L 128 113 
L 2028 2644 
L 1091 2644 
Q 788 2644 694 2605 
Q 600 2566 541 2456 
Q 456 2300 444 2069 
L 319 2069 
L 338 2863 
L 2738 2863 
L 2738 2747 
L 819 209 
L 1863 209 
Q 2191 209 2308 264 
Q 2425 319 2497 456 
Q 2547 556 2581 878 
L 2688 878 
z
" transform="scale(0.015625)"/>
       <path id="TimesNewRomanPSMT-29" d="M 144 4313 
L 144 4444 
Q 619 4209 934 3891 
Q 1381 3434 1625 2820 
Q 1869 2206 1869 1541 
Q 1869 572 1392 -226 
Q 916 -1025 144 -1369 
L 144 -1253 
Q 528 -1038 776 -670 
Q 1025 -303 1145 264 
Q 1266 831 1266 1447 
Q 1266 2113 1163 2663 
Q 1084 3094 967 3353 
Q 850 3613 656 3853 
Q 463 4094 144 4313 
z
" transform="scale(0.015625)"/>
      </defs>
      <use xlink:href="#TimesNewRomanPSMT-46"/>
      <use xlink:href="#TimesNewRomanPSMT-72" x="55.615234"/>
      <use xlink:href="#TimesNewRomanPSMT-65" x="88.916016"/>
      <use xlink:href="#TimesNewRomanPSMT-71" x="133.300781"/>
      <use xlink:href="#TimesNewRomanPSMT-75" x="183.300781"/>
      <use xlink:href="#TimesNewRomanPSMT-65" x="233.300781"/>
      <use xlink:href="#TimesNewRomanPSMT-6e" x="277.685547"/>
      <use xlink:href="#TimesNewRomanPSMT-63" x="327.685547"/>
      <use xlink:href="#TimesNewRomanPSMT-79" x="372.070312"/>
      <use xlink:href="#TimesNewRomanPSMT-20" x="422.070312"/>
      <use xlink:href="#TimesNewRomanPSMT-28" x="447.070312"/>
      <use xlink:href="#TimesNewRomanPSMT-48" x="480.371094"/>
      <use xlink:href="#TimesNewRomanPSMT-7a" x="552.587891"/>
      <use xlink:href="#TimesNewRomanPSMT-29" x="596.972656"/>
     </g>
    </g>
   </g>
   <g id="line2d_3">
    <path d="M 59.1275 255.92 
L 59.1275 255.92 
" clip-path="url(#p2179d51152)" style="fill: none; stroke: #2e54a1; stroke-width: 1.5; stroke-linecap: square"/>
   </g>
   <g id="line2d_4">
    <path d="M 59.1275 255.92 
L 61.050452 251.914795 
L 61.050452 251.914795 
" clip-path="url(#p2179d51152)" style="fill: none; stroke: #2e54a1; stroke-width: 1.5; stroke-linecap: square"/>
   </g>
   <g id="line2d_5">
    <path d="M 59.1275 255.92 
L 62.973403 247.918807 
L 62.973403 247.918807 
" clip-path="url(#p2179d51152)" style="fill: none; stroke: #2e54a1; stroke-width: 1.5; stroke-linecap: square"/>
   </g>
   <g id="line2d_6">
    <path d="M 59.1275 255.92 
L 64.896355 243.941545 
L 64.896355 243.941545 
" clip-path="url(#p2179d51152)" style="fill: none; stroke: #2e54a1; stroke-width: 1.5; stroke-linecap: square"/>
   </g>
   <g id="line2d_7">
    <path d="M 59.1275 255.92 
L 66.819307 239.993116 
L 66.819307 239.993116 
" clip-path="url(#p2179d51152)" style="fill: none; stroke: #2e54a1; stroke-width: 1.5; stroke-linecap: square"/>
   </g>
   <g id="line2d_8">
    <path d="M 59.1275 255.92 
L 68.742258 236.084539 
L 68.742258 236.084539 
" clip-path="url(#p2179d51152)" style="fill: none; stroke: #2e54a1; stroke-width: 1.5; stroke-linecap: square"/>
   </g>
   <g id="line2d_9">
    <path d="M 59.1275 255.92 
L 69.579579 234.398119 
L 70.66521 232.228078 
L 70.66521 232.228078 
" clip-path="url(#p2179d51152)" style="fill: none; stroke: #2e54a1; stroke-width: 1.5; stroke-linecap: square"/>
   </g>
   <g id="line2d_10">
    <path d="M 59.1275 255.92 
L 69.583429 234.390389 
L 72.588161 228.437592 
L 72.588161 228.437592 
" clip-path="url(#p2179d51152)" style="fill: none; stroke: #2e54a1; stroke-width: 1.5; stroke-linecap: square"/>
   </g>
   <g id="line2d_11">
    <path d="M 59.1275 255.92 
L 69.583429 234.390389 
L 74.511113 224.728865 
L 74.511113 224.728865 
" clip-path="url(#p2179d51152)" style="fill: none; stroke: #2e54a1; stroke-width: 1.5; stroke-linecap: square"/>
   </g>
   <g id="line2d_12">
    <path d="M 59.1275 255.92 
L 69.573805 234.409713 
L 74.667028 224.432272 
L 76.434065 221.119895 
L 76.434065 221.119895 
" clip-path="url(#p2179d51152)" style="fill: none; stroke: #2e54a1; stroke-width: 1.5; stroke-linecap: square"/>
   </g>
   <g id="line2d_13">
    <path d="M 59.1275 255.92 
L 69.579579 234.398119 
L 74.680502 224.406671 
L 78.357016 217.631037 
L 78.357016 217.631037 
" clip-path="url(#p2179d51152)" style="fill: none; stroke: #2e54a1; stroke-width: 1.5; stroke-linecap: square"/>
   </g>
   <g id="line2d_14">
    <path d="M 59.1275 255.92 
L 69.566105 234.425173 
L 74.668953 224.428614 
L 78.586077 217.224497 
L 80.279968 214.284906 
L 80.279968 214.284906 
" clip-path="url(#p2179d51152)" style="fill: none; stroke: #2e54a1; stroke-width: 1.5; stroke-linecap: square"/>
   </g>
   <g id="line2d_15">
    <path d="M 59.1275 255.92 
L 69.56803 234.421308 
L 74.672803 224.4213 
L 78.576452 217.241538 
L 81.810245 211.740231 
L 82.20292 211.105847 
L 82.20292 211.105847 
" clip-path="url(#p2179d51152)" style="fill: none; stroke: #2e54a1; stroke-width: 1.5; stroke-linecap: square"/>
   </g>
   <g id="line2d_16">
    <path d="M 59.1275 255.92 
L 69.562256 234.432903 
L 74.667028 224.432272 
L 78.570678 217.251763 
L 81.798696 211.759008 
L 84.125871 208.118834 
L 84.125871 208.118834 
" clip-path="url(#p2179d51152)" style="fill: none; stroke: #2e54a1; stroke-width: 1.5; stroke-linecap: square"/>
   </g>
   <g id="line2d_17">
    <path d="M 59.1275 255.92 
L 69.583429 234.390389 
L 74.676652 224.413985 
L 78.584152 217.227905 
L 81.817944 211.727716 
L 84.620565 207.384416 
L 86.048823 205.347669 
L 86.048823 205.347669 
" clip-path="url(#p2179d51152)" style="fill: none; stroke: #2e54a1; stroke-width: 1.5; stroke-linecap: square"/>
   </g>
   <g id="line2d_18">
    <path d="M 59.1275 255.92 
L 69.579579 234.398119 
L 74.661253 224.443245 
L 78.588002 217.22109 
L 81.821794 211.72146 
L 84.622489 207.381587 
L 87.134453 203.886369 
L 87.971775 202.812615 
L 87.971775 202.812615 
" clip-path="url(#p2179d51152)" style="fill: none; stroke: #2e54a1; stroke-width: 1.5; stroke-linecap: square"/>
   </g>
   <g id="line2d_19">
    <path d="M 59.1275 255.92 
L 69.56803 234.421308 
L 74.649704 224.465194 
L 78.561053 217.26881 
L 81.794846 211.765269 
L 84.597466 207.418384 
L 87.122904 203.901508 
L 89.463554 201.017913 
L 89.894726 200.527822 
L 89.894726 200.527822 
" clip-path="url(#p2179d51152)" style="fill: none; stroke: #2e54a1; stroke-width: 1.5; stroke-linecap: square"/>
   </g>
   <g id="line2d_20">
    <path d="M 59.1275 255.92 
L 69.566105 234.425173 
L 74.670878 224.424957 
L 78.597626 217.204054 
L 81.837193 211.696443 
L 84.651363 207.339175 
L 87.171026 203.838489 
L 89.494352 200.982479 
L 91.686786 198.629217 
L 91.817678 198.499248 
L 91.817678 198.499248 
" clip-path="url(#p2179d51152)" style="fill: none; stroke: #2e54a1; stroke-width: 1.5; stroke-linecap: square"/>
   </g>
   <g id="line2d_21">
    <path d="M 59.1275 255.92 
L 69.556481 234.444499 
L 74.649704 224.465194 
L 78.564903 217.261991 
L 81.821794 211.72146 
L 84.628264 207.373101 
L 87.157552 203.856119 
L 89.478953 201.000188 
L 91.696411 198.619621 
L 93.740629 196.723718 
L 93.740629 196.723718 
" clip-path="url(#p2179d51152)" style="fill: none; stroke: #2e54a1; stroke-width: 1.5; stroke-linecap: square"/>
   </g>
   <g id="line2d_22">
    <path d="M 59.1275 255.92 
L 69.550706 234.456095 
L 74.634305 224.494465 
L 78.547579 217.29268 
L 81.802545 211.752749 
L 84.61864 207.387246 
L 87.142153 203.876282 
L 89.482803 200.995759 
L 91.677162 198.63882 
L 93.834948 196.642966 
L 95.663581 195.189491 
L 95.663581 195.189491 
" clip-path="url(#p2179d51152)" style="fill: none; stroke: #2e54a1; stroke-width: 1.5; stroke-linecap: square"/>
   </g>
   <g id="line2d_23">
    <path d="M 59.1275 255.92 
L 69.560331 234.436768 
L 74.642005 224.479829 
L 78.568753 217.255172 
L 81.802545 211.752749 
L 84.612865 207.395735 
L 87.115205 203.911605 
L 89.425056 201.062299 
L 91.619416 198.696573 
L 93.775277 196.693986 
L 95.931139 194.994164 
L 97.586533 193.878117 
L 97.586533 193.878117 
" clip-path="url(#p2179d51152)" style="fill: none; stroke: #2e54a1; stroke-width: 1.5; stroke-linecap: square"/>
   </g>
   <g id="line2d_24">
    <path d="M 59.1275 168.753735 
L 59.1275 168.753735 
" clip-path="url(#p2179d51152)" style="fill: none; stroke: #2e54a1; stroke-width: 1.5; stroke-linecap: square"/>
   </g>
   <g id="line2d_25">
    <path d="M 59.1275 168.753735 
L 61.050452 168.728705 
L 61.050452 168.728705 
" clip-path="url(#p2179d51152)" style="fill: none; stroke: #2e54a1; stroke-width: 1.5; stroke-linecap: square"/>
   </g>
   <g id="line2d_26">
    <path d="M 59.1275 168.753735 
L 62.973403 168.652833 
L 62.973403 168.652833 
" clip-path="url(#p2179d51152)" style="fill: none; stroke: #2e54a1; stroke-width: 1.5; stroke-linecap: square"/>
   </g>
   <g id="line2d_27">
    <path d="M 59.1275 168.753735 
L 63.158191 168.64279 
L 64.896355 168.523738 
L 64.896355 168.523738 
" clip-path="url(#p2179d51152)" style="fill: none; stroke: #2e54a1; stroke-width: 1.5; stroke-linecap: square"/>
   </g>
   <g id="line2d_28">
    <path d="M 59.1275 168.753735 
L 63.162041 168.642576 
L 66.819307 168.33736 
L 66.819307 168.33736 
" clip-path="url(#p2179d51152)" style="fill: none; stroke: #2e54a1; stroke-width: 1.5; stroke-linecap: square"/>
   </g>
   <g id="line2d_29">
    <path d="M 59.1275 168.753735 
L 63.160116 168.642683 
L 66.990621 168.317794 
L 68.742258 168.087825 
L 68.742258 168.087825 
" clip-path="url(#p2179d51152)" style="fill: none; stroke: #2e54a1; stroke-width: 1.5; stroke-linecap: square"/>
   </g>
   <g id="line2d_30">
    <path d="M 59.1275 168.753735 
L 63.158191 168.64279 
L 66.980996 168.318906 
L 70.457323 167.80562 
L 70.66521 167.767251 
L 70.66521 167.767251 
" clip-path="url(#p2179d51152)" style="fill: none; stroke: #2e54a1; stroke-width: 1.5; stroke-linecap: square"/>
   </g>
   <g id="line2d_31">
    <path d="M 59.1275 168.753735 
L 63.156267 168.642897 
L 66.982921 168.318684 
L 70.459248 167.805269 
L 72.588161 167.365531 
L 72.588161 167.365531 
" clip-path="url(#p2179d51152)" style="fill: none; stroke: #2e54a1; stroke-width: 1.5; stroke-linecap: square"/>
   </g>
   <g id="line2d_32">
    <path d="M 59.1275 168.753735 
L 63.162041 168.642576 
L 66.980996 168.318906 
L 70.461173 167.804918 
L 73.571773 167.124713 
L 74.511113 166.870096 
L 74.511113 166.870096 
" clip-path="url(#p2179d51152)" style="fill: none; stroke: #2e54a1; stroke-width: 1.5; stroke-linecap: square"/>
   </g>
   <g id="line2d_33">
    <path d="M 59.1275 168.753735 
L 63.163966 168.642469 
L 66.992545 168.317571 
L 70.474647 167.802458 
L 73.575623 167.12372 
L 76.364769 166.289583 
L 76.434065 166.265715 
L 76.434065 166.265715 
" clip-path="url(#p2179d51152)" style="fill: none; stroke: #2e54a1; stroke-width: 1.5; stroke-linecap: square"/>
   </g>
   <g id="line2d_34">
    <path d="M 59.1275 168.753735 
L 63.169741 168.642146 
L 67.000245 168.316679 
L 70.484271 167.800699 
L 73.583323 167.121732 
L 76.374394 166.286278 
L 78.357016 165.534419 
L 78.357016 165.534419 
" clip-path="url(#p2179d51152)" style="fill: none; stroke: #2e54a1; stroke-width: 1.5; stroke-linecap: square"/>
   </g>
   <g id="line2d_35">
    <path d="M 59.1275 168.753735 
L 63.150492 168.643219 
L 66.982921 168.318684 
L 70.455398 167.80597 
L 73.567924 167.125706 
L 76.362844 166.290244 
L 78.903681 165.300556 
L 80.279968 164.655665 
L 80.279968 164.655665 
" clip-path="url(#p2179d51152)" style="fill: none; stroke: #2e54a1; stroke-width: 1.5; stroke-linecap: square"/>
   </g>
   <g id="line2d_36">
    <path d="M 59.1275 168.753735 
L 63.169741 168.642146 
L 67.004095 168.316233 
L 70.468872 167.803513 
L 73.587172 167.120738 
L 76.382093 166.283631 
L 78.92293 165.292099 
L 81.278979 164.133512 
L 82.20292 163.606911 
L 82.20292 163.606911 
" clip-path="url(#p2179d51152)" style="fill: none; stroke: #2e54a1; stroke-width: 1.5; stroke-linecap: square"/>
   </g>
   <g id="line2d_37">
    <path d="M 59.1275 168.753735 
L 63.156267 168.642897 
L 66.984846 168.318461 
L 70.463098 167.804566 
L 73.565999 167.126202 
L 76.368619 166.288261 
L 78.895982 165.303935 
L 81.248181 164.150326 
L 83.45024 162.824682 
L 84.125871 162.364769 
L 84.125871 162.364769 
" clip-path="url(#p2179d51152)" style="fill: none; stroke: #2e54a1; stroke-width: 1.5; stroke-linecap: square"/>
   </g>
   <g id="line2d_38">
    <path d="M 59.1275 168.753735 
L 63.169741 168.642146 
L 66.996395 168.317125 
L 70.472722 167.80281 
L 73.571773 167.124713 
L 76.374394 166.286278 
L 78.907531 165.298866 
L 81.252031 164.148227 
L 83.461789 162.817039 
L 85.590702 161.274849 
L 86.048823 160.906843 
L 86.048823 160.906843 
" clip-path="url(#p2179d51152)" style="fill: none; stroke: #2e54a1; stroke-width: 1.5; stroke-linecap: square"/>
   </g>
   <g id="line2d_39">
    <path d="M 59.1275 168.753735 
L 63.169741 168.642146 
L 66.980996 168.318906 
L 70.445774 167.807724 
L 73.564074 167.126698 
L 76.364769 166.289583 
L 78.905606 165.299711 
L 81.244331 164.152425 
L 83.467564 162.813215 
L 85.604176 161.264214 
L 87.711916 159.457153 
L 87.971775 159.214142 
L 87.971775 159.214142 
" clip-path="url(#p2179d51152)" style="fill: none; stroke: #2e54a1; stroke-width: 1.5; stroke-linecap: square"/>
   </g>
   <g id="line2d_40">
    <path d="M 59.1275 168.753735 
L 63.162041 168.642576 
L 66.980996 168.318906 
L 70.461173 167.804918 
L 73.571773 167.124713 
L 76.374394 166.286278 
L 78.899832 165.302246 
L 81.240481 164.154523 
L 83.457939 162.819588 
L 85.583003 161.280921 
L 87.677268 159.489213 
L 89.802332 157.372686 
L 89.894726 157.273677 
L 89.894726 157.273677 
" clip-path="url(#p2179d51152)" style="fill: none; stroke: #2e54a1; stroke-width: 1.5; stroke-linecap: square"/>
   </g>
   <g id="line2d_41">
    <path d="M 59.1275 168.753735 
L 63.152417 168.643112 
L 66.980996 168.318906 
L 70.449624 167.807023 
L 73.558299 167.128186 
L 76.339746 166.298162 
L 78.892132 165.305624 
L 81.248181 164.150326 
L 83.473338 162.809389 
L 85.600327 161.267254 
L 87.694592 159.473193 
L 89.821581 157.352108 
L 91.817678 155.080588 
L 91.817678 155.080588 
" clip-path="url(#p2179d51152)" style="fill: none; stroke: #2e54a1; stroke-width: 1.5; stroke-linecap: square"/>
   </g>
   <g id="line2d_42">
    <path d="M 59.1275 168.753735 
L 63.146642 168.643432 
L 66.957898 168.32157 
L 70.422675 167.811923 
L 73.540975 167.132643 
L 76.347445 166.295524 
L 78.876733 165.312372 
L 81.232782 164.158716 
L 83.45024 162.824682 
L 85.598402 161.268773 
L 87.711916 159.457153 
L 89.825431 157.347989 
L 92.008241 154.849581 
L 93.740629 152.639109 
L 93.740629 152.639109 
" clip-path="url(#p2179d51152)" style="fill: none; stroke: #2e54a1; stroke-width: 1.5; stroke-linecap: square"/>
   </g>
   <g id="line2d_43">
    <path d="M 59.1275 168.753735 
L 63.150492 168.643219 
L 66.990621 168.317794 
L 70.465023 167.804215 
L 73.573698 167.124216 
L 76.35322 166.293545 
L 78.876733 165.312372 
L 81.217383 164.167094 
L 83.448315 162.825955 
L 85.569529 161.291539 
L 87.65417 159.510541 
L 89.775384 157.401454 
L 91.969743 154.896445 
L 94.27382 151.919694 
L 95.663581 149.962042 
L 95.663581 149.962042 
" clip-path="url(#p2179d51152)" style="fill: none; stroke: #2e54a1; stroke-width: 1.5; stroke-linecap: square"/>
   </g>
   <g id="line2d_44">
    <path d="M 59.1275 168.753735 
L 63.169741 168.642146 
L 66.980996 168.318906 
L 70.445774 167.807724 
L 73.564074 167.126698 
L 76.374394 166.286278 
L 78.915231 165.295484 
L 81.26358 164.141925 
L 83.457939 162.819588 
L 85.575303 161.28699 
L 87.692667 159.474974 
L 89.810032 157.364458 
L 92.004391 154.854271 
L 94.314243 151.864424 
L 96.816582 148.251814 
L 97.586533 147.06894 
L 97.586533 147.06894 
" clip-path="url(#p2179d51152)" style="fill: none; stroke: #2e54a1; stroke-width: 1.5; stroke-linecap: square"/>
   </g>
   <g id="line2d_45">
    <path d="M 59.1275 52.014172 
L 59.1275 52.014172 
" clip-path="url(#p2179d51152)" style="fill: none; stroke: #249087; stroke-width: 1.5; stroke-linecap: square"/>
   </g>
   <g id="line2d_46">
    <path d="M 59.1275 52.014172 
L 61.050452 52.013199 
L 61.050452 52.013199 
" clip-path="url(#p2179d51152)" style="fill: none; stroke: #249087; stroke-width: 1.5; stroke-linecap: square"/>
   </g>
   <g id="line2d_47">
    <path d="M 59.1275 52.014172 
L 62.973403 52.015777 
L 62.973403 52.015777 
" clip-path="url(#p2179d51152)" style="fill: none; stroke: #249087; stroke-width: 1.5; stroke-linecap: square"/>
   </g>
   <g id="line2d_48">
    <path d="M 59.1275 52.014172 
L 63.198614 52.016953 
L 64.896355 52.035094 
L 64.896355 52.035094 
" clip-path="url(#p2179d51152)" style="fill: none; stroke: #249087; stroke-width: 1.5; stroke-linecap: square"/>
   </g>
   <g id="line2d_49">
    <path d="M 59.1275 52.014172 
L 63.208238 52.01701 
L 66.819307 52.073149 
L 66.819307 52.073149 
" clip-path="url(#p2179d51152)" style="fill: none; stroke: #249087; stroke-width: 1.5; stroke-linecap: square"/>
   </g>
   <g id="line2d_50">
    <path d="M 59.1275 52.014172 
L 63.217863 52.017067 
L 68.742258 52.12654 
L 68.742258 52.12654 
" clip-path="url(#p2179d51152)" style="fill: none; stroke: #249087; stroke-width: 1.5; stroke-linecap: square"/>
   </g>
   <g id="line2d_51">
    <path d="M 59.1275 52.014172 
L 63.227487 52.017124 
L 69.995353 52.169042 
L 70.66521 52.19425 
L 70.66521 52.19425 
" clip-path="url(#p2179d51152)" style="fill: none; stroke: #249087; stroke-width: 1.5; stroke-linecap: square"/>
   </g>
   <g id="line2d_52">
    <path d="M 59.1275 52.014172 
L 63.237111 52.017183 
L 70.001127 52.169252 
L 72.588161 52.276421 
L 72.588161 52.276421 
" clip-path="url(#p2179d51152)" style="fill: none; stroke: #249087; stroke-width: 1.5; stroke-linecap: square"/>
   </g>
   <g id="line2d_53">
    <path d="M 59.1275 52.014172 
L 63.254435 52.017289 
L 70.030001 52.170303 
L 74.511113 52.373635 
L 74.511113 52.373635 
" clip-path="url(#p2179d51152)" style="fill: none; stroke: #249087; stroke-width: 1.5; stroke-linecap: square"/>
   </g>
   <g id="line2d_54">
    <path d="M 59.1275 52.014172 
L 63.250585 52.017265 
L 70.024226 52.170093 
L 76.434065 52.486715 
L 76.434065 52.486715 
" clip-path="url(#p2179d51152)" style="fill: none; stroke: #249087; stroke-width: 1.5; stroke-linecap: square"/>
   </g>
   <g id="line2d_55">
    <path d="M 59.1275 52.014172 
L 63.265985 52.01736 
L 70.04155 52.170725 
L 77.433076 52.552048 
L 78.357016 52.616653 
L 78.357016 52.616653 
" clip-path="url(#p2179d51152)" style="fill: none; stroke: #249087; stroke-width: 1.5; stroke-linecap: square"/>
   </g>
   <g id="line2d_56">
    <path d="M 59.1275 52.014172 
L 63.277534 52.017433 
L 70.053099 52.171147 
L 77.4427 52.5527 
L 80.279968 52.764582 
L 80.279968 52.764582 
" clip-path="url(#p2179d51152)" style="fill: none; stroke: #249087; stroke-width: 1.5; stroke-linecap: square"/>
   </g>
   <g id="line2d_57">
    <path d="M 59.1275 52.014172 
L 63.285233 52.017482 
L 70.076198 52.171992 
L 77.444625 52.55283 
L 82.20292 52.931755 
L 82.20292 52.931755 
" clip-path="url(#p2179d51152)" style="fill: none; stroke: #249087; stroke-width: 1.5; stroke-linecap: square"/>
   </g>
   <g id="line2d_58">
    <path d="M 59.1275 52.014172 
L 63.306407 52.017617 
L 70.087747 52.172416 
L 77.469648 52.554528 
L 84.075824 53.114362 
L 84.125871 53.119522 
L 84.125871 53.119522 
" clip-path="url(#p2179d51152)" style="fill: none; stroke: #249087; stroke-width: 1.5; stroke-linecap: square"/>
   </g>
   <g id="line2d_59">
    <path d="M 59.1275 52.014172 
L 63.304482 52.017605 
L 70.095446 52.172698 
L 77.479273 52.555182 
L 84.081599 53.114957 
L 86.048823 53.329299 
L 86.048823 53.329299 
" clip-path="url(#p2179d51152)" style="fill: none; stroke: #249087; stroke-width: 1.5; stroke-linecap: square"/>
   </g>
   <g id="line2d_60">
    <path d="M 59.1275 52.014172 
L 63.314106 52.017667 
L 70.099296 52.17284 
L 77.490822 52.555967 
L 84.102773 53.117139 
L 87.971775 53.562531 
L 87.971775 53.562531 
" clip-path="url(#p2179d51152)" style="fill: none; stroke: #249087; stroke-width: 1.5; stroke-linecap: square"/>
   </g>
   <g id="line2d_61">
    <path d="M 59.1275 52.014172 
L 63.316031 52.01768 
L 70.122395 52.173689 
L 77.483122 52.555443 
L 84.0739 53.114164 
L 89.894726 53.820627 
L 89.894726 53.820627 
" clip-path="url(#p2179d51152)" style="fill: none; stroke: #249087; stroke-width: 1.5; stroke-linecap: square"/>
   </g>
   <g id="line2d_62">
    <path d="M 59.1275 52.014172 
L 63.348754 52.017896 
L 70.155118 52.174896 
L 77.51777 52.557801 
L 84.127796 53.11972 
L 90.050641 53.842685 
L 91.817678 54.104894 
L 91.817678 54.104894 
" clip-path="url(#p2179d51152)" style="fill: none; stroke: #249087; stroke-width: 1.5; stroke-linecap: square"/>
   </g>
   <g id="line2d_63">
    <path d="M 59.1275 52.014172 
L 63.354529 52.017935 
L 70.145493 52.174541 
L 77.52547 52.558325 
L 84.108547 53.117734 
L 90.033317 53.840225 
L 93.740629 54.416434 
L 93.740629 54.416434 
" clip-path="url(#p2179d51152)" style="fill: none; stroke: #249087; stroke-width: 1.5; stroke-linecap: square"/>
   </g>
   <g id="line2d_64">
    <path d="M 59.1275 52.014172 
L 63.369928 52.01804 
L 70.172441 52.175537 
L 77.560117 52.56069 
L 84.143195 53.121311 
L 90.067965 53.845146 
L 95.590436 54.742603 
L 95.663581 54.756033 
L 95.663581 54.756033 
" clip-path="url(#p2179d51152)" style="fill: none; stroke: #249087; stroke-width: 1.5; stroke-linecap: square"/>
   </g>
   <g id="line2d_65">
    <path d="M 59.1275 52.014172 
L 63.362228 52.017987 
L 70.176291 52.17568 
L 77.529319 52.558588 
L 84.112397 53.118131 
L 90.041017 53.841318 
L 95.546164 54.734493 
L 97.586533 55.124023 
L 97.586533 55.124023 
" clip-path="url(#p2179d51152)" style="fill: none; stroke: #249087; stroke-width: 1.5; stroke-linecap: square"/>
   </g>
   <g id="line2d_66">
    <path d="M 59.1275 51.955012 
L 59.1275 51.955012 
" clip-path="url(#p2179d51152)" style="fill: none; stroke: #249087; stroke-width: 1.5; stroke-linecap: square"/>
   </g>
   <g id="line2d_67">
    <path d="M 59.1275 51.955012 
L 61.050452 51.957684 
L 61.050452 51.957684 
" clip-path="url(#p2179d51152)" style="fill: none; stroke: #249087; stroke-width: 1.5; stroke-linecap: square"/>
   </g>
   <g id="line2d_68">
    <path d="M 59.1275 51.955012 
L 62.973403 51.9603 
L 62.973403 51.9603 
" clip-path="url(#p2179d51152)" style="fill: none; stroke: #249087; stroke-width: 1.5; stroke-linecap: square"/>
   </g>
   <g id="line2d_69">
    <path d="M 59.1275 51.955012 
L 63.464247 51.959282 
L 64.896355 51.949954 
L 64.896355 51.949954 
" clip-path="url(#p2179d51152)" style="fill: none; stroke: #249087; stroke-width: 1.5; stroke-linecap: square"/>
   </g>
   <g id="line2d_70">
    <path d="M 59.1275 51.955012 
L 63.477721 51.959238 
L 66.819307 51.925124 
L 66.819307 51.925124 
" clip-path="url(#p2179d51152)" style="fill: none; stroke: #249087; stroke-width: 1.5; stroke-linecap: square"/>
   </g>
   <g id="line2d_71">
    <path d="M 59.1275 51.955012 
L 63.487345 51.959206 
L 68.742258 51.889881 
L 68.742258 51.889881 
" clip-path="url(#p2179d51152)" style="fill: none; stroke: #249087; stroke-width: 1.5; stroke-linecap: square"/>
   </g>
   <g id="line2d_72">
    <path d="M 59.1275 51.955012 
L 63.504669 51.959147 
L 70.66521 51.846108 
L 70.66521 51.846108 
" clip-path="url(#p2179d51152)" style="fill: none; stroke: #249087; stroke-width: 1.5; stroke-linecap: square"/>
   </g>
   <g id="line2d_73">
    <path d="M 59.1275 51.955012 
L 63.506594 51.959141 
L 71.685394 51.819753 
L 72.588161 51.794732 
L 72.588161 51.794732 
" clip-path="url(#p2179d51152)" style="fill: none; stroke: #249087; stroke-width: 1.5; stroke-linecap: square"/>
   </g>
   <g id="line2d_74">
    <path d="M 59.1275 51.955012 
L 63.516218 51.959107 
L 71.693094 51.819546 
L 74.511113 51.736442 
L 74.511113 51.736442 
" clip-path="url(#p2179d51152)" style="fill: none; stroke: #249087; stroke-width: 1.5; stroke-linecap: square"/>
   </g>
   <g id="line2d_75">
    <path d="M 59.1275 51.955012 
L 63.527768 51.959067 
L 71.721967 51.818769 
L 76.434065 51.671896 
L 76.434065 51.671896 
" clip-path="url(#p2179d51152)" style="fill: none; stroke: #249087; stroke-width: 1.5; stroke-linecap: square"/>
   </g>
   <g id="line2d_76">
    <path d="M 59.1275 51.955012 
L 63.535467 51.95904 
L 71.735441 51.818406 
L 78.357016 51.601792 
L 78.357016 51.601792 
" clip-path="url(#p2179d51152)" style="fill: none; stroke: #249087; stroke-width: 1.5; stroke-linecap: square"/>
   </g>
   <g id="line2d_77">
    <path d="M 59.1275 51.955012 
L 63.552791 51.958977 
L 71.768164 51.817524 
L 80.279968 51.526901 
L 80.279968 51.526901 
" clip-path="url(#p2179d51152)" style="fill: none; stroke: #249087; stroke-width: 1.5; stroke-linecap: square"/>
   </g>
   <g id="line2d_78">
    <path d="M 59.1275 51.955012 
L 63.562415 51.958942 
L 71.785488 51.817056 
L 82.20292 51.448077 
L 82.20292 51.448077 
" clip-path="url(#p2179d51152)" style="fill: none; stroke: #249087; stroke-width: 1.5; stroke-linecap: square"/>
   </g>
   <g id="line2d_79">
    <path d="M 59.1275 51.955012 
L 63.581664 51.95887 
L 71.814361 51.816274 
L 83.800567 51.380282 
L 84.125871 51.366281 
L 84.125871 51.366281 
" clip-path="url(#p2179d51152)" style="fill: none; stroke: #249087; stroke-width: 1.5; stroke-linecap: square"/>
   </g>
   <g id="line2d_80">
    <path d="M 59.1275 51.955012 
L 63.600913 51.958796 
L 71.847084 51.815386 
L 83.839065 51.378628 
L 86.048823 51.282585 
L 86.048823 51.282585 
" clip-path="url(#p2179d51152)" style="fill: none; stroke: #249087; stroke-width: 1.5; stroke-linecap: square"/>
   </g>
   <g id="line2d_81">
    <path d="M 59.1275 51.955012 
L 63.602838 51.958789 
L 71.831685 51.815804 
L 83.842914 51.378463 
L 87.971775 51.198199 
L 87.971775 51.198199 
" clip-path="url(#p2179d51152)" style="fill: none; stroke: #249087; stroke-width: 1.5; stroke-linecap: square"/>
   </g>
   <g id="line2d_82">
    <path d="M 59.1275 51.955012 
L 63.624012 51.958706 
L 71.877882 51.814549 
L 83.889111 51.376477 
L 89.894726 51.114484 
L 89.894726 51.114484 
" clip-path="url(#p2179d51152)" style="fill: none; stroke: #249087; stroke-width: 1.5; stroke-linecap: square"/>
   </g>
   <g id="line2d_83">
    <path d="M 59.1275 51.955012 
L 63.610537 51.958759 
L 71.856708 51.815125 
L 83.866013 51.37747 
L 91.817678 51.032986 
L 91.817678 51.032986 
" clip-path="url(#p2179d51152)" style="fill: none; stroke: #249087; stroke-width: 1.5; stroke-linecap: square"/>
   </g>
   <g id="line2d_84">
    <path d="M 59.1275 51.955012 
L 63.631711 51.958675 
L 71.91253 51.813605 
L 83.935309 51.37449 
L 93.740629 50.955469 
L 93.740629 50.955469 
" clip-path="url(#p2179d51152)" style="fill: none; stroke: #249087; stroke-width: 1.5; stroke-linecap: square"/>
   </g>
   <g id="line2d_85">
    <path d="M 59.1275 51.955012 
L 63.662509 51.958549 
L 71.964501 51.812184 
L 84.033477 51.370263 
L 95.663581 50.883965 
L 95.663581 50.883965 
" clip-path="url(#p2179d51152)" style="fill: none; stroke: #249087; stroke-width: 1.5; stroke-linecap: square"/>
   </g>
   <g id="line2d_86">
    <path d="M 59.1275 51.955012 
L 63.670209 51.958516 
L 71.947178 51.812658 
L 83.996905 51.371838 
L 97.586533 50.820836 
L 97.586533 50.820836 
" clip-path="url(#p2179d51152)" style="fill: none; stroke: #249087; stroke-width: 1.5; stroke-linecap: square"/>
   </g>
   <g id="line2d_87">
    <path d="M 59.1275 29.575278 
L 59.1275 29.575278 
" clip-path="url(#p2179d51152)" style="fill: none; stroke: #ff0000; stroke-width: 1.5; stroke-linecap: square"/>
   </g>
   <g id="line2d_88">
    <path d="M 59.1275 29.575278 
L 61.050452 29.576787 
L 61.050452 29.576787 
" clip-path="url(#p2179d51152)" style="fill: none; stroke: #ff0000; stroke-width: 1.5; stroke-linecap: square"/>
   </g>
   <g id="line2d_89">
    <path d="M 59.1275 29.575278 
L 62.973403 29.581311 
L 62.973403 29.581311 
" clip-path="url(#p2179d51152)" style="fill: none; stroke: #ff0000; stroke-width: 1.5; stroke-linecap: square"/>
   </g>
   <g id="line2d_90">
    <path d="M 59.1275 29.575278 
L 64.896355 29.588838 
L 64.896355 29.588838 
" clip-path="url(#p2179d51152)" style="fill: none; stroke: #ff0000; stroke-width: 1.5; stroke-linecap: square"/>
   </g>
   <g id="line2d_91">
    <path d="M 59.1275 29.575278 
L 66.819307 29.599346 
L 66.819307 29.599346 
" clip-path="url(#p2179d51152)" style="fill: none; stroke: #ff0000; stroke-width: 1.5; stroke-linecap: square"/>
   </g>
   <g id="line2d_92">
    <path d="M 59.1275 29.575278 
L 68.742258 29.612805 
L 68.742258 29.612805 
" clip-path="url(#p2179d51152)" style="fill: none; stroke: #ff0000; stroke-width: 1.5; stroke-linecap: square"/>
   </g>
   <g id="line2d_93">
    <path d="M 59.1275 29.575278 
L 70.66521 29.629178 
L 70.66521 29.629178 
" clip-path="url(#p2179d51152)" style="fill: none; stroke: #ff0000; stroke-width: 1.5; stroke-linecap: square"/>
   </g>
   <g id="line2d_94">
    <path d="M 59.1275 29.575278 
L 72.588161 29.648418 
L 72.588161 29.648418 
" clip-path="url(#p2179d51152)" style="fill: none; stroke: #ff0000; stroke-width: 1.5; stroke-linecap: square"/>
   </g>
   <g id="line2d_95">
    <path d="M 59.1275 29.575278 
L 74.511113 29.670467 
L 74.511113 29.670467 
" clip-path="url(#p2179d51152)" style="fill: none; stroke: #ff0000; stroke-width: 1.5; stroke-linecap: square"/>
   </g>
   <g id="line2d_96">
    <path d="M 59.1275 29.575278 
L 75.775757 29.686469 
L 76.434065 29.695262 
L 76.434065 29.695262 
" clip-path="url(#p2179d51152)" style="fill: none; stroke: #ff0000; stroke-width: 1.5; stroke-linecap: square"/>
   </g>
   <g id="line2d_97">
    <path d="M 59.1275 29.575278 
L 75.777682 29.686494 
L 78.357016 29.722725 
L 78.357016 29.722725 
" clip-path="url(#p2179d51152)" style="fill: none; stroke: #ff0000; stroke-width: 1.5; stroke-linecap: square"/>
   </g>
   <g id="line2d_98">
    <path d="M 59.1275 29.575278 
L 75.769982 29.686393 
L 80.279968 29.752774 
L 80.279968 29.752774 
" clip-path="url(#p2179d51152)" style="fill: none; stroke: #ff0000; stroke-width: 1.5; stroke-linecap: square"/>
   </g>
   <g id="line2d_99">
    <path d="M 59.1275 29.575278 
L 75.781532 29.686545 
L 82.20292 29.785314 
L 82.20292 29.785314 
" clip-path="url(#p2179d51152)" style="fill: none; stroke: #ff0000; stroke-width: 1.5; stroke-linecap: square"/>
   </g>
   <g id="line2d_100">
    <path d="M 59.1275 29.575278 
L 75.768057 29.686368 
L 84.125871 29.820241 
L 84.125871 29.820241 
" clip-path="url(#p2179d51152)" style="fill: none; stroke: #ff0000; stroke-width: 1.5; stroke-linecap: square"/>
   </g>
   <g id="line2d_101">
    <path d="M 59.1275 29.575278 
L 75.781532 29.686545 
L 86.048823 29.857443 
L 86.048823 29.857443 
" clip-path="url(#p2179d51152)" style="fill: none; stroke: #ff0000; stroke-width: 1.5; stroke-linecap: square"/>
   </g>
   <g id="line2d_102">
    <path d="M 59.1275 29.575278 
L 75.758433 29.686242 
L 87.971775 29.896799 
L 87.971775 29.896799 
" clip-path="url(#p2179d51152)" style="fill: none; stroke: #ff0000; stroke-width: 1.5; stroke-linecap: square"/>
   </g>
   <g id="line2d_103">
    <path d="M 59.1275 29.575278 
L 75.758433 29.686242 
L 89.894726 29.938181 
L 89.894726 29.938181 
" clip-path="url(#p2179d51152)" style="fill: none; stroke: #ff0000; stroke-width: 1.5; stroke-linecap: square"/>
   </g>
   <g id="line2d_104">
    <path d="M 59.1275 29.575278 
L 75.783456 29.68657 
L 91.817678 29.981456 
L 91.817678 29.981456 
" clip-path="url(#p2179d51152)" style="fill: none; stroke: #ff0000; stroke-width: 1.5; stroke-linecap: square"/>
   </g>
   <g id="line2d_105">
    <path d="M 59.1275 29.575278 
L 75.758433 29.686242 
L 93.740629 30.026488 
L 93.740629 30.026488 
" clip-path="url(#p2179d51152)" style="fill: none; stroke: #ff0000; stroke-width: 1.5; stroke-linecap: square"/>
   </g>
   <g id="line2d_106">
    <path d="M 59.1275 29.575278 
L 75.768057 29.686368 
L 94.346966 30.04103 
L 95.663581 30.073145 
L 95.663581 30.073145 
" clip-path="url(#p2179d51152)" style="fill: none; stroke: #ff0000; stroke-width: 1.5; stroke-linecap: square"/>
   </g>
   <g id="line2d_107">
    <path d="M 59.1275 29.575278 
L 75.758433 29.686242 
L 94.35274 30.04117 
L 97.586533 30.121304 
L 97.586533 30.121304 
" clip-path="url(#p2179d51152)" style="fill: none; stroke: #ff0000; stroke-width: 1.5; stroke-linecap: square"/>
   </g>
   <g id="patch_3">
    <path d="M 59.1275 255.92 
L 59.1275 14.76 
" style="fill: none; stroke: #000000; stroke-width: 0.8; stroke-linejoin: miter; stroke-linecap: square"/>
   </g>
   <g id="patch_4">
    <path d="M 97.2 255.92 
L 97.2 14.76 
" style="fill: none; stroke: #000000; stroke-width: 0.8; stroke-linejoin: miter; stroke-linecap: square"/>
   </g>
   <g id="patch_5">
    <path d="M 59.1275 255.92 
L 97.2 255.92 
" style="fill: none; stroke: #000000; stroke-width: 0.8; stroke-linejoin: miter; stroke-linecap: square"/>
   </g>
   <g id="patch_6">
    <path d="M 59.1275 14.76 
L 97.2 14.76 
" style="fill: none; stroke: #000000; stroke-width: 0.8; stroke-linejoin: miter; stroke-linecap: square"/>
   </g>
   <g id="text_5">
    <!-- X -->
    <g transform="translate(84.200625 272.784539) scale(0.18 -0.18)">
     <defs>
      <path id="TimesNewRomanPSMT-58" d="M 2613 2347 
L 3522 991 
Q 3900 428 4083 279 
Q 4266 131 4547 116 
L 4547 0 
L 2728 0 
L 2728 116 
Q 2909 119 2997 153 
Q 3063 181 3105 239 
Q 3147 297 3147 356 
Q 3147 428 3119 500 
Q 3097 553 2947 775 
L 2228 1863 
L 1341 725 
Q 1200 544 1172 483 
Q 1144 422 1144 356 
Q 1144 256 1228 190 
Q 1313 125 1550 116 
L 1550 0 
L 47 0 
L 47 116 
Q 206 131 322 181 
Q 516 263 691 400 
Q 866 538 1091 822 
L 2091 2084 
L 1256 3306 
Q 916 3803 678 3958 
Q 441 4113 131 4122 
L 131 4238 
L 2091 4238 
L 2091 4122 
Q 1841 4113 1748 4041 
Q 1656 3969 1656 3881 
Q 1656 3766 1806 3544 
L 2456 2572 
L 3209 3525 
Q 3341 3694 3370 3756 
Q 3400 3819 3400 3884 
Q 3400 3950 3363 4000 
Q 3316 4066 3244 4092 
Q 3172 4119 2947 4122 
L 2947 4238 
L 4450 4238 
L 4450 4122 
Q 4272 4113 4159 4066 
Q 3991 3994 3850 3872 
Q 3709 3750 3453 3422 
L 2613 2347 
z
" transform="scale(0.015625)"/>
     </defs>
     <use xlink:href="#TimesNewRomanPSMT-58"/>
    </g>
   </g>
  </g>
 </g>
 <defs>
  <clipPath id="p2179d51152">
   <rect x="59.1275" y="14.76" width="38.0725" height="241.16"/>
  </clipPath>
 </defs>
</svg>
