<?xml version="1.0" encoding="utf-8" standalone="no"?>
<!DOCTYPE svg PUBLIC "-//W3C//DTD SVG 1.1//EN"
  "http://www.w3.org/Graphics/SVG/1.1/DTD/svg11.dtd">
<svg xmlns:xlink="http://www.w3.org/1999/xlink" width="108pt" height="288pt" viewBox="0 0 108 288" xmlns="http://www.w3.org/2000/svg" version="1.1">
 <metadata>
  <rdf:RDF xmlns:dc="http://purl.org/dc/elements/1.1/" xmlns:cc="http://creativecommons.org/ns#" xmlns:rdf="http://www.w3.org/1999/02/22-rdf-syntax-ns#">
   <cc:Work>
    <dc:type rdf:resource="http://purl.org/dc/dcmitype/StillImage"/>
    <dc:date>2024-12-16T17:12:05.196823</dc:date>
    <dc:format>image/svg+xml</dc:format>
    <dc:creator>
     <cc:Agent>
      <dc:title>Matplotlib v3.9.2, https://matplotlib.org/</dc:title>
     </cc:Agent>
    </dc:creator>
   </cc:Work>
  </rdf:RDF>
 </metadata>
 <defs>
  <style type="text/css">*{stroke-linejoin: round; stroke-linecap: butt}</style>
 </defs>
 <g id="figure_1">
  <g id="patch_1">
   <path d="M 0 288 
L 108 288 
L 108 0 
L 0 0 
z
" style="fill: #ffffff"/>
  </g>
  <g id="axes_1">
   <g id="patch_2">
    <path d="M 59.06 255.92 
L 97.2 255.92 
L 97.2 14.76 
L 59.06 14.76 
z
" style="fill: #ffffff"/>
   </g>
   <g id="matplotlib.axis_1">
    <g id="text_1">
     <!-- Γ -->
     <g transform="translate(59.06 272.41875) scale(0.18 -0.18)">
      <defs>
       <path id="TimesNewRomanPSMT-393" d="M 3516 4238 
L 3531 3247 
L 3409 3247 
Q 3397 3547 3281 3728 
Q 3166 3909 2998 3957 
Q 2831 4006 2516 4006 
L 1328 4006 
L 1328 772 
Q 1328 353 1436 240 
Q 1544 128 1934 116 
L 1934 0 
L 116 0 
L 116 116 
Q 509 128 618 240 
Q 728 353 728 772 
L 728 3466 
Q 728 3884 618 3996 
Q 509 4109 116 4122 
L 116 4238 
L 3516 4238 
z
" transform="scale(0.015625)"/>
      </defs>
      <use xlink:href="#TimesNewRomanPSMT-393"/>
     </g>
    </g>
   </g>
   <g id="matplotlib.axis_2">
    <g id="ytick_1">
     <g id="line2d_1">
      <defs>
       <path id="m28ccaf5327" d="M 0 0 
L -3.5 0 
" style="stroke: #000000; stroke-width: 0.8"/>
      </defs>
      <g>
       <use xlink:href="#m28ccaf5327" x="59.06" y="255.92" style="stroke: #000000; stroke-width: 0.8"/>
      </g>
     </g>
     <g id="text_2">
      <!-- 0 -->
      <g transform="translate(47.06 259.391875) scale(0.1 -0.1)">
       <defs>
        <path id="TimesNewRomanPSMT-30" d="M 231 2094 
Q 231 2819 450 3342 
Q 669 3866 1031 4122 
Q 1313 4325 1613 4325 
Q 2100 4325 2488 3828 
Q 2972 3213 2972 2159 
Q 2972 1422 2759 906 
Q 2547 391 2217 158 
Q 1888 -75 1581 -75 
Q 975 -75 572 641 
Q 231 1244 231 2094 
z
M 844 2016 
Q 844 1141 1059 588 
Q 1238 122 1591 122 
Q 1759 122 1940 273 
Q 2122 425 2216 781 
Q 2359 1319 2359 2297 
Q 2359 3022 2209 3506 
Q 2097 3866 1919 4016 
Q 1791 4119 1609 4119 
Q 1397 4119 1231 3928 
Q 1006 3669 925 3112 
Q 844 2556 844 2016 
z
" transform="scale(0.015625)"/>
       </defs>
       <use xlink:href="#TimesNewRomanPSMT-30"/>
      </g>
     </g>
    </g>
    <g id="ytick_2">
     <g id="line2d_2">
      <g>
       <use xlink:href="#m28ccaf5327" x="59.06" y="14.76" style="stroke: #000000; stroke-width: 0.8"/>
      </g>
     </g>
     <g id="text_3">
      <!-- 6500 -->
      <g transform="translate(32.06 18.231875) scale(0.1 -0.1)">
       <defs>
        <path id="TimesNewRomanPSMT-36" d="M 2869 4325 
L 2869 4209 
Q 2456 4169 2195 4045 
Q 1934 3922 1679 3669 
Q 1425 3416 1258 3105 
Q 1091 2794 978 2366 
Q 1428 2675 1881 2675 
Q 2316 2675 2634 2325 
Q 2953 1975 2953 1425 
Q 2953 894 2631 456 
Q 2244 -75 1606 -75 
Q 1172 -75 869 213 
Q 275 772 275 1663 
Q 275 2231 503 2743 
Q 731 3256 1154 3653 
Q 1578 4050 1965 4187 
Q 2353 4325 2688 4325 
L 2869 4325 
z
M 925 2138 
Q 869 1716 869 1456 
Q 869 1156 980 804 
Q 1091 453 1309 247 
Q 1469 100 1697 100 
Q 1969 100 2183 356 
Q 2397 613 2397 1088 
Q 2397 1622 2184 2012 
Q 1972 2403 1581 2403 
Q 1463 2403 1327 2353 
Q 1191 2303 925 2138 
z
" transform="scale(0.015625)"/>
        <path id="TimesNewRomanPSMT-35" d="M 2778 4238 
L 2534 3706 
L 1259 3706 
L 981 3138 
Q 1809 3016 2294 2522 
Q 2709 2097 2709 1522 
Q 2709 1188 2573 903 
Q 2438 619 2231 419 
Q 2025 219 1772 97 
Q 1413 -75 1034 -75 
Q 653 -75 479 54 
Q 306 184 306 341 
Q 306 428 378 495 
Q 450 563 559 563 
Q 641 563 702 538 
Q 763 513 909 409 
Q 1144 247 1384 247 
Q 1750 247 2026 523 
Q 2303 800 2303 1197 
Q 2303 1581 2056 1914 
Q 1809 2247 1375 2428 
Q 1034 2569 447 2591 
L 1259 4238 
L 2778 4238 
z
" transform="scale(0.015625)"/>
       </defs>
       <use xlink:href="#TimesNewRomanPSMT-36"/>
       <use xlink:href="#TimesNewRomanPSMT-35" x="50"/>
       <use xlink:href="#TimesNewRomanPSMT-30" x="100"/>
       <use xlink:href="#TimesNewRomanPSMT-30" x="150"/>
      </g>
     </g>
    </g>
    <g id="text_4">
     <!--   -->
     <g transform="translate(24.209688 137.59) rotate(-90) scale(0.18 -0.18)">
      <defs>
       <path id="TimesNewRomanPSMT-20" transform="scale(0.015625)"/>
      </defs>
      <use xlink:href="#TimesNewRomanPSMT-20"/>
     </g>
    </g>
   </g>
   <g id="line2d_3">
    <path d="M 59.06 255.91998 
L 59.06 255.91998 
" clip-path="url(#p60e2d40baf)" style="fill: none; stroke: #2e54a1; stroke-width: 1.5; stroke-linecap: square"/>
   </g>
   <g id="line2d_4">
    <path d="M 59.06 255.91998 
L 60.986361 252.26666 
L 60.986361 252.26666 
" clip-path="url(#p60e2d40baf)" style="fill: none; stroke: #2e54a1; stroke-width: 1.5; stroke-linecap: square"/>
   </g>
   <g id="line2d_5">
    <path d="M 59.06 255.91998 
L 62.912722 248.620162 
L 62.912722 248.620162 
" clip-path="url(#p60e2d40baf)" style="fill: none; stroke: #2e54a1; stroke-width: 1.5; stroke-linecap: square"/>
   </g>
   <g id="line2d_6">
    <path d="M 59.06 255.91998 
L 64.839083 244.987549 
L 64.839083 244.987549 
" clip-path="url(#p60e2d40baf)" style="fill: none; stroke: #2e54a1; stroke-width: 1.5; stroke-linecap: square"/>
   </g>
   <g id="line2d_7">
    <path d="M 59.06 255.91998 
L 66.765444 241.376262 
L 66.765444 241.376262 
" clip-path="url(#p60e2d40baf)" style="fill: none; stroke: #2e54a1; stroke-width: 1.5; stroke-linecap: square"/>
   </g>
   <g id="line2d_8">
    <path d="M 59.06 255.91998 
L 68.691805 237.794364 
L 68.691805 237.794364 
" clip-path="url(#p60e2d40baf)" style="fill: none; stroke: #2e54a1; stroke-width: 1.5; stroke-linecap: square"/>
   </g>
   <g id="line2d_9">
    <path d="M 59.06 255.91998 
L 70.328922 234.780016 
L 70.618165 234.250768 
L 70.618165 234.250768 
" clip-path="url(#p60e2d40baf)" style="fill: none; stroke: #2e54a1; stroke-width: 1.5; stroke-linecap: square"/>
   </g>
   <g id="line2d_10">
    <path d="M 59.06 255.91998 
L 70.33085 234.776484 
L 72.544526 230.755486 
L 72.544526 230.755486 
" clip-path="url(#p60e2d40baf)" style="fill: none; stroke: #2e54a1; stroke-width: 1.5; stroke-linecap: square"/>
   </g>
   <g id="line2d_11">
    <path d="M 59.06 255.91998 
L 70.336635 234.765889 
L 74.470887 227.31989 
L 74.470887 227.31989 
" clip-path="url(#p60e2d40baf)" style="fill: none; stroke: #2e54a1; stroke-width: 1.5; stroke-linecap: square"/>
   </g>
   <g id="line2d_12">
    <path d="M 59.06 255.91998 
L 70.323137 234.790612 
L 75.789837 225.008644 
L 76.397248 223.956969 
L 76.397248 223.956969 
" clip-path="url(#p60e2d40baf)" style="fill: none; stroke: #2e54a1; stroke-width: 1.5; stroke-linecap: square"/>
   </g>
   <g id="line2d_13">
    <path d="M 59.06 255.91998 
L 70.321209 234.794144 
L 75.79755 224.995237 
L 78.323609 220.681548 
L 78.323609 220.681548 
" clip-path="url(#p60e2d40baf)" style="fill: none; stroke: #2e54a1; stroke-width: 1.5; stroke-linecap: square"/>
   </g>
   <g id="line2d_14">
    <path d="M 59.06 255.91998 
L 70.323137 234.790612 
L 75.795622 224.998589 
L 79.974225 217.957255 
L 80.24997 217.510415 
L 80.24997 217.510415 
" clip-path="url(#p60e2d40baf)" style="fill: none; stroke: #2e54a1; stroke-width: 1.5; stroke-linecap: square"/>
   </g>
   <g id="line2d_15">
    <path d="M 59.06 255.91998 
L 70.328922 234.780016 
L 75.789837 225.008644 
L 79.978081 217.950988 
L 82.176331 214.462269 
L 82.176331 214.462269 
" clip-path="url(#p60e2d40baf)" style="fill: none; stroke: #2e54a1; stroke-width: 1.5; stroke-linecap: square"/>
   </g>
   <g id="line2d_16">
    <path d="M 59.06 255.91998 
L 70.315424 234.80474 
L 75.780196 225.025405 
L 79.966511 217.969789 
L 83.425862 212.560374 
L 84.102692 211.55737 
L 84.102692 211.55737 
" clip-path="url(#p60e2d40baf)" style="fill: none; stroke: #2e54a1; stroke-width: 1.5; stroke-linecap: square"/>
   </g>
   <g id="line2d_17">
    <path d="M 59.06 255.91998 
L 70.317352 234.801208 
L 75.79755 224.995237 
L 79.981938 217.944722 
L 83.437432 212.543063 
L 86.029053 208.816764 
L 86.029053 208.816764 
" clip-path="url(#p60e2d40baf)" style="fill: none; stroke: #2e54a1; stroke-width: 1.5; stroke-linecap: square"/>
   </g>
   <g id="line2d_18">
    <path d="M 59.06 255.91998 
L 70.311567 234.811804 
L 75.778267 225.028757 
L 79.972296 217.960388 
L 83.414292 212.57769 
L 86.393499 208.318464 
L 87.955414 206.260985 
L 87.955414 206.260985 
" clip-path="url(#p60e2d40baf)" style="fill: none; stroke: #2e54a1; stroke-width: 1.5; stroke-linecap: square"/>
   </g>
   <g id="line2d_19">
    <path d="M 59.06 255.91998 
L 70.321209 234.794144 
L 75.782124 225.022053 
L 79.978081 217.950988 
L 83.433575 212.548832 
L 86.395428 208.315845 
L 89.048754 204.899728 
L 89.881774 203.908277 
L 89.881774 203.908277 
" clip-path="url(#p60e2d40baf)" style="fill: none; stroke: #2e54a1; stroke-width: 1.5; stroke-linecap: square"/>
   </g>
   <g id="line2d_20">
    <path d="M 59.06 255.91998 
L 70.336635 234.765889 
L 75.811048 224.971778 
L 80.007005 217.904004 
L 83.449002 212.525758 
L 86.432065 208.266126 
L 89.087319 204.852944 
L 91.513107 202.08518 
L 91.808135 201.772545 
L 91.808135 201.772545 
" clip-path="url(#p60e2d40baf)" style="fill: none; stroke: #2e54a1; stroke-width: 1.5; stroke-linecap: square"/>
   </g>
   <g id="line2d_21">
    <path d="M 59.06 255.91998 
L 70.305783 234.822402 
L 75.789837 225.008644 
L 79.989651 217.932191 
L 83.425862 212.560374 
L 86.410854 208.294903 
L 89.048754 204.899728 
L 91.478398 202.122307 
L 93.734496 199.861496 
L 93.734496 199.861496 
" clip-path="url(#p60e2d40baf)" style="fill: none; stroke: #2e54a1; stroke-width: 1.5; stroke-linecap: square"/>
   </g>
   <g id="line2d_22">
    <path d="M 59.06 255.91998 
L 70.307711 234.818869 
L 75.766698 225.048873 
L 79.943372 218.007405 
L 83.387296 212.618117 
L 86.354934 208.370877 
L 89.029471 204.923152 
L 91.484183 202.116114 
L 93.792345 199.807605 
L 95.660857 198.175486 
L 95.660857 198.175486 
" clip-path="url(#p60e2d40baf)" style="fill: none; stroke: #2e54a1; stroke-width: 1.5; stroke-linecap: square"/>
   </g>
   <g id="line2d_23">
    <path d="M 59.06 255.91998 
L 70.321209 234.794144 
L 75.79755 224.995237 
L 79.962655 217.976057 
L 83.39501 212.606563 
L 86.364575 208.357766 
L 89.025614 204.92784 
L 91.455258 202.147099 
L 93.769205 199.829137 
L 96.006021 197.89673 
L 97.587218 196.707471 
L 97.587218 196.707471 
" clip-path="url(#p60e2d40baf)" style="fill: none; stroke: #2e54a1; stroke-width: 1.5; stroke-linecap: square"/>
   </g>
   <g id="line2d_24">
    <path d="M 59.06 170.824581 
L 59.06 170.824581 
" clip-path="url(#p60e2d40baf)" style="fill: none; stroke: #2e54a1; stroke-width: 1.5; stroke-linecap: square"/>
   </g>
   <g id="line2d_25">
    <path d="M 59.06 170.824581 
L 60.986361 170.806982 
L 60.986361 170.806982 
" clip-path="url(#p60e2d40baf)" style="fill: none; stroke: #2e54a1; stroke-width: 1.5; stroke-linecap: square"/>
   </g>
   <g id="line2d_26">
    <path d="M 59.06 170.824581 
L 62.912722 170.753622 
L 62.912722 170.753622 
" clip-path="url(#p60e2d40baf)" style="fill: none; stroke: #2e54a1; stroke-width: 1.5; stroke-linecap: square"/>
   </g>
   <g id="line2d_27">
    <path d="M 59.06 170.824581 
L 63.867225 170.713453 
L 64.839083 170.662796 
L 64.839083 170.662796 
" clip-path="url(#p60e2d40baf)" style="fill: none; stroke: #2e54a1; stroke-width: 1.5; stroke-linecap: square"/>
   </g>
   <g id="line2d_28">
    <path d="M 59.06 170.824581 
L 63.865297 170.713543 
L 66.765444 170.531601 
L 66.765444 170.531601 
" clip-path="url(#p60e2d40baf)" style="fill: none; stroke: #2e54a1; stroke-width: 1.5; stroke-linecap: square"/>
   </g>
   <g id="line2d_29">
    <path d="M 59.06 170.824581 
L 63.871082 170.713271 
L 68.335071 170.391987 
L 68.691805 170.355841 
L 68.691805 170.355841 
" clip-path="url(#p60e2d40baf)" style="fill: none; stroke: #2e54a1; stroke-width: 1.5; stroke-linecap: square"/>
   </g>
   <g id="line2d_30">
    <path d="M 59.06 170.824581 
L 63.86144 170.713724 
L 68.327358 170.39275 
L 70.618165 170.129898 
L 70.618165 170.129898 
" clip-path="url(#p60e2d40baf)" style="fill: none; stroke: #2e54a1; stroke-width: 1.5; stroke-linecap: square"/>
   </g>
   <g id="line2d_31">
    <path d="M 59.06 170.824581 
L 63.865297 170.713543 
L 68.333143 170.392178 
L 72.261068 169.892187 
L 72.544526 169.846568 
L 72.544526 169.846568 
" clip-path="url(#p60e2d40baf)" style="fill: none; stroke: #2e54a1; stroke-width: 1.5; stroke-linecap: square"/>
   </g>
   <g id="line2d_32">
    <path d="M 59.06 170.824581 
L 63.87301 170.713181 
L 68.331214 170.392369 
L 72.264924 169.891576 
L 74.470887 169.496874 
L 74.470887 169.496874 
" clip-path="url(#p60e2d40baf)" style="fill: none; stroke: #2e54a1; stroke-width: 1.5; stroke-linecap: square"/>
   </g>
   <g id="line2d_33">
    <path d="M 59.06 170.824581 
L 63.867225 170.713453 
L 68.327358 170.39275 
L 72.266853 169.89127 
L 75.685709 169.237375 
L 76.397248 169.069868 
L 76.397248 169.069868 
" clip-path="url(#p60e2d40baf)" style="fill: none; stroke: #2e54a1; stroke-width: 1.5; stroke-linecap: square"/>
   </g>
   <g id="line2d_34">
    <path d="M 59.06 170.824581 
L 63.86144 170.713724 
L 68.315788 170.393893 
L 72.249498 169.894019 
L 75.681853 169.238251 
L 78.323609 168.552464 
L 78.323609 168.552464 
" clip-path="url(#p60e2d40baf)" style="fill: none; stroke: #2e54a1; stroke-width: 1.5; stroke-linecap: square"/>
   </g>
   <g id="line2d_35">
    <path d="M 59.06 170.824581 
L 63.874938 170.71309 
L 68.329286 170.392559 
L 72.253355 169.893408 
L 75.689566 169.236499 
L 78.701554 168.439068 
L 80.24997 167.92936 
L 80.24997 167.92936 
" clip-path="url(#p60e2d40baf)" style="fill: none; stroke: #2e54a1; stroke-width: 1.5; stroke-linecap: square"/>
   </g>
   <g id="line2d_36">
    <path d="M 59.06 170.824581 
L 63.87301 170.713181 
L 68.338928 170.391605 
L 72.272638 169.890352 
L 75.697279 169.234747 
L 78.72855 168.430809 
L 81.435868 167.485723 
L 82.176331 167.183121 
L 82.176331 167.183121 
" clip-path="url(#p60e2d40baf)" style="fill: none; stroke: #2e54a1; stroke-width: 1.5; stroke-linecap: square"/>
   </g>
   <g id="line2d_37">
    <path d="M 59.06 170.824581 
L 63.87301 170.713181 
L 68.335071 170.391987 
L 72.270709 169.890658 
L 75.704992 169.232992 
L 78.713123 168.435531 
L 81.420441 167.491811 
L 83.90215 166.394303 
L 84.102692 166.294575 
L 84.102692 166.294575 
" clip-path="url(#p60e2d40baf)" style="fill: none; stroke: #2e54a1; stroke-width: 1.5; stroke-linecap: square"/>
   </g>
   <g id="line2d_38">
    <path d="M 59.06 170.824581 
L 63.865297 170.713543 
L 68.319645 170.393512 
L 72.261068 169.892187 
L 75.689566 169.236499 
L 78.713123 168.435531 
L 81.412728 167.494853 
L 83.896365 166.397154 
L 86.029053 165.243615 
L 86.029053 165.243615 
" clip-path="url(#p60e2d40baf)" style="fill: none; stroke: #2e54a1; stroke-width: 1.5; stroke-linecap: square"/>
   </g>
   <g id="line2d_39">
    <path d="M 59.06 170.824581 
L 63.86144 170.713724 
L 68.315788 170.393893 
L 72.249498 169.894019 
L 75.691494 169.236061 
L 78.699625 168.439657 
L 81.418513 167.492572 
L 83.906006 166.392401 
L 86.248878 165.112464 
L 87.955414 164.010527 
L 87.955414 164.010527 
" clip-path="url(#p60e2d40baf)" style="fill: none; stroke: #2e54a1; stroke-width: 1.5; stroke-linecap: square"/>
   </g>
   <g id="line2d_40">
    <path d="M 59.06 170.824581 
L 63.87301 170.713181 
L 68.346641 170.390841 
L 72.264924 169.891576 
L 75.689566 169.236499 
L 78.713123 168.435531 
L 81.428155 167.488768 
L 83.927217 166.381932 
L 86.272017 165.09852 
L 88.524259 163.608916 
L 89.881774 162.5778 
L 89.881774 162.5778 
" clip-path="url(#p60e2d40baf)" style="fill: none; stroke: #2e54a1; stroke-width: 1.5; stroke-linecap: square"/>
   </g>
   <g id="line2d_41">
    <path d="M 59.06 170.824581 
L 63.878795 170.712908 
L 68.336999 170.391796 
L 72.270709 169.890658 
L 75.712705 169.231236 
L 78.72855 168.430809 
L 81.449366 167.480388 
L 83.940715 166.37526 
L 86.26816 165.100846 
L 88.497263 163.628376 
L 90.693584 161.910827 
L 91.808135 160.932201 
L 91.808135 160.932201 
" clip-path="url(#p60e2d40baf)" style="fill: none; stroke: #2e54a1; stroke-width: 1.5; stroke-linecap: square"/>
   </g>
   <g id="line2d_42">
    <path d="M 59.06 170.824581 
L 63.84987 170.714267 
L 68.327358 170.39275 
L 72.249498 169.894019 
L 75.685709 169.237375 
L 78.70541 168.437889 
L 81.412728 167.494853 
L 83.911791 166.389548 
L 86.237308 165.119427 
L 88.493406 163.631152 
L 90.680086 161.922231 
L 92.901475 159.900532 
L 93.734496 159.066668 
L 93.734496 159.066668 
" clip-path="url(#p60e2d40baf)" style="fill: none; stroke: #2e54a1; stroke-width: 1.5; stroke-linecap: square"/>
   </g>
   <g id="line2d_43">
    <path d="M 59.06 170.824581 
L 63.859512 170.713815 
L 68.329286 170.392559 
L 72.249498 169.894019 
L 75.693423 169.235623 
L 78.697697 168.440246 
L 81.408872 167.496372 
L 83.900221 166.395253 
L 86.245021 165.114786 
L 88.479908 163.640864 
L 90.678158 161.923859 
L 92.913045 159.889234 
L 95.18457 157.517183 
L 95.660857 156.981488 
L 95.660857 156.981488 
" clip-path="url(#p60e2d40baf)" style="fill: none; stroke: #2e54a1; stroke-width: 1.5; stroke-linecap: square"/>
   </g>
   <g id="line2d_44">
    <path d="M 59.06 170.824581 
L 63.880723 170.712817 
L 68.354354 170.390077 
L 72.288064 169.887903 
L 75.720419 169.229479 
L 78.72855 168.430809 
L 81.428155 167.488768 
L 83.934931 166.378121 
L 86.287443 165.089208 
L 88.524259 163.608916 
L 90.722509 161.886355 
L 92.959324 159.84396 
L 95.234705 157.46141 
L 97.587218 154.684382 
L 97.587218 154.684382 
" clip-path="url(#p60e2d40baf)" style="fill: none; stroke: #2e54a1; stroke-width: 1.5; stroke-linecap: square"/>
   </g>
   <g id="line2d_45">
    <path d="M 59.06 45.870371 
L 59.06 45.870371 
" clip-path="url(#p60e2d40baf)" style="fill: none; stroke: #249087; stroke-width: 1.5; stroke-linecap: square"/>
   </g>
   <g id="line2d_46">
    <path d="M 59.06 45.870371 
L 60.986361 45.880008 
L 60.986361 45.880008 
" clip-path="url(#p60e2d40baf)" style="fill: none; stroke: #249087; stroke-width: 1.5; stroke-linecap: square"/>
   </g>
   <g id="line2d_47">
    <path d="M 59.06 45.870371 
L 62.912722 45.920403 
L 62.912722 45.920403 
" clip-path="url(#p60e2d40baf)" style="fill: none; stroke: #249087; stroke-width: 1.5; stroke-linecap: square"/>
   </g>
   <g id="line2d_48">
    <path d="M 59.06 45.870371 
L 63.363941 45.936571 
L 64.839083 46.010015 
L 64.839083 46.010015 
" clip-path="url(#p60e2d40baf)" style="fill: none; stroke: #249087; stroke-width: 1.5; stroke-linecap: square"/>
   </g>
   <g id="line2d_49">
    <path d="M 59.06 45.870371 
L 63.363941 45.936571 
L 66.765444 46.153467 
L 66.765444 46.153467 
" clip-path="url(#p60e2d40baf)" style="fill: none; stroke: #249087; stroke-width: 1.5; stroke-linecap: square"/>
   </g>
   <g id="line2d_50">
    <path d="M 59.06 45.870371 
L 63.369726 45.936797 
L 67.284153 46.201235 
L 68.691805 46.350697 
L 68.691805 46.350697 
" clip-path="url(#p60e2d40baf)" style="fill: none; stroke: #249087; stroke-width: 1.5; stroke-linecap: square"/>
   </g>
   <g id="line2d_51">
    <path d="M 59.06 45.870371 
L 63.363941 45.936571 
L 67.274512 46.200311 
L 70.618165 46.604063 
L 70.618165 46.604063 
" clip-path="url(#p60e2d40baf)" style="fill: none; stroke: #249087; stroke-width: 1.5; stroke-linecap: square"/>
   </g>
   <g id="line2d_52">
    <path d="M 59.06 45.870371 
L 63.36587 45.936647 
L 67.280297 46.200865 
L 71.127234 46.680928 
L 72.544526 46.918073 
L 72.544526 46.918073 
" clip-path="url(#p60e2d40baf)" style="fill: none; stroke: #249087; stroke-width: 1.5; stroke-linecap: square"/>
   </g>
   <g id="line2d_53">
    <path d="M 59.06 45.870371 
L 63.379368 45.937175 
L 67.297651 46.20253 
L 71.138803 46.682725 
L 74.470887 47.298579 
L 74.470887 47.298579 
" clip-path="url(#p60e2d40baf)" style="fill: none; stroke: #249087; stroke-width: 1.5; stroke-linecap: square"/>
   </g>
   <g id="line2d_54">
    <path d="M 59.06 45.870371 
L 63.381296 45.937251 
L 67.286082 46.201419 
L 71.138803 46.682725 
L 74.696497 47.347794 
L 76.397248 47.7522 
L 76.397248 47.7522 
" clip-path="url(#p60e2d40baf)" style="fill: none; stroke: #249087; stroke-width: 1.5; stroke-linecap: square"/>
   </g>
   <g id="line2d_55">
    <path d="M 59.06 45.870371 
L 63.379368 45.937175 
L 67.293795 46.202159 
L 71.13109 46.681527 
L 74.698425 47.348219 
L 77.9958 48.18902 
L 78.323609 48.285738 
L 78.323609 48.285738 
" clip-path="url(#p60e2d40baf)" style="fill: none; stroke: #249087; stroke-width: 1.5; stroke-linecap: square"/>
   </g>
   <g id="line2d_56">
    <path d="M 59.06 45.870371 
L 63.387081 45.937479 
L 67.289938 46.201789 
L 71.129162 46.681228 
L 74.69264 47.346944 
L 77.980374 48.18453 
L 80.24997 48.905454 
L 80.24997 48.905454 
" clip-path="url(#p60e2d40baf)" style="fill: none; stroke: #249087; stroke-width: 1.5; stroke-linecap: square"/>
   </g>
   <g id="line2d_57">
    <path d="M 59.06 45.870371 
L 63.387081 45.937479 
L 67.297651 46.20253 
L 71.138803 46.682725 
L 74.702282 47.349069 
L 77.988087 48.186775 
L 81.111915 49.212008 
L 82.176331 49.616198 
L 82.176331 49.616198 
" clip-path="url(#p60e2d40baf)" style="fill: none; stroke: #249087; stroke-width: 1.5; stroke-linecap: square"/>
   </g>
   <g id="line2d_58">
    <path d="M 59.06 45.870371 
L 63.396722 45.937859 
L 67.307293 46.203456 
L 71.14266 46.683325 
L 74.702282 47.349069 
L 77.986158 48.186213 
L 81.094561 49.205653 
L 84.102692 50.420477 
L 84.102692 50.420477 
" clip-path="url(#p60e2d40baf)" style="fill: none; stroke: #249087; stroke-width: 1.5; stroke-linecap: square"/>
   </g>
   <g id="line2d_59">
    <path d="M 59.06 45.870371 
L 63.379368 45.937175 
L 67.293795 46.202159 
L 71.127234 46.680928 
L 74.690712 47.346519 
L 77.98423 48.185652 
L 81.115772 49.213421 
L 84.193321 50.460623 
L 86.029053 51.317656 
L 86.029053 51.317656 
" clip-path="url(#p60e2d40baf)" style="fill: none; stroke: #249087; stroke-width: 1.5; stroke-linecap: square"/>
   </g>
   <g id="line2d_60">
    <path d="M 59.06 45.870371 
L 63.398651 45.937935 
L 67.303436 46.203085 
L 71.150373 46.684524 
L 74.708067 47.350345 
L 78.005441 48.19183 
L 81.12927 49.21837 
L 84.19525 50.46148 
L 87.348002 51.983476 
L 87.955414 52.303484 
L 87.955414 52.303484 
" clip-path="url(#p60e2d40baf)" style="fill: none; stroke: #249087; stroke-width: 1.5; stroke-linecap: square"/>
   </g>
   <g id="line2d_61">
    <path d="M 59.06 45.870371 
L 63.379368 45.937175 
L 67.297651 46.20253 
L 71.15423 46.685125 
L 74.702282 47.349069 
L 78.003513 48.191268 
L 81.119628 49.214834 
L 84.174038 50.452064 
L 87.321006 51.969445 
L 89.881774 53.370106 
L 89.881774 53.370106 
" clip-path="url(#p60e2d40baf)" style="fill: none; stroke: #249087; stroke-width: 1.5; stroke-linecap: square"/>
   </g>
   <g id="line2d_62">
    <path d="M 59.06 45.870371 
L 63.387081 45.937479 
L 67.28801 46.201604 
L 71.123377 46.68033 
L 74.696497 47.347794 
L 77.974589 48.182848 
L 81.088776 49.203537 
L 84.137401 50.435828 
L 87.284369 51.950429 
L 90.726365 53.860516 
L 91.808135 54.506572 
L 91.808135 54.506572 
" clip-path="url(#p60e2d40baf)" style="fill: none; stroke: #249087; stroke-width: 1.5; stroke-linecap: square"/>
   </g>
   <g id="line2d_63">
    <path d="M 59.06 45.870371 
L 63.398651 45.937935 
L 67.320791 46.204756 
L 71.173513 46.688129 
L 74.713852 47.351621 
L 78.011226 48.193516 
L 81.135055 49.220492 
L 84.189465 50.458911 
L 87.348002 51.983476 
L 90.818923 53.915032 
L 93.734496 55.699694 
L 93.734496 55.699694 
" clip-path="url(#p60e2d40baf)" style="fill: none; stroke: #249087; stroke-width: 1.5; stroke-linecap: square"/>
   </g>
   <g id="line2d_64">
    <path d="M 59.06 45.870371 
L 63.383224 45.937327 
L 67.303436 46.203085 
L 71.150373 46.684524 
L 74.70421 47.349494 
L 78.001585 48.190706 
L 81.115772 49.213421 
L 84.193321 50.460623 
L 87.344146 51.98147 
L 90.78807 53.896844 
L 95.001382 56.508297 
L 95.660857 56.935031 
L 95.660857 56.935031 
" clip-path="url(#p60e2d40baf)" style="fill: none; stroke: #249087; stroke-width: 1.5; stroke-linecap: square"/>
   </g>
   <g id="line2d_65">
    <path d="M 59.06 45.870371 
L 63.417934 45.938701 
L 67.313078 46.204013 
L 71.169656 46.687528 
L 74.717708 47.352473 
L 77.9958 48.18902 
L 81.119628 49.214834 
L 84.166325 50.448643 
L 87.32872 51.973452 
L 90.79964 53.903663 
L 95.041876 56.534396 
L 97.587218 58.197811 
L 97.587218 58.197811 
" clip-path="url(#p60e2d40baf)" style="fill: none; stroke: #249087; stroke-width: 1.5; stroke-linecap: square"/>
   </g>
   <g id="line2d_66">
    <path d="M 59.06 45.711648 
L 59.06 45.711648 
" clip-path="url(#p60e2d40baf)" style="fill: none; stroke: #249087; stroke-width: 1.5; stroke-linecap: square"/>
   </g>
   <g id="line2d_67">
    <path d="M 59.06 45.711648 
L 60.986361 45.716894 
L 60.986361 45.716894 
" clip-path="url(#p60e2d40baf)" style="fill: none; stroke: #249087; stroke-width: 1.5; stroke-linecap: square"/>
   </g>
   <g id="line2d_68">
    <path d="M 59.06 45.711648 
L 62.912722 45.721687 
L 62.912722 45.721687 
" clip-path="url(#p60e2d40baf)" style="fill: none; stroke: #249087; stroke-width: 1.5; stroke-linecap: square"/>
   </g>
   <g id="line2d_69">
    <path d="M 59.06 45.711648 
L 64.839083 45.709181 
L 64.839083 45.709181 
" clip-path="url(#p60e2d40baf)" style="fill: none; stroke: #249087; stroke-width: 1.5; stroke-linecap: square"/>
   </g>
   <g id="line2d_70">
    <path d="M 59.06 45.711648 
L 66.649746 45.679835 
L 66.765444 45.677464 
L 66.765444 45.677464 
" clip-path="url(#p60e2d40baf)" style="fill: none; stroke: #249087; stroke-width: 1.5; stroke-linecap: square"/>
   </g>
   <g id="line2d_71">
    <path d="M 59.06 45.711648 
L 66.657459 45.679679 
L 68.691805 45.630418 
L 68.691805 45.630418 
" clip-path="url(#p60e2d40baf)" style="fill: none; stroke: #249087; stroke-width: 1.5; stroke-linecap: square"/>
   </g>
   <g id="line2d_72">
    <path d="M 59.06 45.711648 
L 66.661316 45.679601 
L 70.618165 45.570613 
L 70.618165 45.570613 
" clip-path="url(#p60e2d40baf)" style="fill: none; stroke: #249087; stroke-width: 1.5; stroke-linecap: square"/>
   </g>
   <g id="line2d_73">
    <path d="M 59.06 45.711648 
L 66.672886 45.679365 
L 72.544526 45.499528 
L 72.544526 45.499528 
" clip-path="url(#p60e2d40baf)" style="fill: none; stroke: #249087; stroke-width: 1.5; stroke-linecap: square"/>
   </g>
   <g id="line2d_74">
    <path d="M 59.06 45.711648 
L 66.680599 45.679208 
L 74.470887 45.418224 
L 74.470887 45.418224 
" clip-path="url(#p60e2d40baf)" style="fill: none; stroke: #249087; stroke-width: 1.5; stroke-linecap: square"/>
   </g>
   <g id="line2d_75">
    <path d="M 59.06 45.711648 
L 66.678671 45.679247 
L 74.835334 45.401771 
L 76.397248 45.327656 
L 76.397248 45.327656 
" clip-path="url(#p60e2d40baf)" style="fill: none; stroke: #249087; stroke-width: 1.5; stroke-linecap: square"/>
   </g>
   <g id="line2d_76">
    <path d="M 59.06 45.711648 
L 66.696025 45.678893 
L 74.852688 45.40098 
L 78.323609 45.228814 
L 78.323609 45.228814 
" clip-path="url(#p60e2d40baf)" style="fill: none; stroke: #249087; stroke-width: 1.5; stroke-linecap: square"/>
   </g>
   <g id="line2d_77">
    <path d="M 59.06 45.711648 
L 66.696025 45.678893 
L 74.86233 45.40054 
L 80.24997 45.122805 
L 80.24997 45.122805 
" clip-path="url(#p60e2d40baf)" style="fill: none; stroke: #249087; stroke-width: 1.5; stroke-linecap: square"/>
   </g>
   <g id="line2d_78">
    <path d="M 59.06 45.711648 
L 66.696025 45.678893 
L 74.864258 45.400452 
L 82.176331 45.010916 
L 82.176331 45.010916 
" clip-path="url(#p60e2d40baf)" style="fill: none; stroke: #249087; stroke-width: 1.5; stroke-linecap: square"/>
   </g>
   <g id="line2d_79">
    <path d="M 59.06 45.711648 
L 66.705667 45.678696 
L 74.877756 45.399835 
L 84.102692 44.894674 
L 84.102692 44.894674 
" clip-path="url(#p60e2d40baf)" style="fill: none; stroke: #249087; stroke-width: 1.5; stroke-linecap: square"/>
   </g>
   <g id="line2d_80">
    <path d="M 59.06 45.711648 
L 66.726878 45.67826 
L 74.906681 45.398512 
L 85.894072 44.78429 
L 86.029053 44.775933 
L 86.029053 44.775933 
" clip-path="url(#p60e2d40baf)" style="fill: none; stroke: #249087; stroke-width: 1.5; stroke-linecap: square"/>
   </g>
   <g id="line2d_81">
    <path d="M 59.06 45.711648 
L 66.72495 45.6783 
L 74.910537 45.398336 
L 85.901786 44.783812 
L 87.955414 44.656977 
L 87.955414 44.656977 
" clip-path="url(#p60e2d40baf)" style="fill: none; stroke: #249087; stroke-width: 1.5; stroke-linecap: square"/>
   </g>
   <g id="line2d_82">
    <path d="M 59.06 45.711648 
L 66.742304 45.677942 
L 74.91825 45.397982 
L 85.901786 44.783812 
L 89.881774 44.540678 
L 89.881774 44.540678 
" clip-path="url(#p60e2d40baf)" style="fill: none; stroke: #249087; stroke-width: 1.5; stroke-linecap: square"/>
   </g>
   <g id="line2d_83">
    <path d="M 59.06 45.711648 
L 66.730734 45.678181 
L 74.893183 45.39913 
L 85.874789 44.785484 
L 91.808135 44.430724 
L 91.808135 44.430724 
" clip-path="url(#p60e2d40baf)" style="fill: none; stroke: #249087; stroke-width: 1.5; stroke-linecap: square"/>
   </g>
   <g id="line2d_84">
    <path d="M 59.06 45.711648 
L 66.730734 45.678181 
L 74.922107 45.397806 
L 85.924925 44.78238 
L 93.734496 44.331949 
L 93.734496 44.331949 
" clip-path="url(#p60e2d40baf)" style="fill: none; stroke: #249087; stroke-width: 1.5; stroke-linecap: square"/>
   </g>
   <g id="line2d_85">
    <path d="M 59.06 45.711648 
L 66.753874 45.677703 
L 74.924035 45.397717 
L 85.915284 44.782977 
L 95.660857 44.25085 
L 95.660857 44.25085 
" clip-path="url(#p60e2d40baf)" style="fill: none; stroke: #249087; stroke-width: 1.5; stroke-linecap: square"/>
   </g>
   <g id="line2d_86">
    <path d="M 59.06 45.711648 
L 66.773157 45.677303 
L 74.949103 45.396568 
L 85.978917 44.779037 
L 96.9316 44.211297 
L 97.587218 44.196344 
L 97.587218 44.196344 
" clip-path="url(#p60e2d40baf)" style="fill: none; stroke: #249087; stroke-width: 1.5; stroke-linecap: square"/>
   </g>
   <g id="line2d_87">
    <path d="M 59.06 34.403443 
L 59.06 34.403443 
" clip-path="url(#p60e2d40baf)" style="fill: none; stroke: #ff0000; stroke-width: 1.5; stroke-linecap: square"/>
   </g>
   <g id="line2d_88">
    <path d="M 59.06 34.403443 
L 60.986361 34.406873 
L 60.986361 34.406873 
" clip-path="url(#p60e2d40baf)" style="fill: none; stroke: #ff0000; stroke-width: 1.5; stroke-linecap: square"/>
   </g>
   <g id="line2d_89">
    <path d="M 59.06 34.403443 
L 62.912722 34.417178 
L 62.912722 34.417178 
" clip-path="url(#p60e2d40baf)" style="fill: none; stroke: #ff0000; stroke-width: 1.5; stroke-linecap: square"/>
   </g>
   <g id="line2d_90">
    <path d="M 59.06 34.403443 
L 64.839083 34.434403 
L 64.839083 34.434403 
" clip-path="url(#p60e2d40baf)" style="fill: none; stroke: #ff0000; stroke-width: 1.5; stroke-linecap: square"/>
   </g>
   <g id="line2d_91">
    <path d="M 59.06 34.403443 
L 66.765444 34.458624 
L 66.765444 34.458624 
" clip-path="url(#p60e2d40baf)" style="fill: none; stroke: #ff0000; stroke-width: 1.5; stroke-linecap: square"/>
   </g>
   <g id="line2d_92">
    <path d="M 59.06 34.403443 
L 68.691805 34.48995 
L 68.691805 34.48995 
" clip-path="url(#p60e2d40baf)" style="fill: none; stroke: #ff0000; stroke-width: 1.5; stroke-linecap: square"/>
   </g>
   <g id="line2d_93">
    <path d="M 59.06 34.403443 
L 69.958691 34.514493 
L 70.618165 34.528525 
L 70.618165 34.528525 
" clip-path="url(#p60e2d40baf)" style="fill: none; stroke: #ff0000; stroke-width: 1.5; stroke-linecap: square"/>
   </g>
   <g id="line2d_94">
    <path d="M 59.06 34.403443 
L 69.966404 34.514652 
L 72.544526 34.574531 
L 72.544526 34.574531 
" clip-path="url(#p60e2d40baf)" style="fill: none; stroke: #ff0000; stroke-width: 1.5; stroke-linecap: square"/>
   </g>
   <g id="line2d_95">
    <path d="M 59.06 34.403443 
L 69.966404 34.514652 
L 74.470887 34.628191 
L 74.470887 34.628191 
" clip-path="url(#p60e2d40baf)" style="fill: none; stroke: #ff0000; stroke-width: 1.5; stroke-linecap: square"/>
   </g>
   <g id="line2d_96">
    <path d="M 59.06 34.403443 
L 69.958691 34.514493 
L 76.397248 34.689777 
L 76.397248 34.689777 
" clip-path="url(#p60e2d40baf)" style="fill: none; stroke: #ff0000; stroke-width: 1.5; stroke-linecap: square"/>
   </g>
   <g id="line2d_97">
    <path d="M 59.06 34.403443 
L 69.954834 34.514413 
L 78.323609 34.759614 
L 78.323609 34.759614 
" clip-path="url(#p60e2d40baf)" style="fill: none; stroke: #ff0000; stroke-width: 1.5; stroke-linecap: square"/>
   </g>
   <g id="line2d_98">
    <path d="M 59.06 34.403443 
L 69.962547 34.514573 
L 80.24997 34.83809 
L 80.24997 34.83809 
" clip-path="url(#p60e2d40baf)" style="fill: none; stroke: #ff0000; stroke-width: 1.5; stroke-linecap: square"/>
   </g>
   <g id="line2d_99">
    <path d="M 59.06 34.403443 
L 69.958691 34.514493 
L 80.232615 34.837343 
L 82.176331 34.925665 
L 82.176331 34.925665 
" clip-path="url(#p60e2d40baf)" style="fill: none; stroke: #ff0000; stroke-width: 1.5; stroke-linecap: square"/>
   </g>
   <g id="line2d_100">
    <path d="M 59.06 34.403443 
L 69.964475 34.514612 
L 80.242257 34.837758 
L 84.102692 35.022883 
L 84.102692 35.022883 
" clip-path="url(#p60e2d40baf)" style="fill: none; stroke: #ff0000; stroke-width: 1.5; stroke-linecap: square"/>
   </g>
   <g id="line2d_101">
    <path d="M 59.06 34.403443 
L 69.966404 34.514652 
L 80.251898 34.838173 
L 86.029053 35.130385 
L 86.029053 35.130385 
" clip-path="url(#p60e2d40baf)" style="fill: none; stroke: #ff0000; stroke-width: 1.5; stroke-linecap: square"/>
   </g>
   <g id="line2d_102">
    <path d="M 59.06 34.403443 
L 69.964475 34.514612 
L 80.232615 34.837343 
L 87.955414 35.248927 
L 87.955414 35.248927 
" clip-path="url(#p60e2d40baf)" style="fill: none; stroke: #ff0000; stroke-width: 1.5; stroke-linecap: square"/>
   </g>
   <g id="line2d_103">
    <path d="M 59.06 34.403443 
L 69.950977 34.514334 
L 80.224902 34.837012 
L 89.295575 35.338371 
L 89.881774 35.379392 
L 89.881774 35.379392 
" clip-path="url(#p60e2d40baf)" style="fill: none; stroke: #ff0000; stroke-width: 1.5; stroke-linecap: square"/>
   </g>
   <g id="line2d_104">
    <path d="M 59.06 34.403443 
L 69.976045 34.514851 
L 80.269253 34.838921 
L 89.316786 35.339835 
L 91.808135 35.5228 
L 91.808135 35.5228 
" clip-path="url(#p60e2d40baf)" style="fill: none; stroke: #ff0000; stroke-width: 1.5; stroke-linecap: square"/>
   </g>
   <g id="line2d_105">
    <path d="M 59.06 34.403443 
L 69.958691 34.514493 
L 80.232615 34.837343 
L 89.291718 35.338105 
L 93.734496 35.680301 
L 93.734496 35.680301 
" clip-path="url(#p60e2d40baf)" style="fill: none; stroke: #ff0000; stroke-width: 1.5; stroke-linecap: square"/>
   </g>
   <g id="line2d_106">
    <path d="M 59.06 34.403443 
L 69.977973 34.514891 
L 80.273109 34.839087 
L 89.322571 35.340234 
L 95.660857 35.853131 
L 95.660857 35.853131 
" clip-path="url(#p60e2d40baf)" style="fill: none; stroke: #ff0000; stroke-width: 1.5; stroke-linecap: square"/>
   </g>
   <g id="line2d_107">
    <path d="M 59.06 34.403443 
L 69.974117 34.514811 
L 80.232615 34.837343 
L 89.295575 35.338371 
L 96.9316 35.976122 
L 97.587218 36.042493 
L 97.587218 36.042493 
" clip-path="url(#p60e2d40baf)" style="fill: none; stroke: #ff0000; stroke-width: 1.5; stroke-linecap: square"/>
   </g>
   <g id="patch_3">
    <path d="M 59.06 255.92 
L 59.06 14.76 
" style="fill: none; stroke: #000000; stroke-width: 0.8; stroke-linejoin: miter; stroke-linecap: square"/>
   </g>
   <g id="patch_4">
    <path d="M 97.2 255.92 
L 97.2 14.76 
" style="fill: none; stroke: #000000; stroke-width: 0.8; stroke-linejoin: miter; stroke-linecap: square"/>
   </g>
   <g id="patch_5">
    <path d="M 59.06 255.92 
L 97.2 255.92 
" style="fill: none; stroke: #000000; stroke-width: 0.8; stroke-linejoin: miter; stroke-linecap: square"/>
   </g>
   <g id="patch_6">
    <path d="M 59.06 14.76 
L 97.2 14.76 
" style="fill: none; stroke: #000000; stroke-width: 0.8; stroke-linejoin: miter; stroke-linecap: square"/>
   </g>
   <g id="text_5">
    <!-- X -->
    <g transform="translate(84.200625 272.784539) scale(0.18 -0.18)">
     <defs>
      <path id="TimesNewRomanPSMT-58" d="M 2613 2347 
L 3522 991 
Q 3900 428 4083 279 
Q 4266 131 4547 116 
L 4547 0 
L 2728 0 
L 2728 116 
Q 2909 119 2997 153 
Q 3063 181 3105 239 
Q 3147 297 3147 356 
Q 3147 428 3119 500 
Q 3097 553 2947 775 
L 2228 1863 
L 1341 725 
Q 1200 544 1172 483 
Q 1144 422 1144 356 
Q 1144 256 1228 190 
Q 1313 125 1550 116 
L 1550 0 
L 47 0 
L 47 116 
Q 206 131 322 181 
Q 516 263 691 400 
Q 866 538 1091 822 
L 2091 2084 
L 1256 3306 
Q 916 3803 678 3958 
Q 441 4113 131 4122 
L 131 4238 
L 2091 4238 
L 2091 4122 
Q 1841 4113 1748 4041 
Q 1656 3969 1656 3881 
Q 1656 3766 1806 3544 
L 2456 2572 
L 3209 3525 
Q 3341 3694 3370 3756 
Q 3400 3819 3400 3884 
Q 3400 3950 3363 4000 
Q 3316 4066 3244 4092 
Q 3172 4119 2947 4122 
L 2947 4238 
L 4450 4238 
L 4450 4122 
Q 4272 4113 4159 4066 
Q 3991 3994 3850 3872 
Q 3709 3750 3453 3422 
L 2613 2347 
z
" transform="scale(0.015625)"/>
     </defs>
     <use xlink:href="#TimesNewRomanPSMT-58"/>
    </g>
   </g>
  </g>
 </g>
 <defs>
  <clipPath id="p60e2d40baf">
   <rect x="59.06" y="14.76" width="38.14" height="241.16"/>
  </clipPath>
 </defs>
</svg>
