<?xml version="1.0" encoding="utf-8" standalone="no"?>
<!DOCTYPE svg PUBLIC "-//W3C//DTD SVG 1.1//EN"
  "http://www.w3.org/Graphics/SVG/1.1/DTD/svg11.dtd">
<svg xmlns:xlink="http://www.w3.org/1999/xlink" width="108pt" height="288pt" viewBox="0 0 108 288" xmlns="http://www.w3.org/2000/svg" version="1.1">
 <metadata>
  <rdf:RDF xmlns:dc="http://purl.org/dc/elements/1.1/" xmlns:cc="http://creativecommons.org/ns#" xmlns:rdf="http://www.w3.org/1999/02/22-rdf-syntax-ns#">
   <cc:Work>
    <dc:type rdf:resource="http://purl.org/dc/dcmitype/StillImage"/>
    <dc:date>2024-12-16T17:12:04.878585</dc:date>
    <dc:format>image/svg+xml</dc:format>
    <dc:creator>
     <cc:Agent>
      <dc:title>Matplotlib v3.9.2, https://matplotlib.org/</dc:title>
     </cc:Agent>
    </dc:creator>
   </cc:Work>
  </rdf:RDF>
 </metadata>
 <defs>
  <style type="text/css">*{stroke-linejoin: round; stroke-linecap: butt}</style>
 </defs>
 <g id="figure_1">
  <g id="patch_1">
   <path d="M 0 288 
L 108 288 
L 108 0 
L 0 0 
z
" style="fill: #ffffff"/>
  </g>
  <g id="axes_1">
   <g id="patch_2">
    <path d="M 59.06 255.92 
L 97.2 255.92 
L 97.2 14.76 
L 59.06 14.76 
z
" style="fill: #ffffff"/>
   </g>
   <g id="matplotlib.axis_1">
    <g id="text_1">
     <!-- Γ -->
     <g transform="translate(59.06 272.41875) scale(0.18 -0.18)">
      <defs>
       <path id="TimesNewRomanPSMT-393" d="M 3516 4238 
L 3531 3247 
L 3409 3247 
Q 3397 3547 3281 3728 
Q 3166 3909 2998 3957 
Q 2831 4006 2516 4006 
L 1328 4006 
L 1328 772 
Q 1328 353 1436 240 
Q 1544 128 1934 116 
L 1934 0 
L 116 0 
L 116 116 
Q 509 128 618 240 
Q 728 353 728 772 
L 728 3466 
Q 728 3884 618 3996 
Q 509 4109 116 4122 
L 116 4238 
L 3516 4238 
z
" transform="scale(0.015625)"/>
      </defs>
      <use xlink:href="#TimesNewRomanPSMT-393"/>
     </g>
    </g>
   </g>
   <g id="matplotlib.axis_2">
    <g id="ytick_1">
     <g id="line2d_1">
      <defs>
       <path id="m244553a68c" d="M 0 0 
L -3.5 0 
" style="stroke: #000000; stroke-width: 0.8"/>
      </defs>
      <g>
       <use xlink:href="#m244553a68c" x="59.06" y="255.92" style="stroke: #000000; stroke-width: 0.8"/>
      </g>
     </g>
     <g id="text_2">
      <!-- 0 -->
      <g transform="translate(47.06 259.391875) scale(0.1 -0.1)">
       <defs>
        <path id="TimesNewRomanPSMT-30" d="M 231 2094 
Q 231 2819 450 3342 
Q 669 3866 1031 4122 
Q 1313 4325 1613 4325 
Q 2100 4325 2488 3828 
Q 2972 3213 2972 2159 
Q 2972 1422 2759 906 
Q 2547 391 2217 158 
Q 1888 -75 1581 -75 
Q 975 -75 572 641 
Q 231 1244 231 2094 
z
M 844 2016 
Q 844 1141 1059 588 
Q 1238 122 1591 122 
Q 1759 122 1940 273 
Q 2122 425 2216 781 
Q 2359 1319 2359 2297 
Q 2359 3022 2209 3506 
Q 2097 3866 1919 4016 
Q 1791 4119 1609 4119 
Q 1397 4119 1231 3928 
Q 1006 3669 925 3112 
Q 844 2556 844 2016 
z
" transform="scale(0.015625)"/>
       </defs>
       <use xlink:href="#TimesNewRomanPSMT-30"/>
      </g>
     </g>
    </g>
    <g id="ytick_2">
     <g id="line2d_2">
      <g>
       <use xlink:href="#m244553a68c" x="59.06" y="14.76" style="stroke: #000000; stroke-width: 0.8"/>
      </g>
     </g>
     <g id="text_3">
      <!-- 6500 -->
      <g transform="translate(32.06 18.231875) scale(0.1 -0.1)">
       <defs>
        <path id="TimesNewRomanPSMT-36" d="M 2869 4325 
L 2869 4209 
Q 2456 4169 2195 4045 
Q 1934 3922 1679 3669 
Q 1425 3416 1258 3105 
Q 1091 2794 978 2366 
Q 1428 2675 1881 2675 
Q 2316 2675 2634 2325 
Q 2953 1975 2953 1425 
Q 2953 894 2631 456 
Q 2244 -75 1606 -75 
Q 1172 -75 869 213 
Q 275 772 275 1663 
Q 275 2231 503 2743 
Q 731 3256 1154 3653 
Q 1578 4050 1965 4187 
Q 2353 4325 2688 4325 
L 2869 4325 
z
M 925 2138 
Q 869 1716 869 1456 
Q 869 1156 980 804 
Q 1091 453 1309 247 
Q 1469 100 1697 100 
Q 1969 100 2183 356 
Q 2397 613 2397 1088 
Q 2397 1622 2184 2012 
Q 1972 2403 1581 2403 
Q 1463 2403 1327 2353 
Q 1191 2303 925 2138 
z
" transform="scale(0.015625)"/>
        <path id="TimesNewRomanPSMT-35" d="M 2778 4238 
L 2534 3706 
L 1259 3706 
L 981 3138 
Q 1809 3016 2294 2522 
Q 2709 2097 2709 1522 
Q 2709 1188 2573 903 
Q 2438 619 2231 419 
Q 2025 219 1772 97 
Q 1413 -75 1034 -75 
Q 653 -75 479 54 
Q 306 184 306 341 
Q 306 428 378 495 
Q 450 563 559 563 
Q 641 563 702 538 
Q 763 513 909 409 
Q 1144 247 1384 247 
Q 1750 247 2026 523 
Q 2303 800 2303 1197 
Q 2303 1581 2056 1914 
Q 1809 2247 1375 2428 
Q 1034 2569 447 2591 
L 1259 4238 
L 2778 4238 
z
" transform="scale(0.015625)"/>
       </defs>
       <use xlink:href="#TimesNewRomanPSMT-36"/>
       <use xlink:href="#TimesNewRomanPSMT-35" x="50"/>
       <use xlink:href="#TimesNewRomanPSMT-30" x="100"/>
       <use xlink:href="#TimesNewRomanPSMT-30" x="150"/>
      </g>
     </g>
    </g>
    <g id="text_4">
     <!--   -->
     <g transform="translate(24.209688 137.59) rotate(-90) scale(0.18 -0.18)">
      <defs>
       <path id="TimesNewRomanPSMT-20" transform="scale(0.015625)"/>
      </defs>
      <use xlink:href="#TimesNewRomanPSMT-20"/>
     </g>
    </g>
   </g>
   <g id="line2d_3">
    <path d="M 59.06 255.919946 
L 59.06 255.919946 
" clip-path="url(#p015bae5960)" style="fill: none; stroke: #2e54a1; stroke-width: 1.5; stroke-linecap: square"/>
   </g>
   <g id="line2d_4">
    <path d="M 59.06 255.919946 
L 60.986361 251.764908 
L 60.986361 251.764908 
" clip-path="url(#p015bae5960)" style="fill: none; stroke: #2e54a1; stroke-width: 1.5; stroke-linecap: square"/>
   </g>
   <g id="line2d_5">
    <path d="M 59.06 255.919946 
L 62.912722 247.625005 
L 62.912722 247.625005 
" clip-path="url(#p015bae5960)" style="fill: none; stroke: #2e54a1; stroke-width: 1.5; stroke-linecap: square"/>
   </g>
   <g id="line2d_6">
    <path d="M 59.06 255.919946 
L 64.839083 243.516375 
L 64.839083 243.516375 
" clip-path="url(#p015bae5960)" style="fill: none; stroke: #2e54a1; stroke-width: 1.5; stroke-linecap: square"/>
   </g>
   <g id="line2d_7">
    <path d="M 59.06 255.919946 
L 66.765444 239.456945 
L 66.765444 239.456945 
" clip-path="url(#p015bae5960)" style="fill: none; stroke: #2e54a1; stroke-width: 1.5; stroke-linecap: square"/>
   </g>
   <g id="line2d_8">
    <path d="M 59.06 255.919946 
L 67.852999 237.194566 
L 68.691805 235.467515 
L 68.691805 235.467515 
" clip-path="url(#p015bae5960)" style="fill: none; stroke: #2e54a1; stroke-width: 1.5; stroke-linecap: square"/>
   </g>
   <g id="line2d_9">
    <path d="M 59.06 255.919946 
L 67.852999 237.194566 
L 70.618165 231.572873 
L 70.618165 231.572873 
" clip-path="url(#p015bae5960)" style="fill: none; stroke: #2e54a1; stroke-width: 1.5; stroke-linecap: square"/>
   </g>
   <g id="line2d_10">
    <path d="M 59.06 255.919946 
L 67.847214 237.206534 
L 72.126088 228.60948 
L 72.544526 227.802881 
L 72.544526 227.802881 
" clip-path="url(#p015bae5960)" style="fill: none; stroke: #2e54a1; stroke-width: 1.5; stroke-linecap: square"/>
   </g>
   <g id="line2d_11">
    <path d="M 59.06 255.919946 
L 67.852999 237.194566 
L 72.126088 228.60948 
L 74.470887 224.193243 
L 74.470887 224.193243 
" clip-path="url(#p015bae5960)" style="fill: none; stroke: #2e54a1; stroke-width: 1.5; stroke-linecap: square"/>
   </g>
   <g id="line2d_12">
    <path d="M 59.06 255.919946 
L 67.841429 237.218503 
L 72.110661 228.639355 
L 75.321263 222.661363 
L 76.397248 220.785359 
L 76.397248 220.785359 
" clip-path="url(#p015bae5960)" style="fill: none; stroke: #2e54a1; stroke-width: 1.5; stroke-linecap: square"/>
   </g>
   <g id="line2d_13">
    <path d="M 59.06 255.919946 
L 67.852999 237.194566 
L 72.133801 228.594545 
L 75.354044 222.603149 
L 77.976517 218.173624 
L 78.323609 217.624344 
L 78.323609 217.624344 
" clip-path="url(#p015bae5960)" style="fill: none; stroke: #2e54a1; stroke-width: 1.5; stroke-linecap: square"/>
   </g>
   <g id="line2d_14">
    <path d="M 59.06 255.919946 
L 67.841429 237.218503 
L 72.126088 228.60948 
L 75.350187 222.609994 
L 77.980374 218.16747 
L 80.24997 214.754292 
L 80.24997 214.754292 
" clip-path="url(#p015bae5960)" style="fill: none; stroke: #2e54a1; stroke-width: 1.5; stroke-linecap: square"/>
   </g>
   <g id="line2d_15">
    <path d="M 59.06 255.919946 
L 67.852999 237.194566 
L 72.133801 228.594545 
L 75.350187 222.609994 
L 77.988087 218.155165 
L 80.255755 214.746151 
L 82.176331 212.210792 
L 82.176331 212.210792 
" clip-path="url(#p015bae5960)" style="fill: none; stroke: #2e54a1; stroke-width: 1.5; stroke-linecap: square"/>
   </g>
   <g id="line2d_16">
    <path d="M 59.06 255.919946 
L 67.858784 237.182599 
L 72.120303 228.620682 
L 75.328976 222.64766 
L 77.961091 218.198252 
L 80.242257 214.765152 
L 82.297813 212.061885 
L 84.102692 210.012725 
L 84.102692 210.012725 
" clip-path="url(#p015bae5960)" style="fill: none; stroke: #2e54a1; stroke-width: 1.5; stroke-linecap: square"/>
   </g>
   <g id="line2d_17">
    <path d="M 59.06 255.919946 
L 67.833716 237.234462 
L 72.099092 228.661768 
L 75.311621 222.678497 
L 77.957234 218.204412 
L 80.224902 214.789606 
L 82.276602 212.087785 
L 84.220317 209.889752 
L 86.029053 208.157206 
L 86.029053 208.157206 
" clip-path="url(#p015bae5960)" style="fill: none; stroke: #2e54a1; stroke-width: 1.5; stroke-linecap: square"/>
   </g>
   <g id="line2d_18">
    <path d="M 59.06 255.919946 
L 67.852999 237.194566 
L 72.133801 228.594545 
L 75.344402 222.620264 
L 77.976517 218.173624 
L 80.26154 214.738013 
L 82.315168 212.040725 
L 84.253098 209.855709 
L 86.13318 208.066287 
L 87.955414 206.620632 
L 87.955414 206.620632 
" clip-path="url(#p015bae5960)" style="fill: none; stroke: #2e54a1; stroke-width: 1.5; stroke-linecap: square"/>
   </g>
   <g id="line2d_19">
    <path d="M 59.06 255.919946 
L 67.852999 237.194566 
L 72.110661 228.639355 
L 75.319334 222.664789 
L 77.941808 218.229063 
L 80.224902 214.789606 
L 82.292028 212.068944 
L 84.235744 209.873719 
L 86.117754 208.079697 
L 87.999764 206.588729 
L 89.881774 205.365214 
L 89.881774 205.365214 
" clip-path="url(#p015bae5960)" style="fill: none; stroke: #2e54a1; stroke-width: 1.5; stroke-linecap: square"/>
   </g>
   <g id="line2d_20">
    <path d="M 59.06 255.919946 
L 67.845286 237.210524 
L 72.106805 228.646825 
L 75.319334 222.664789 
L 77.941808 218.229063 
L 80.203691 214.81953 
L 82.268889 212.097214 
L 84.202963 209.907815 
L 86.071475 208.120052 
L 87.972768 206.608131 
L 89.939623 205.331409 
L 91.808135 204.347374 
L 91.808135 204.347374 
" clip-path="url(#p015bae5960)" style="fill: none; stroke: #2e54a1; stroke-width: 1.5; stroke-linecap: square"/>
   </g>
   <g id="line2d_21">
    <path d="M 59.06 255.919946 
L 67.841429 237.218503 
L 72.110661 228.639355 
L 75.338617 222.630536 
L 77.976517 218.173624 
L 80.232615 214.778734 
L 82.280458 212.083073 
L 84.224174 209.885742 
L 86.098471 208.09649 
L 87.972768 206.608131 
L 89.916484 205.344906 
L 91.999036 204.25779 
L 93.734496 203.52454 
L 93.734496 203.52454 
" clip-path="url(#p015bae5960)" style="fill: none; stroke: #2e54a1; stroke-width: 1.5; stroke-linecap: square"/>
   </g>
   <g id="line2d_22">
    <path d="M 59.06 255.919946 
L 67.852999 237.194566 
L 72.139586 228.583346 
L 75.363685 222.586039 
L 78.001585 218.133642 
L 80.273109 214.721745 
L 82.324809 212.028982 
L 84.266596 209.84172 
L 86.135109 208.064612 
L 88.040258 206.55973 
L 89.982045 205.306754 
L 92.070383 204.224791 
L 94.341907 203.299315 
L 95.660857 202.85901 
L 95.660857 202.85901 
" clip-path="url(#p015bae5960)" style="fill: none; stroke: #2e54a1; stroke-width: 1.5; stroke-linecap: square"/>
   </g>
   <g id="line2d_23">
    <path d="M 59.06 255.919946 
L 67.852999 237.194566 
L 72.133801 228.594545 
L 75.334761 222.637385 
L 77.957234 218.204412 
L 80.232615 214.778734 
L 82.276602 212.087785 
L 84.204891 209.905806 
L 86.094614 208.099852 
L 87.984338 206.599809 
L 89.951193 205.324674 
L 92.033745 204.241704 
L 94.309126 203.31109 
L 96.893034 202.501247 
L 97.587218 202.319317 
L 97.587218 202.319317 
" clip-path="url(#p015bae5960)" style="fill: none; stroke: #2e54a1; stroke-width: 1.5; stroke-linecap: square"/>
   </g>
   <g id="line2d_24">
    <path d="M 59.06 188.970108 
L 59.06 188.970108 
" clip-path="url(#p015bae5960)" style="fill: none; stroke: #2e54a1; stroke-width: 1.5; stroke-linecap: square"/>
   </g>
   <g id="line2d_25">
    <path d="M 59.06 188.970108 
L 60.986361 188.933165 
L 60.986361 188.933165 
" clip-path="url(#p015bae5960)" style="fill: none; stroke: #2e54a1; stroke-width: 1.5; stroke-linecap: square"/>
   </g>
   <g id="line2d_26">
    <path d="M 59.06 188.970108 
L 62.314952 188.863875 
L 62.912722 188.820632 
L 62.912722 188.820632 
" clip-path="url(#p015bae5960)" style="fill: none; stroke: #2e54a1; stroke-width: 1.5; stroke-linecap: square"/>
   </g>
   <g id="line2d_27">
    <path d="M 59.06 188.970108 
L 62.31688 188.863748 
L 64.839083 188.627269 
L 64.839083 188.627269 
" clip-path="url(#p015bae5960)" style="fill: none; stroke: #2e54a1; stroke-width: 1.5; stroke-linecap: square"/>
   </g>
   <g id="line2d_28">
    <path d="M 59.06 188.970108 
L 62.314952 188.863875 
L 65.477346 188.543932 
L 66.765444 188.343954 
L 66.765444 188.343954 
" clip-path="url(#p015bae5960)" style="fill: none; stroke: #2e54a1; stroke-width: 1.5; stroke-linecap: square"/>
   </g>
   <g id="line2d_29">
    <path d="M 59.06 188.970108 
L 62.318809 188.863621 
L 65.481203 188.543398 
L 68.354354 188.033093 
L 68.691805 187.957089 
L 68.691805 187.957089 
" clip-path="url(#p015bae5960)" style="fill: none; stroke: #2e54a1; stroke-width: 1.5; stroke-linecap: square"/>
   </g>
   <g id="line2d_30">
    <path d="M 59.06 188.970108 
L 62.322665 188.863366 
L 65.481203 188.543398 
L 68.350497 188.033941 
L 70.618165 187.447839 
L 70.618165 187.447839 
" clip-path="url(#p015bae5960)" style="fill: none; stroke: #2e54a1; stroke-width: 1.5; stroke-linecap: square"/>
   </g>
   <g id="line2d_31">
    <path d="M 59.06 188.970108 
L 62.313024 188.864002 
L 65.471562 188.544733 
L 68.346641 188.034788 
L 70.911265 187.358149 
L 72.544526 186.791299 
L 72.544526 186.791299 
" clip-path="url(#p015bae5960)" style="fill: none; stroke: #2e54a1; stroke-width: 1.5; stroke-linecap: square"/>
   </g>
   <g id="line2d_32">
    <path d="M 59.06 188.970108 
L 62.314952 188.863875 
L 65.477346 188.543932 
L 68.346641 188.034788 
L 70.907409 187.359352 
L 73.20593 186.526431 
L 74.470887 185.955936 
L 74.470887 185.955936 
" clip-path="url(#p015bae5960)" style="fill: none; stroke: #2e54a1; stroke-width: 1.5; stroke-linecap: square"/>
   </g>
   <g id="line2d_33">
    <path d="M 59.06 188.970108 
L 62.322665 188.863366 
L 65.481203 188.543398 
L 68.362067 188.031397 
L 70.930548 187.352127 
L 73.221356 186.519991 
L 75.303908 185.529997 
L 76.397248 184.90389 
L 76.397248 184.90389 
" clip-path="url(#p015bae5960)" style="fill: none; stroke: #2e54a1; stroke-width: 1.5; stroke-linecap: square"/>
   </g>
   <g id="line2d_34">
    <path d="M 59.06 188.970108 
L 62.318809 188.863621 
L 65.481203 188.543398 
L 68.354354 188.033093 
L 70.918979 187.355742 
L 73.213643 186.523213 
L 75.296195 185.534136 
L 77.243767 184.362278 
L 78.323609 183.593079 
L 78.323609 183.593079 
" clip-path="url(#p015bae5960)" style="fill: none; stroke: #2e54a1; stroke-width: 1.5; stroke-linecap: square"/>
   </g>
   <g id="line2d_35">
    <path d="M 59.06 188.970108 
L 62.326522 188.863111 
L 65.486988 188.542595 
L 68.350497 188.033941 
L 70.91705 187.356344 
L 73.207858 186.525627 
L 75.286554 185.539305 
L 77.216771 184.380359 
L 79.062144 183.013005 
L 80.24997 181.982035 
L 80.24997 181.982035 
" clip-path="url(#p015bae5960)" style="fill: none; stroke: #2e54a1; stroke-width: 1.5; stroke-linecap: square"/>
   </g>
   <g id="line2d_36">
    <path d="M 59.06 188.970108 
L 62.322665 188.863366 
L 65.492773 188.541792 
L 68.362067 188.031397 
L 70.930548 187.352127 
L 73.221356 186.519991 
L 75.303908 185.529997 
L 77.247624 184.359691 
L 79.098781 182.983039 
L 80.90366 181.360809 
L 82.176331 180.037469 
L 82.176331 180.037469 
" clip-path="url(#p015bae5960)" style="fill: none; stroke: #2e54a1; stroke-width: 1.5; stroke-linecap: square"/>
   </g>
   <g id="line2d_37">
    <path d="M 59.06 188.970108 
L 62.318809 188.863621 
L 65.477346 188.543932 
L 68.360139 188.031821 
L 70.91705 187.356344 
L 73.223284 186.519185 
L 75.303908 185.529997 
L 77.234126 184.368742 
L 79.08914 182.990936 
L 80.894019 181.370257 
L 82.723965 179.420915 
L 84.102692 177.742538 
L 84.102692 177.742538 
" clip-path="url(#p015bae5960)" style="fill: none; stroke: #2e54a1; stroke-width: 1.5; stroke-linecap: square"/>
   </g>
   <g id="line2d_38">
    <path d="M 59.06 188.970108 
L 62.326522 188.863111 
L 65.48506 188.542863 
L 68.346641 188.034788 
L 70.911265 187.358149 
L 73.20593 186.526431 
L 75.284625 185.540339 
L 77.228341 184.372617 
L 79.064072 183.011431 
L 80.872807 181.391011 
L 82.681543 179.469695 
L 84.571266 177.131394 
L 86.029053 175.101961 
L 86.029053 175.101961 
" clip-path="url(#p015bae5960)" style="fill: none; stroke: #2e54a1; stroke-width: 1.5; stroke-linecap: square"/>
   </g>
   <g id="line2d_39">
    <path d="M 59.06 188.970108 
L 62.32845 188.862983 
L 65.481203 188.543398 
L 68.344712 188.035211 
L 70.918979 187.355742 
L 73.204001 186.527235 
L 75.286554 185.539305 
L 77.224484 184.375199 
L 79.075642 183.001978 
L 80.897875 181.366479 
L 82.720108 179.425356 
L 84.60019 177.093001 
L 86.624894 174.218701 
L 87.955414 172.141019 
L 87.955414 172.141019 
" clip-path="url(#p015bae5960)" style="fill: none; stroke: #2e54a1; stroke-width: 1.5; stroke-linecap: square"/>
   </g>
   <g id="line2d_40">
    <path d="M 59.06 188.970108 
L 62.330378 188.862855 
L 65.477346 188.543932 
L 68.346641 188.034788 
L 70.907409 187.359352 
L 73.190503 186.532859 
L 75.288482 185.538272 
L 77.232197 184.370034 
L 79.083355 182.99567 
L 80.90366 181.360809 
L 82.723965 179.420915 
L 84.605975 177.085313 
L 86.642249 174.192525 
L 88.89449 170.592962 
L 89.881774 168.899068 
L 89.881774 168.899068 
" clip-path="url(#p015bae5960)" style="fill: none; stroke: #2e54a1; stroke-width: 1.5; stroke-linecap: square"/>
   </g>
   <g id="line2d_41">
    <path d="M 59.06 188.970108 
L 62.305311 188.86451 
L 65.452279 188.547396 
L 68.336999 188.036903 
L 70.893911 187.363556 
L 73.188575 186.533662 
L 75.286554 185.539305 
L 77.220628 184.37778 
L 79.056359 183.017726 
L 80.859309 181.404196 
L 82.695041 179.454193 
L 84.596334 177.098125 
L 86.628751 174.212886 
L 88.890634 170.59945 
L 91.480326 166.027726 
L 91.808135 165.421178 
L 91.808135 165.421178 
" clip-path="url(#p015bae5960)" style="fill: none; stroke: #2e54a1; stroke-width: 1.5; stroke-linecap: square"/>
   </g>
   <g id="line2d_42">
    <path d="M 59.06 188.970108 
L 62.322665 188.863366 
L 65.481203 188.543398 
L 68.362067 188.031397 
L 70.930548 187.352127 
L 73.221356 186.519991 
L 75.303908 185.529997 
L 77.247624 184.359691 
L 79.087212 182.992514 
L 80.89209 181.372145 
L 82.696969 179.451977 
L 84.571266 177.131394 
L 86.5844 174.279681 
L 88.840498 170.683689 
L 91.443689 166.095163 
L 93.734496 161.751389 
L 93.734496 161.751389 
" clip-path="url(#p015bae5960)" style="fill: none; stroke: #2e54a1; stroke-width: 1.5; stroke-linecap: square"/>
   </g>
   <g id="line2d_43">
    <path d="M 59.06 188.970108 
L 62.320737 188.863493 
L 65.471562 188.544733 
L 68.329286 188.038593 
L 70.893911 187.363556 
L 73.202073 186.528039 
L 75.29041 185.537238 
L 77.232197 184.370034 
L 79.064072 183.011431 
L 80.859309 181.404196 
L 82.691184 179.458624 
L 84.596334 177.098125 
L 86.611396 174.239043 
L 88.846283 170.673978 
L 91.447545 166.088068 
L 94.561732 160.126544 
L 95.660857 157.928885 
L 95.660857 157.928885 
" clip-path="url(#p015bae5960)" style="fill: none; stroke: #2e54a1; stroke-width: 1.5; stroke-linecap: square"/>
   </g>
   <g id="line2d_44">
    <path d="M 59.06 188.970108 
L 62.338092 188.862343 
L 65.500486 188.54072 
L 68.354354 188.033093 
L 70.899696 187.361755 
L 73.213643 186.523213 
L 75.296195 185.534136 
L 77.224484 184.375199 
L 79.075642 183.001978 
L 80.888234 181.375921 
L 82.700825 179.447544 
L 84.590549 177.105807 
L 86.634535 174.204162 
L 88.871351 170.63187 
L 91.455258 166.073875 
L 94.579087 160.092176 
L 97.587218 153.986688 
L 97.587218 153.986688 
" clip-path="url(#p015bae5960)" style="fill: none; stroke: #2e54a1; stroke-width: 1.5; stroke-linecap: square"/>
   </g>
   <g id="line2d_45">
    <path d="M 59.06 98.58661 
L 59.06 98.58661 
" clip-path="url(#p015bae5960)" style="fill: none; stroke: #249087; stroke-width: 1.5; stroke-linecap: square"/>
   </g>
   <g id="line2d_46">
    <path d="M 59.06 98.58661 
L 60.986361 98.586509 
L 60.986361 98.586509 
" clip-path="url(#p015bae5960)" style="fill: none; stroke: #249087; stroke-width: 1.5; stroke-linecap: square"/>
   </g>
   <g id="line2d_47">
    <path d="M 59.06 98.58661 
L 62.912722 98.586541 
L 62.912722 98.586541 
" clip-path="url(#p015bae5960)" style="fill: none; stroke: #249087; stroke-width: 1.5; stroke-linecap: square"/>
   </g>
   <g id="line2d_48">
    <path d="M 59.06 98.58661 
L 64.839083 98.587426 
L 64.839083 98.587426 
" clip-path="url(#p015bae5960)" style="fill: none; stroke: #249087; stroke-width: 1.5; stroke-linecap: square"/>
   </g>
   <g id="line2d_49">
    <path d="M 59.06 98.58661 
L 66.765444 98.589556 
L 66.765444 98.589556 
" clip-path="url(#p015bae5960)" style="fill: none; stroke: #249087; stroke-width: 1.5; stroke-linecap: square"/>
   </g>
   <g id="line2d_50">
    <path d="M 59.06 98.58661 
L 68.691805 98.592878 
L 68.691805 98.592878 
" clip-path="url(#p015bae5960)" style="fill: none; stroke: #249087; stroke-width: 1.5; stroke-linecap: square"/>
   </g>
   <g id="line2d_51">
    <path d="M 59.06 98.58661 
L 70.618165 98.597264 
L 70.618165 98.597264 
" clip-path="url(#p015bae5960)" style="fill: none; stroke: #249087; stroke-width: 1.5; stroke-linecap: square"/>
   </g>
   <g id="line2d_52">
    <path d="M 59.06 98.58661 
L 72.544526 98.602642 
L 72.544526 98.602642 
" clip-path="url(#p015bae5960)" style="fill: none; stroke: #249087; stroke-width: 1.5; stroke-linecap: square"/>
   </g>
   <g id="line2d_53">
    <path d="M 59.06 98.58661 
L 74.470887 98.608981 
L 74.470887 98.608981 
" clip-path="url(#p015bae5960)" style="fill: none; stroke: #249087; stroke-width: 1.5; stroke-linecap: square"/>
   </g>
   <g id="line2d_54">
    <path d="M 59.06 98.58661 
L 76.397248 98.616272 
L 76.397248 98.616272 
" clip-path="url(#p015bae5960)" style="fill: none; stroke: #249087; stroke-width: 1.5; stroke-linecap: square"/>
   </g>
   <g id="line2d_55">
    <path d="M 59.06 98.58661 
L 78.323609 98.62452 
L 78.323609 98.62452 
" clip-path="url(#p015bae5960)" style="fill: none; stroke: #249087; stroke-width: 1.5; stroke-linecap: square"/>
   </g>
   <g id="line2d_56">
    <path d="M 59.06 98.58661 
L 80.24997 98.633734 
L 80.24997 98.633734 
" clip-path="url(#p015bae5960)" style="fill: none; stroke: #249087; stroke-width: 1.5; stroke-linecap: square"/>
   </g>
   <g id="line2d_57">
    <path d="M 59.06 98.58661 
L 82.176331 98.643927 
L 82.176331 98.643927 
" clip-path="url(#p015bae5960)" style="fill: none; stroke: #249087; stroke-width: 1.5; stroke-linecap: square"/>
   </g>
   <g id="line2d_58">
    <path d="M 59.06 98.58661 
L 84.102692 98.655113 
L 84.102692 98.655113 
" clip-path="url(#p015bae5960)" style="fill: none; stroke: #249087; stroke-width: 1.5; stroke-linecap: square"/>
   </g>
   <g id="line2d_59">
    <path d="M 59.06 98.58661 
L 86.029053 98.667304 
L 86.029053 98.667304 
" clip-path="url(#p015bae5960)" style="fill: none; stroke: #249087; stroke-width: 1.5; stroke-linecap: square"/>
   </g>
   <g id="line2d_60">
    <path d="M 59.06 98.58661 
L 87.955414 98.68051 
L 87.955414 98.68051 
" clip-path="url(#p015bae5960)" style="fill: none; stroke: #249087; stroke-width: 1.5; stroke-linecap: square"/>
   </g>
   <g id="line2d_61">
    <path d="M 59.06 98.58661 
L 89.881774 98.694736 
L 89.881774 98.694736 
" clip-path="url(#p015bae5960)" style="fill: none; stroke: #249087; stroke-width: 1.5; stroke-linecap: square"/>
   </g>
   <g id="line2d_62">
    <path d="M 59.06 98.58661 
L 90.955832 98.70311 
L 91.808135 98.709981 
L 91.808135 98.709981 
" clip-path="url(#p015bae5960)" style="fill: none; stroke: #249087; stroke-width: 1.5; stroke-linecap: square"/>
   </g>
   <g id="line2d_63">
    <path d="M 59.06 98.58661 
L 90.95776 98.703126 
L 93.734496 98.726237 
L 93.734496 98.726237 
" clip-path="url(#p015bae5960)" style="fill: none; stroke: #249087; stroke-width: 1.5; stroke-linecap: square"/>
   </g>
   <g id="line2d_64">
    <path d="M 59.06 98.58661 
L 90.93462 98.702942 
L 95.660857 98.743487 
L 95.660857 98.743487 
" clip-path="url(#p015bae5960)" style="fill: none; stroke: #249087; stroke-width: 1.5; stroke-linecap: square"/>
   </g>
   <g id="line2d_65">
    <path d="M 59.06 98.58661 
L 90.953903 98.703095 
L 97.587218 98.7617 
L 97.587218 98.7617 
" clip-path="url(#p015bae5960)" style="fill: none; stroke: #249087; stroke-width: 1.5; stroke-linecap: square"/>
   </g>
   <g id="line2d_66">
    <path d="M 59.06 98.575582 
L 59.06 98.575582 
" clip-path="url(#p015bae5960)" style="fill: none; stroke: #249087; stroke-width: 1.5; stroke-linecap: square"/>
   </g>
   <g id="line2d_67">
    <path d="M 59.06 98.575582 
L 60.986361 98.575372 
L 60.986361 98.575372 
" clip-path="url(#p015bae5960)" style="fill: none; stroke: #249087; stroke-width: 1.5; stroke-linecap: square"/>
   </g>
   <g id="line2d_68">
    <path d="M 59.06 98.575582 
L 62.912722 98.574412 
L 62.912722 98.574412 
" clip-path="url(#p015bae5960)" style="fill: none; stroke: #249087; stroke-width: 1.5; stroke-linecap: square"/>
   </g>
   <g id="line2d_69">
    <path d="M 59.06 98.575582 
L 64.839083 98.571991 
L 64.839083 98.571991 
" clip-path="url(#p015bae5960)" style="fill: none; stroke: #249087; stroke-width: 1.5; stroke-linecap: square"/>
   </g>
   <g id="line2d_70">
    <path d="M 59.06 98.575582 
L 66.765444 98.567735 
L 66.765444 98.567735 
" clip-path="url(#p015bae5960)" style="fill: none; stroke: #249087; stroke-width: 1.5; stroke-linecap: square"/>
   </g>
   <g id="line2d_71">
    <path d="M 59.06 98.575582 
L 68.691805 98.561718 
L 68.691805 98.561718 
" clip-path="url(#p015bae5960)" style="fill: none; stroke: #249087; stroke-width: 1.5; stroke-linecap: square"/>
   </g>
   <g id="line2d_72">
    <path d="M 59.06 98.575582 
L 70.618165 98.554096 
L 70.618165 98.554096 
" clip-path="url(#p015bae5960)" style="fill: none; stroke: #249087; stroke-width: 1.5; stroke-linecap: square"/>
   </g>
   <g id="line2d_73">
    <path d="M 59.06 98.575582 
L 72.544526 98.544975 
L 72.544526 98.544975 
" clip-path="url(#p015bae5960)" style="fill: none; stroke: #249087; stroke-width: 1.5; stroke-linecap: square"/>
   </g>
   <g id="line2d_74">
    <path d="M 59.06 98.575582 
L 74.470887 98.53442 
L 74.470887 98.53442 
" clip-path="url(#p015bae5960)" style="fill: none; stroke: #249087; stroke-width: 1.5; stroke-linecap: square"/>
   </g>
   <g id="line2d_75">
    <path d="M 59.06 98.575582 
L 76.397248 98.522478 
L 76.397248 98.522478 
" clip-path="url(#p015bae5960)" style="fill: none; stroke: #249087; stroke-width: 1.5; stroke-linecap: square"/>
   </g>
   <g id="line2d_76">
    <path d="M 59.06 98.575582 
L 78.323609 98.509181 
L 78.323609 98.509181 
" clip-path="url(#p015bae5960)" style="fill: none; stroke: #249087; stroke-width: 1.5; stroke-linecap: square"/>
   </g>
   <g id="line2d_77">
    <path d="M 59.06 98.575582 
L 80.24997 98.494553 
L 80.24997 98.494553 
" clip-path="url(#p015bae5960)" style="fill: none; stroke: #249087; stroke-width: 1.5; stroke-linecap: square"/>
   </g>
   <g id="line2d_78">
    <path d="M 59.06 98.575582 
L 82.176331 98.478612 
L 82.176331 98.478612 
" clip-path="url(#p015bae5960)" style="fill: none; stroke: #249087; stroke-width: 1.5; stroke-linecap: square"/>
   </g>
   <g id="line2d_79">
    <path d="M 59.06 98.575582 
L 84.102692 98.461363 
L 84.102692 98.461363 
" clip-path="url(#p015bae5960)" style="fill: none; stroke: #249087; stroke-width: 1.5; stroke-linecap: square"/>
   </g>
   <g id="line2d_80">
    <path d="M 59.06 98.575582 
L 84.220317 98.460267 
L 86.029053 98.442799 
L 86.029053 98.442799 
" clip-path="url(#p015bae5960)" style="fill: none; stroke: #249087; stroke-width: 1.5; stroke-linecap: square"/>
   </g>
   <g id="line2d_81">
    <path d="M 59.06 98.575582 
L 84.224174 98.460231 
L 87.955414 98.422897 
L 87.955414 98.422897 
" clip-path="url(#p015bae5960)" style="fill: none; stroke: #249087; stroke-width: 1.5; stroke-linecap: square"/>
   </g>
   <g id="line2d_82">
    <path d="M 59.06 98.575582 
L 84.235744 98.460123 
L 89.881774 98.401606 
L 89.881774 98.401606 
" clip-path="url(#p015bae5960)" style="fill: none; stroke: #249087; stroke-width: 1.5; stroke-linecap: square"/>
   </g>
   <g id="line2d_83">
    <path d="M 59.06 98.575582 
L 84.235744 98.460123 
L 91.808135 98.378845 
L 91.808135 98.378845 
" clip-path="url(#p015bae5960)" style="fill: none; stroke: #249087; stroke-width: 1.5; stroke-linecap: square"/>
   </g>
   <g id="line2d_84">
    <path d="M 59.06 98.575582 
L 84.224174 98.460231 
L 93.734496 98.354485 
L 93.734496 98.354485 
" clip-path="url(#p015bae5960)" style="fill: none; stroke: #249087; stroke-width: 1.5; stroke-linecap: square"/>
   </g>
   <g id="line2d_85">
    <path d="M 59.06 98.575582 
L 84.229959 98.460177 
L 95.660857 98.328334 
L 95.660857 98.328334 
" clip-path="url(#p015bae5960)" style="fill: none; stroke: #249087; stroke-width: 1.5; stroke-linecap: square"/>
   </g>
   <g id="line2d_86">
    <path d="M 59.06 98.575582 
L 84.204891 98.460411 
L 97.587218 98.300111 
L 97.587218 98.300111 
" clip-path="url(#p015bae5960)" style="fill: none; stroke: #249087; stroke-width: 1.5; stroke-linecap: square"/>
   </g>
   <g id="line2d_87">
    <path d="M 59.06 54.904975 
L 59.06 54.904975 
" clip-path="url(#p015bae5960)" style="fill: none; stroke: #ff0000; stroke-width: 1.5; stroke-linecap: square"/>
   </g>
   <g id="line2d_88">
    <path d="M 59.06 54.904975 
L 60.986361 54.905009 
L 60.986361 54.905009 
" clip-path="url(#p015bae5960)" style="fill: none; stroke: #ff0000; stroke-width: 1.5; stroke-linecap: square"/>
   </g>
   <g id="line2d_89">
    <path d="M 59.06 54.904975 
L 62.912722 54.905108 
L 62.912722 54.905108 
" clip-path="url(#p015bae5960)" style="fill: none; stroke: #ff0000; stroke-width: 1.5; stroke-linecap: square"/>
   </g>
   <g id="line2d_90">
    <path d="M 59.06 54.904975 
L 64.839083 54.905273 
L 64.839083 54.905273 
" clip-path="url(#p015bae5960)" style="fill: none; stroke: #ff0000; stroke-width: 1.5; stroke-linecap: square"/>
   </g>
   <g id="line2d_91">
    <path d="M 59.06 54.904975 
L 66.765444 54.905504 
L 66.765444 54.905504 
" clip-path="url(#p015bae5960)" style="fill: none; stroke: #ff0000; stroke-width: 1.5; stroke-linecap: square"/>
   </g>
   <g id="line2d_92">
    <path d="M 59.06 54.904975 
L 68.691805 54.905801 
L 68.691805 54.905801 
" clip-path="url(#p015bae5960)" style="fill: none; stroke: #ff0000; stroke-width: 1.5; stroke-linecap: square"/>
   </g>
   <g id="line2d_93">
    <path d="M 59.06 54.904975 
L 70.618165 54.906162 
L 70.618165 54.906162 
" clip-path="url(#p015bae5960)" style="fill: none; stroke: #ff0000; stroke-width: 1.5; stroke-linecap: square"/>
   </g>
   <g id="line2d_94">
    <path d="M 59.06 54.904975 
L 72.544526 54.906589 
L 72.544526 54.906589 
" clip-path="url(#p015bae5960)" style="fill: none; stroke: #ff0000; stroke-width: 1.5; stroke-linecap: square"/>
   </g>
   <g id="line2d_95">
    <path d="M 59.06 54.904975 
L 74.470887 54.907079 
L 74.470887 54.907079 
" clip-path="url(#p015bae5960)" style="fill: none; stroke: #ff0000; stroke-width: 1.5; stroke-linecap: square"/>
   </g>
   <g id="line2d_96">
    <path d="M 59.06 54.904975 
L 76.397248 54.907632 
L 76.397248 54.907632 
" clip-path="url(#p015bae5960)" style="fill: none; stroke: #ff0000; stroke-width: 1.5; stroke-linecap: square"/>
   </g>
   <g id="line2d_97">
    <path d="M 59.06 54.904975 
L 78.323609 54.908249 
L 78.323609 54.908249 
" clip-path="url(#p015bae5960)" style="fill: none; stroke: #ff0000; stroke-width: 1.5; stroke-linecap: square"/>
   </g>
   <g id="line2d_98">
    <path d="M 59.06 54.904975 
L 80.24997 54.908929 
L 80.24997 54.908929 
" clip-path="url(#p015bae5960)" style="fill: none; stroke: #ff0000; stroke-width: 1.5; stroke-linecap: square"/>
   </g>
   <g id="line2d_99">
    <path d="M 59.06 54.904975 
L 82.176331 54.909672 
L 82.176331 54.909672 
" clip-path="url(#p015bae5960)" style="fill: none; stroke: #ff0000; stroke-width: 1.5; stroke-linecap: square"/>
   </g>
   <g id="line2d_100">
    <path d="M 59.06 54.904975 
L 84.102692 54.910479 
L 84.102692 54.910479 
" clip-path="url(#p015bae5960)" style="fill: none; stroke: #ff0000; stroke-width: 1.5; stroke-linecap: square"/>
   </g>
   <g id="line2d_101">
    <path d="M 59.06 54.904975 
L 86.029053 54.911349 
L 86.029053 54.911349 
" clip-path="url(#p015bae5960)" style="fill: none; stroke: #ff0000; stroke-width: 1.5; stroke-linecap: square"/>
   </g>
   <g id="line2d_102">
    <path d="M 59.06 54.904975 
L 87.955414 54.912286 
L 87.955414 54.912286 
" clip-path="url(#p015bae5960)" style="fill: none; stroke: #ff0000; stroke-width: 1.5; stroke-linecap: square"/>
   </g>
   <g id="line2d_103">
    <path d="M 59.06 54.904975 
L 89.881774 54.913291 
L 89.881774 54.913291 
" clip-path="url(#p015bae5960)" style="fill: none; stroke: #ff0000; stroke-width: 1.5; stroke-linecap: square"/>
   </g>
   <g id="line2d_104">
    <path d="M 59.06 54.904975 
L 91.808135 54.914368 
L 91.808135 54.914368 
" clip-path="url(#p015bae5960)" style="fill: none; stroke: #ff0000; stroke-width: 1.5; stroke-linecap: square"/>
   </g>
   <g id="line2d_105">
    <path d="M 59.06 54.904975 
L 93.734496 54.915522 
L 93.734496 54.915522 
" clip-path="url(#p015bae5960)" style="fill: none; stroke: #ff0000; stroke-width: 1.5; stroke-linecap: square"/>
   </g>
   <g id="line2d_106">
    <path d="M 59.06 54.904975 
L 94.45182 54.915959 
L 95.660857 54.916762 
L 95.660857 54.916762 
" clip-path="url(#p015bae5960)" style="fill: none; stroke: #ff0000; stroke-width: 1.5; stroke-linecap: square"/>
   </g>
   <g id="line2d_107">
    <path d="M 59.06 54.904975 
L 94.617653 54.916061 
L 97.587218 54.918099 
L 97.587218 54.918099 
" clip-path="url(#p015bae5960)" style="fill: none; stroke: #ff0000; stroke-width: 1.5; stroke-linecap: square"/>
   </g>
   <g id="patch_3">
    <path d="M 59.06 255.92 
L 59.06 14.76 
" style="fill: none; stroke: #000000; stroke-width: 0.8; stroke-linejoin: miter; stroke-linecap: square"/>
   </g>
   <g id="patch_4">
    <path d="M 97.2 255.92 
L 97.2 14.76 
" style="fill: none; stroke: #000000; stroke-width: 0.8; stroke-linejoin: miter; stroke-linecap: square"/>
   </g>
   <g id="patch_5">
    <path d="M 59.06 255.92 
L 97.2 255.92 
" style="fill: none; stroke: #000000; stroke-width: 0.8; stroke-linejoin: miter; stroke-linecap: square"/>
   </g>
   <g id="patch_6">
    <path d="M 59.06 14.76 
L 97.2 14.76 
" style="fill: none; stroke: #000000; stroke-width: 0.8; stroke-linejoin: miter; stroke-linecap: square"/>
   </g>
   <g id="text_5">
    <!-- X -->
    <g transform="translate(84.200625 272.784539) scale(0.18 -0.18)">
     <defs>
      <path id="TimesNewRomanPSMT-58" d="M 2613 2347 
L 3522 991 
Q 3900 428 4083 279 
Q 4266 131 4547 116 
L 4547 0 
L 2728 0 
L 2728 116 
Q 2909 119 2997 153 
Q 3063 181 3105 239 
Q 3147 297 3147 356 
Q 3147 428 3119 500 
Q 3097 553 2947 775 
L 2228 1863 
L 1341 725 
Q 1200 544 1172 483 
Q 1144 422 1144 356 
Q 1144 256 1228 190 
Q 1313 125 1550 116 
L 1550 0 
L 47 0 
L 47 116 
Q 206 131 322 181 
Q 516 263 691 400 
Q 866 538 1091 822 
L 2091 2084 
L 1256 3306 
Q 916 3803 678 3958 
Q 441 4113 131 4122 
L 131 4238 
L 2091 4238 
L 2091 4122 
Q 1841 4113 1748 4041 
Q 1656 3969 1656 3881 
Q 1656 3766 1806 3544 
L 2456 2572 
L 3209 3525 
Q 3341 3694 3370 3756 
Q 3400 3819 3400 3884 
Q 3400 3950 3363 4000 
Q 3316 4066 3244 4092 
Q 3172 4119 2947 4122 
L 2947 4238 
L 4450 4238 
L 4450 4122 
Q 4272 4113 4159 4066 
Q 3991 3994 3850 3872 
Q 3709 3750 3453 3422 
L 2613 2347 
z
" transform="scale(0.015625)"/>
     </defs>
     <use xlink:href="#TimesNewRomanPSMT-58"/>
    </g>
   </g>
  </g>
 </g>
 <defs>
  <clipPath id="p015bae5960">
   <rect x="59.06" y="14.76" width="38.14" height="241.16"/>
  </clipPath>
 </defs>
</svg>
