<?xml version="1.0" encoding="utf-8" standalone="no"?>
<!DOCTYPE svg PUBLIC "-//W3C//DTD SVG 1.1//EN"
  "http://www.w3.org/Graphics/SVG/1.1/DTD/svg11.dtd">
<svg xmlns:xlink="http://www.w3.org/1999/xlink" width="108pt" height="288pt" viewBox="0 0 108 288" xmlns="http://www.w3.org/2000/svg" version="1.1">
 <metadata>
  <rdf:RDF xmlns:dc="http://purl.org/dc/elements/1.1/" xmlns:cc="http://creativecommons.org/ns#" xmlns:rdf="http://www.w3.org/1999/02/22-rdf-syntax-ns#">
   <cc:Work>
    <dc:type rdf:resource="http://purl.org/dc/dcmitype/StillImage"/>
    <dc:date>2024-12-16T17:12:04.543449</dc:date>
    <dc:format>image/svg+xml</dc:format>
    <dc:creator>
     <cc:Agent>
      <dc:title>Matplotlib v3.9.2, https://matplotlib.org/</dc:title>
     </cc:Agent>
    </dc:creator>
   </cc:Work>
  </rdf:RDF>
 </metadata>
 <defs>
  <style type="text/css">*{stroke-linejoin: round; stroke-linecap: butt}</style>
 </defs>
 <g id="figure_1">
  <g id="patch_1">
   <path d="M 0 288 
L 108 288 
L 108 0 
L 0 0 
z
" style="fill: #ffffff"/>
  </g>
  <g id="axes_1">
   <g id="patch_2">
    <path d="M 59.06 255.92 
L 97.2 255.92 
L 97.2 14.76 
L 59.06 14.76 
z
" style="fill: #ffffff"/>
   </g>
   <g id="matplotlib.axis_1">
    <g id="text_1">
     <!-- Γ -->
     <g transform="translate(59.06 272.41875) scale(0.18 -0.18)">
      <defs>
       <path id="TimesNewRomanPSMT-393" d="M 3516 4238 
L 3531 3247 
L 3409 3247 
Q 3397 3547 3281 3728 
Q 3166 3909 2998 3957 
Q 2831 4006 2516 4006 
L 1328 4006 
L 1328 772 
Q 1328 353 1436 240 
Q 1544 128 1934 116 
L 1934 0 
L 116 0 
L 116 116 
Q 509 128 618 240 
Q 728 353 728 772 
L 728 3466 
Q 728 3884 618 3996 
Q 509 4109 116 4122 
L 116 4238 
L 3516 4238 
z
" transform="scale(0.015625)"/>
      </defs>
      <use xlink:href="#TimesNewRomanPSMT-393"/>
     </g>
    </g>
   </g>
   <g id="matplotlib.axis_2">
    <g id="ytick_1">
     <g id="line2d_1">
      <defs>
       <path id="mae355c9b5f" d="M 0 0 
L -3.5 0 
" style="stroke: #000000; stroke-width: 0.8"/>
      </defs>
      <g>
       <use xlink:href="#mae355c9b5f" x="59.06" y="255.92" style="stroke: #000000; stroke-width: 0.8"/>
      </g>
     </g>
     <g id="text_2">
      <!-- 0 -->
      <g transform="translate(47.06 259.391875) scale(0.1 -0.1)">
       <defs>
        <path id="TimesNewRomanPSMT-30" d="M 231 2094 
Q 231 2819 450 3342 
Q 669 3866 1031 4122 
Q 1313 4325 1613 4325 
Q 2100 4325 2488 3828 
Q 2972 3213 2972 2159 
Q 2972 1422 2759 906 
Q 2547 391 2217 158 
Q 1888 -75 1581 -75 
Q 975 -75 572 641 
Q 231 1244 231 2094 
z
M 844 2016 
Q 844 1141 1059 588 
Q 1238 122 1591 122 
Q 1759 122 1940 273 
Q 2122 425 2216 781 
Q 2359 1319 2359 2297 
Q 2359 3022 2209 3506 
Q 2097 3866 1919 4016 
Q 1791 4119 1609 4119 
Q 1397 4119 1231 3928 
Q 1006 3669 925 3112 
Q 844 2556 844 2016 
z
" transform="scale(0.015625)"/>
       </defs>
       <use xlink:href="#TimesNewRomanPSMT-30"/>
      </g>
     </g>
    </g>
    <g id="ytick_2">
     <g id="line2d_2">
      <g>
       <use xlink:href="#mae355c9b5f" x="59.06" y="14.76" style="stroke: #000000; stroke-width: 0.8"/>
      </g>
     </g>
     <g id="text_3">
      <!-- 6500 -->
      <g transform="translate(32.06 18.231875) scale(0.1 -0.1)">
       <defs>
        <path id="TimesNewRomanPSMT-36" d="M 2869 4325 
L 2869 4209 
Q 2456 4169 2195 4045 
Q 1934 3922 1679 3669 
Q 1425 3416 1258 3105 
Q 1091 2794 978 2366 
Q 1428 2675 1881 2675 
Q 2316 2675 2634 2325 
Q 2953 1975 2953 1425 
Q 2953 894 2631 456 
Q 2244 -75 1606 -75 
Q 1172 -75 869 213 
Q 275 772 275 1663 
Q 275 2231 503 2743 
Q 731 3256 1154 3653 
Q 1578 4050 1965 4187 
Q 2353 4325 2688 4325 
L 2869 4325 
z
M 925 2138 
Q 869 1716 869 1456 
Q 869 1156 980 804 
Q 1091 453 1309 247 
Q 1469 100 1697 100 
Q 1969 100 2183 356 
Q 2397 613 2397 1088 
Q 2397 1622 2184 2012 
Q 1972 2403 1581 2403 
Q 1463 2403 1327 2353 
Q 1191 2303 925 2138 
z
" transform="scale(0.015625)"/>
        <path id="TimesNewRomanPSMT-35" d="M 2778 4238 
L 2534 3706 
L 1259 3706 
L 981 3138 
Q 1809 3016 2294 2522 
Q 2709 2097 2709 1522 
Q 2709 1188 2573 903 
Q 2438 619 2231 419 
Q 2025 219 1772 97 
Q 1413 -75 1034 -75 
Q 653 -75 479 54 
Q 306 184 306 341 
Q 306 428 378 495 
Q 450 563 559 563 
Q 641 563 702 538 
Q 763 513 909 409 
Q 1144 247 1384 247 
Q 1750 247 2026 523 
Q 2303 800 2303 1197 
Q 2303 1581 2056 1914 
Q 1809 2247 1375 2428 
Q 1034 2569 447 2591 
L 1259 4238 
L 2778 4238 
z
" transform="scale(0.015625)"/>
       </defs>
       <use xlink:href="#TimesNewRomanPSMT-36"/>
       <use xlink:href="#TimesNewRomanPSMT-35" x="50"/>
       <use xlink:href="#TimesNewRomanPSMT-30" x="100"/>
       <use xlink:href="#TimesNewRomanPSMT-30" x="150"/>
      </g>
     </g>
    </g>
    <g id="text_4">
     <!--   -->
     <g transform="translate(24.209688 137.59) rotate(-90) scale(0.18 -0.18)">
      <defs>
       <path id="TimesNewRomanPSMT-20" transform="scale(0.015625)"/>
      </defs>
      <use xlink:href="#TimesNewRomanPSMT-20"/>
     </g>
    </g>
   </g>
   <g id="line2d_3">
    <path d="M 59.06 255.92 
L 59.06 255.92 
" clip-path="url(#p0e589515a0)" style="fill: none; stroke: #2e54a1; stroke-width: 1.5; stroke-linecap: square"/>
   </g>
   <g id="line2d_4">
    <path d="M 59.06 255.92 
L 60.986361 251.914795 
L 60.986361 251.914795 
" clip-path="url(#p0e589515a0)" style="fill: none; stroke: #2e54a1; stroke-width: 1.5; stroke-linecap: square"/>
   </g>
   <g id="line2d_5">
    <path d="M 59.06 255.92 
L 62.912722 247.918807 
L 62.912722 247.918807 
" clip-path="url(#p0e589515a0)" style="fill: none; stroke: #2e54a1; stroke-width: 1.5; stroke-linecap: square"/>
   </g>
   <g id="line2d_6">
    <path d="M 59.06 255.92 
L 64.839083 243.941545 
L 64.839083 243.941545 
" clip-path="url(#p0e589515a0)" style="fill: none; stroke: #2e54a1; stroke-width: 1.5; stroke-linecap: square"/>
   </g>
   <g id="line2d_7">
    <path d="M 59.06 255.92 
L 66.765444 239.993116 
L 66.765444 239.993116 
" clip-path="url(#p0e589515a0)" style="fill: none; stroke: #2e54a1; stroke-width: 1.5; stroke-linecap: square"/>
   </g>
   <g id="line2d_8">
    <path d="M 59.06 255.92 
L 68.691805 236.084539 
L 68.691805 236.084539 
" clip-path="url(#p0e589515a0)" style="fill: none; stroke: #2e54a1; stroke-width: 1.5; stroke-linecap: square"/>
   </g>
   <g id="line2d_9">
    <path d="M 59.06 255.92 
L 69.519041 234.421308 
L 70.618165 232.228078 
L 70.618165 232.228078 
" clip-path="url(#p0e589515a0)" style="fill: none; stroke: #2e54a1; stroke-width: 1.5; stroke-linecap: square"/>
   </g>
   <g id="line2d_10">
    <path d="M 59.06 255.92 
L 69.520969 234.417443 
L 72.544526 228.437592 
L 72.544526 228.437592 
" clip-path="url(#p0e589515a0)" style="fill: none; stroke: #2e54a1; stroke-width: 1.5; stroke-linecap: square"/>
   </g>
   <g id="line2d_11">
    <path d="M 59.06 255.92 
L 69.519041 234.421308 
L 74.470887 224.728865 
L 74.470887 224.728865 
" clip-path="url(#p0e589515a0)" style="fill: none; stroke: #2e54a1; stroke-width: 1.5; stroke-linecap: square"/>
   </g>
   <g id="line2d_12">
    <path d="M 59.06 255.92 
L 69.524825 234.409713 
L 74.627079 224.432272 
L 76.397248 221.119895 
L 76.397248 221.119895 
" clip-path="url(#p0e589515a0)" style="fill: none; stroke: #2e54a1; stroke-width: 1.5; stroke-linecap: square"/>
   </g>
   <g id="line2d_13">
    <path d="M 59.06 255.92 
L 69.511327 234.436768 
L 74.621294 224.443245 
L 78.323609 217.631037 
L 78.323609 217.631037 
" clip-path="url(#p0e589515a0)" style="fill: none; stroke: #2e54a1; stroke-width: 1.5; stroke-linecap: square"/>
   </g>
   <g id="line2d_14">
    <path d="M 59.06 255.92 
L 69.517112 234.425173 
L 74.607796 224.468853 
L 78.531864 217.261991 
L 80.24997 214.284906 
L 80.24997 214.284906 
" clip-path="url(#p0e589515a0)" style="fill: none; stroke: #2e54a1; stroke-width: 1.5; stroke-linecap: square"/>
   </g>
   <g id="line2d_15">
    <path d="M 59.06 255.92 
L 69.519041 234.421308 
L 74.609724 224.465194 
L 78.520295 217.282449 
L 81.75982 211.777793 
L 82.176331 211.105847 
L 82.176331 211.105847 
" clip-path="url(#p0e589515a0)" style="fill: none; stroke: #2e54a1; stroke-width: 1.5; stroke-linecap: square"/>
   </g>
   <g id="line2d_16">
    <path d="M 59.06 255.92 
L 69.513256 234.432903 
L 74.627079 224.432272 
L 78.537649 217.251763 
L 81.77139 211.759008 
L 84.102692 208.118834 
L 84.102692 208.118834 
" clip-path="url(#p0e589515a0)" style="fill: none; stroke: #2e54a1; stroke-width: 1.5; stroke-linecap: square"/>
   </g>
   <g id="line2d_17">
    <path d="M 59.06 255.92 
L 69.507471 234.444499 
L 74.609724 224.465194 
L 78.524151 217.275629 
L 81.763677 211.771531 
L 84.571266 207.424049 
L 86.029053 205.347669 
L 86.029053 205.347669 
" clip-path="url(#p0e589515a0)" style="fill: none; stroke: #2e54a1; stroke-width: 1.5; stroke-linecap: square"/>
   </g>
   <g id="line2d_18">
    <path d="M 59.06 255.92 
L 69.501686 234.456095 
L 74.592369 224.498124 
L 78.526079 217.272219 
L 81.765605 211.7684 
L 84.571266 207.424049 
L 87.087683 203.924232 
L 87.955414 202.812615 
L 87.955414 202.812615 
" clip-path="url(#p0e589515a0)" style="fill: none; stroke: #2e54a1; stroke-width: 1.5; stroke-linecap: square"/>
   </g>
   <g id="line2d_19">
    <path d="M 59.06 255.92 
L 69.519041 234.421308 
L 74.609724 224.465194 
L 78.528008 217.26881 
L 81.767534 211.765269 
L 84.575123 207.418384 
L 87.105038 203.901508 
L 89.418985 201.053413 
L 89.881774 200.527822 
L 89.881774 200.527822 
" clip-path="url(#p0e589515a0)" style="fill: none; stroke: #2e54a1; stroke-width: 1.5; stroke-linecap: square"/>
   </g>
   <g id="line2d_20">
    <path d="M 59.06 255.92 
L 69.517112 234.425173 
L 74.630935 224.424957 
L 78.531864 217.261991 
L 81.777175 211.749619 
L 84.596334 207.387246 
L 87.120464 203.881325 
L 89.447909 201.02013 
L 91.644231 198.661894 
L 91.808135 198.499248 
L 91.808135 198.499248 
" clip-path="url(#p0e589515a0)" style="fill: none; stroke: #2e54a1; stroke-width: 1.5; stroke-linecap: square"/>
   </g>
   <g id="line2d_21">
    <path d="M 59.06 255.92 
L 69.507471 234.444499 
L 74.609724 224.465194 
L 78.531864 217.261991 
L 81.75982 211.777793 
L 84.571266 207.424049 
L 87.105038 203.901508 
L 89.430555 201.040093 
L 91.651944 198.654199 
L 93.734496 196.723718 
L 93.734496 196.723718 
" clip-path="url(#p0e589515a0)" style="fill: none; stroke: #2e54a1; stroke-width: 1.5; stroke-linecap: square"/>
   </g>
   <g id="line2d_22">
    <path d="M 59.06 255.92 
L 69.501686 234.456095 
L 74.594298 224.494465 
L 78.51451 217.29268 
L 81.775247 211.752749 
L 84.596334 207.387246 
L 87.124321 203.876282 
L 89.469121 200.995759 
L 91.66737 198.63882 
L 93.828982 196.642966 
L 95.660857 195.189491 
L 95.660857 195.189491 
" clip-path="url(#p0e589515a0)" style="fill: none; stroke: #2e54a1; stroke-width: 1.5; stroke-linecap: square"/>
   </g>
   <g id="line2d_23">
    <path d="M 59.06 255.92 
L 69.511327 234.436768 
L 74.602011 224.479829 
L 78.535721 217.255172 
L 81.775247 211.752749 
L 84.590549 207.395735 
L 87.097325 203.911605 
L 89.411272 201.062299 
L 91.609522 198.696573 
L 93.769205 196.693986 
L 95.928889 194.994164 
L 97.587218 193.878117 
L 97.587218 193.878117 
" clip-path="url(#p0e589515a0)" style="fill: none; stroke: #2e54a1; stroke-width: 1.5; stroke-linecap: square"/>
   </g>
   <g id="line2d_24">
    <path d="M 59.06 168.753735 
L 59.06 168.753735 
" clip-path="url(#p0e589515a0)" style="fill: none; stroke: #2e54a1; stroke-width: 1.5; stroke-linecap: square"/>
   </g>
   <g id="line2d_25">
    <path d="M 59.06 168.753735 
L 60.986361 168.728705 
L 60.986361 168.728705 
" clip-path="url(#p0e589515a0)" style="fill: none; stroke: #2e54a1; stroke-width: 1.5; stroke-linecap: square"/>
   </g>
   <g id="line2d_26">
    <path d="M 59.06 168.753735 
L 62.912722 168.652833 
L 62.912722 168.652833 
" clip-path="url(#p0e589515a0)" style="fill: none; stroke: #2e54a1; stroke-width: 1.5; stroke-linecap: square"/>
   </g>
   <g id="line2d_27">
    <path d="M 59.06 168.753735 
L 63.097838 168.64279 
L 64.839083 168.523738 
L 64.839083 168.523738 
" clip-path="url(#p0e589515a0)" style="fill: none; stroke: #2e54a1; stroke-width: 1.5; stroke-linecap: square"/>
   </g>
   <g id="line2d_28">
    <path d="M 59.06 168.753735 
L 63.101694 168.642576 
L 66.765444 168.33736 
L 66.765444 168.33736 
" clip-path="url(#p0e589515a0)" style="fill: none; stroke: #2e54a1; stroke-width: 1.5; stroke-linecap: square"/>
   </g>
   <g id="line2d_29">
    <path d="M 59.06 168.753735 
L 63.099766 168.642683 
L 66.937061 168.317794 
L 68.691805 168.087825 
L 68.691805 168.087825 
" clip-path="url(#p0e589515a0)" style="fill: none; stroke: #2e54a1; stroke-width: 1.5; stroke-linecap: square"/>
   </g>
   <g id="line2d_30">
    <path d="M 59.06 168.753735 
L 63.097838 168.64279 
L 66.92742 168.318906 
L 70.40991 167.80562 
L 70.618165 167.767251 
L 70.618165 167.767251 
" clip-path="url(#p0e589515a0)" style="fill: none; stroke: #2e54a1; stroke-width: 1.5; stroke-linecap: square"/>
   </g>
   <g id="line2d_31">
    <path d="M 59.06 168.753735 
L 63.095909 168.642897 
L 66.929348 168.318684 
L 70.411838 167.805269 
L 72.544526 167.365531 
L 72.544526 167.365531 
" clip-path="url(#p0e589515a0)" style="fill: none; stroke: #2e54a1; stroke-width: 1.5; stroke-linecap: square"/>
   </g>
   <g id="line2d_32">
    <path d="M 59.06 168.753735 
L 63.101694 168.642576 
L 66.92742 168.318906 
L 70.413767 167.804918 
L 73.529882 167.124713 
L 74.470887 166.870096 
L 74.470887 166.870096 
" clip-path="url(#p0e589515a0)" style="fill: none; stroke: #2e54a1; stroke-width: 1.5; stroke-linecap: square"/>
   </g>
   <g id="line2d_33">
    <path d="M 59.06 168.753735 
L 63.103622 168.642469 
L 66.93899 168.317571 
L 70.427265 167.802458 
L 73.533739 167.12372 
L 76.32783 166.289583 
L 76.397248 166.265715 
L 76.397248 166.265715 
" clip-path="url(#p0e589515a0)" style="fill: none; stroke: #2e54a1; stroke-width: 1.5; stroke-linecap: square"/>
   </g>
   <g id="line2d_34">
    <path d="M 59.06 168.753735 
L 63.109407 168.642146 
L 66.946703 168.316679 
L 70.436906 167.800699 
L 73.541452 167.121732 
L 76.337471 166.286278 
L 78.323609 165.534419 
L 78.323609 165.534419 
" clip-path="url(#p0e589515a0)" style="fill: none; stroke: #2e54a1; stroke-width: 1.5; stroke-linecap: square"/>
   </g>
   <g id="line2d_35">
    <path d="M 59.06 168.753735 
L 63.090124 168.643219 
L 66.929348 168.318684 
L 70.407982 167.80597 
L 73.526026 167.125706 
L 76.325901 166.290244 
L 78.871243 165.300556 
L 80.24997 164.655665 
L 80.24997 164.655665 
" clip-path="url(#p0e589515a0)" style="fill: none; stroke: #2e54a1; stroke-width: 1.5; stroke-linecap: square"/>
   </g>
   <g id="line2d_36">
    <path d="M 59.06 168.753735 
L 63.109407 168.642146 
L 66.950559 168.316233 
L 70.42148 167.803513 
L 73.545308 167.120738 
L 76.345184 166.283631 
L 78.890526 165.292099 
L 81.250752 164.133512 
L 82.176331 163.606911 
L 82.176331 163.606911 
" clip-path="url(#p0e589515a0)" style="fill: none; stroke: #2e54a1; stroke-width: 1.5; stroke-linecap: square"/>
   </g>
   <g id="line2d_37">
    <path d="M 59.06 168.753735 
L 63.095909 168.642897 
L 66.931276 168.318461 
L 70.415695 167.804566 
L 73.524097 167.126202 
L 76.331686 166.288261 
L 78.86353 165.303935 
L 81.219899 164.150326 
L 83.425862 162.824682 
L 84.102692 162.364769 
L 84.102692 162.364769 
" clip-path="url(#p0e589515a0)" style="fill: none; stroke: #2e54a1; stroke-width: 1.5; stroke-linecap: square"/>
   </g>
   <g id="line2d_38">
    <path d="M 59.06 168.753735 
L 63.109407 168.642146 
L 66.942846 168.317125 
L 70.425336 167.80281 
L 73.529882 167.124713 
L 76.337471 166.286278 
L 78.8751 165.298866 
L 81.223756 164.148227 
L 83.437432 162.817039 
L 85.57012 161.274849 
L 86.029053 160.906843 
L 86.029053 160.906843 
" clip-path="url(#p0e589515a0)" style="fill: none; stroke: #2e54a1; stroke-width: 1.5; stroke-linecap: square"/>
   </g>
   <g id="line2d_39">
    <path d="M 59.06 168.753735 
L 63.109407 168.642146 
L 66.92742 168.318906 
L 70.39834 167.807724 
L 73.522169 167.126698 
L 76.32783 166.289583 
L 78.873171 165.299711 
L 81.216043 164.152425 
L 83.443217 162.813215 
L 85.583618 161.264214 
L 87.695094 159.457153 
L 87.955414 159.214142 
L 87.955414 159.214142 
" clip-path="url(#p0e589515a0)" style="fill: none; stroke: #2e54a1; stroke-width: 1.5; stroke-linecap: square"/>
   </g>
   <g id="line2d_40">
    <path d="M 59.06 168.753735 
L 63.101694 168.642576 
L 66.92742 168.318906 
L 70.413767 167.804918 
L 73.529882 167.124713 
L 76.337471 166.286278 
L 78.867387 165.302246 
L 81.212186 164.154523 
L 83.433575 162.819588 
L 85.562407 161.280921 
L 87.660385 159.489213 
L 89.789217 157.372686 
L 89.881774 157.273677 
L 89.881774 157.273677 
" clip-path="url(#p0e589515a0)" style="fill: none; stroke: #2e54a1; stroke-width: 1.5; stroke-linecap: square"/>
   </g>
   <g id="line2d_41">
    <path d="M 59.06 168.753735 
L 63.092053 168.643112 
L 66.92742 168.318906 
L 70.402197 167.807023 
L 73.516384 167.128186 
L 76.302762 166.298162 
L 78.859673 165.305624 
L 81.219899 164.150326 
L 83.449002 162.809389 
L 85.579761 161.267254 
L 87.67774 159.473193 
L 89.808499 157.352108 
L 91.808135 155.080588 
L 91.808135 155.080588 
" clip-path="url(#p0e589515a0)" style="fill: none; stroke: #2e54a1; stroke-width: 1.5; stroke-linecap: square"/>
   </g>
   <g id="line2d_42">
    <path d="M 59.06 168.753735 
L 63.086268 168.643432 
L 66.90428 168.32157 
L 70.375201 167.811923 
L 73.499029 167.132643 
L 76.310475 166.295524 
L 78.844247 165.312372 
L 81.204473 164.158716 
L 83.425862 162.824682 
L 85.577833 161.268773 
L 87.695094 159.457153 
L 89.812356 157.347989 
L 91.999036 154.849581 
L 93.734496 152.639109 
L 93.734496 152.639109 
" clip-path="url(#p0e589515a0)" style="fill: none; stroke: #2e54a1; stroke-width: 1.5; stroke-linecap: square"/>
   </g>
   <g id="line2d_43">
    <path d="M 59.06 168.753735 
L 63.090124 168.643219 
L 66.937061 168.317794 
L 70.417623 167.804215 
L 73.53181 167.124216 
L 76.31626 166.293545 
L 78.844247 165.312372 
L 81.189047 164.167094 
L 83.423934 162.825955 
L 85.548909 161.291539 
L 87.637246 159.510541 
L 89.762221 157.401454 
L 91.96047 154.896445 
L 94.268632 151.919694 
L 95.660857 149.962042 
L 95.660857 149.962042 
" clip-path="url(#p0e589515a0)" style="fill: none; stroke: #2e54a1; stroke-width: 1.5; stroke-linecap: square"/>
   </g>
   <g id="line2d_44">
    <path d="M 59.06 168.753735 
L 63.109407 168.642146 
L 66.92742 168.318906 
L 70.39834 167.807724 
L 73.522169 167.126698 
L 76.337471 166.286278 
L 78.882813 165.295484 
L 81.235326 164.141925 
L 83.433575 162.819588 
L 85.554693 161.28699 
L 87.675812 159.474974 
L 89.79693 157.364458 
L 91.995179 154.854271 
L 94.309126 151.864424 
L 96.815902 148.251814 
L 97.587218 147.06894 
L 97.587218 147.06894 
" clip-path="url(#p0e589515a0)" style="fill: none; stroke: #2e54a1; stroke-width: 1.5; stroke-linecap: square"/>
   </g>
   <g id="line2d_45">
    <path d="M 59.06 52.014172 
L 59.06 52.014172 
" clip-path="url(#p0e589515a0)" style="fill: none; stroke: #249087; stroke-width: 1.5; stroke-linecap: square"/>
   </g>
   <g id="line2d_46">
    <path d="M 59.06 52.014172 
L 60.986361 52.013199 
L 60.986361 52.013199 
" clip-path="url(#p0e589515a0)" style="fill: none; stroke: #249087; stroke-width: 1.5; stroke-linecap: square"/>
   </g>
   <g id="line2d_47">
    <path d="M 59.06 52.014172 
L 62.912722 52.015777 
L 62.912722 52.015777 
" clip-path="url(#p0e589515a0)" style="fill: none; stroke: #249087; stroke-width: 1.5; stroke-linecap: square"/>
   </g>
   <g id="line2d_48">
    <path d="M 59.06 52.014172 
L 63.138332 52.016953 
L 64.839083 52.035094 
L 64.839083 52.035094 
" clip-path="url(#p0e589515a0)" style="fill: none; stroke: #249087; stroke-width: 1.5; stroke-linecap: square"/>
   </g>
   <g id="line2d_49">
    <path d="M 59.06 52.014172 
L 63.147973 52.01701 
L 66.765444 52.073149 
L 66.765444 52.073149 
" clip-path="url(#p0e589515a0)" style="fill: none; stroke: #249087; stroke-width: 1.5; stroke-linecap: square"/>
   </g>
   <g id="line2d_50">
    <path d="M 59.06 52.014172 
L 63.157615 52.017067 
L 68.691805 52.12654 
L 68.691805 52.12654 
" clip-path="url(#p0e589515a0)" style="fill: none; stroke: #249087; stroke-width: 1.5; stroke-linecap: square"/>
   </g>
   <g id="line2d_51">
    <path d="M 59.06 52.014172 
L 63.167256 52.017124 
L 69.947121 52.169042 
L 70.618165 52.19425 
L 70.618165 52.19425 
" clip-path="url(#p0e589515a0)" style="fill: none; stroke: #249087; stroke-width: 1.5; stroke-linecap: square"/>
   </g>
   <g id="line2d_52">
    <path d="M 59.06 52.014172 
L 63.176897 52.017183 
L 69.952906 52.169252 
L 72.544526 52.276421 
L 72.544526 52.276421 
" clip-path="url(#p0e589515a0)" style="fill: none; stroke: #249087; stroke-width: 1.5; stroke-linecap: square"/>
   </g>
   <g id="line2d_53">
    <path d="M 59.06 52.014172 
L 63.194252 52.017289 
L 69.98183 52.170303 
L 74.470887 52.373635 
L 74.470887 52.373635 
" clip-path="url(#p0e589515a0)" style="fill: none; stroke: #249087; stroke-width: 1.5; stroke-linecap: square"/>
   </g>
   <g id="line2d_54">
    <path d="M 59.06 52.014172 
L 63.190395 52.017265 
L 69.976045 52.170093 
L 76.397248 52.486715 
L 76.397248 52.486715 
" clip-path="url(#p0e589515a0)" style="fill: none; stroke: #249087; stroke-width: 1.5; stroke-linecap: square"/>
   </g>
   <g id="line2d_55">
    <path d="M 59.06 52.014172 
L 63.205822 52.01736 
L 69.9934 52.170725 
L 77.39803 52.552048 
L 78.323609 52.616653 
L 78.323609 52.616653 
" clip-path="url(#p0e589515a0)" style="fill: none; stroke: #249087; stroke-width: 1.5; stroke-linecap: square"/>
   </g>
   <g id="line2d_56">
    <path d="M 59.06 52.014172 
L 63.217391 52.017433 
L 70.004969 52.171147 
L 77.407672 52.5527 
L 80.24997 52.764582 
L 80.24997 52.764582 
" clip-path="url(#p0e589515a0)" style="fill: none; stroke: #249087; stroke-width: 1.5; stroke-linecap: square"/>
   </g>
   <g id="line2d_57">
    <path d="M 59.06 52.014172 
L 63.225105 52.017482 
L 70.028109 52.171992 
L 77.4096 52.55283 
L 82.176331 52.931755 
L 82.176331 52.931755 
" clip-path="url(#p0e589515a0)" style="fill: none; stroke: #249087; stroke-width: 1.5; stroke-linecap: square"/>
   </g>
   <g id="line2d_58">
    <path d="M 59.06 52.014172 
L 63.246316 52.017617 
L 70.039679 52.172416 
L 77.434668 52.554528 
L 84.052556 53.114362 
L 84.102692 53.119522 
L 84.102692 53.119522 
" clip-path="url(#p0e589515a0)" style="fill: none; stroke: #249087; stroke-width: 1.5; stroke-linecap: square"/>
   </g>
   <g id="line2d_59">
    <path d="M 59.06 52.014172 
L 63.244388 52.017605 
L 70.047392 52.172698 
L 77.444309 52.555182 
L 84.058341 53.114957 
L 86.029053 53.329299 
L 86.029053 53.329299 
" clip-path="url(#p0e589515a0)" style="fill: none; stroke: #249087; stroke-width: 1.5; stroke-linecap: square"/>
   </g>
   <g id="line2d_60">
    <path d="M 59.06 52.014172 
L 63.254029 52.017667 
L 70.051248 52.17284 
L 77.455879 52.555967 
L 84.079552 53.117139 
L 87.955414 53.562531 
L 87.955414 53.562531 
" clip-path="url(#p0e589515a0)" style="fill: none; stroke: #249087; stroke-width: 1.5; stroke-linecap: square"/>
   </g>
   <g id="line2d_61">
    <path d="M 59.06 52.014172 
L 63.255957 52.01768 
L 70.074388 52.173689 
L 77.448166 52.555443 
L 84.050628 53.114164 
L 89.881774 53.820627 
L 89.881774 53.820627 
" clip-path="url(#p0e589515a0)" style="fill: none; stroke: #249087; stroke-width: 1.5; stroke-linecap: square"/>
   </g>
   <g id="line2d_62">
    <path d="M 59.06 52.014172 
L 63.288738 52.017896 
L 70.107169 52.174896 
L 77.482875 52.557801 
L 84.10462 53.11972 
L 90.037966 53.842685 
L 91.808135 54.104894 
L 91.808135 54.104894 
" clip-path="url(#p0e589515a0)" style="fill: none; stroke: #249087; stroke-width: 1.5; stroke-linecap: square"/>
   </g>
   <g id="line2d_63">
    <path d="M 59.06 52.014172 
L 63.294523 52.017935 
L 70.097527 52.174541 
L 77.490588 52.558325 
L 84.085337 53.117734 
L 90.020611 53.840225 
L 93.734496 54.416434 
L 93.734496 54.416434 
" clip-path="url(#p0e589515a0)" style="fill: none; stroke: #249087; stroke-width: 1.5; stroke-linecap: square"/>
   </g>
   <g id="line2d_64">
    <path d="M 59.06 52.014172 
L 63.309949 52.01804 
L 70.124523 52.175537 
L 77.525297 52.56069 
L 84.120046 53.121311 
L 90.05532 53.845146 
L 95.587582 54.742603 
L 95.660857 54.756033 
L 95.660857 54.756033 
" clip-path="url(#p0e589515a0)" style="fill: none; stroke: #249087; stroke-width: 1.5; stroke-linecap: square"/>
   </g>
   <g id="line2d_65">
    <path d="M 59.06 52.014172 
L 63.302236 52.017987 
L 70.12838 52.17568 
L 77.494445 52.558588 
L 84.089194 53.118131 
L 90.028324 53.841318 
L 95.543232 54.734493 
L 97.587218 55.124023 
L 97.587218 55.124023 
" clip-path="url(#p0e589515a0)" style="fill: none; stroke: #249087; stroke-width: 1.5; stroke-linecap: square"/>
   </g>
   <g id="line2d_66">
    <path d="M 59.06 51.955012 
L 59.06 51.955012 
" clip-path="url(#p0e589515a0)" style="fill: none; stroke: #249087; stroke-width: 1.5; stroke-linecap: square"/>
   </g>
   <g id="line2d_67">
    <path d="M 59.06 51.955012 
L 60.986361 51.957684 
L 60.986361 51.957684 
" clip-path="url(#p0e589515a0)" style="fill: none; stroke: #249087; stroke-width: 1.5; stroke-linecap: square"/>
   </g>
   <g id="line2d_68">
    <path d="M 59.06 51.955012 
L 62.912722 51.9603 
L 62.912722 51.9603 
" clip-path="url(#p0e589515a0)" style="fill: none; stroke: #249087; stroke-width: 1.5; stroke-linecap: square"/>
   </g>
   <g id="line2d_69">
    <path d="M 59.06 51.955012 
L 63.404436 51.959282 
L 64.839083 51.949954 
L 64.839083 51.949954 
" clip-path="url(#p0e589515a0)" style="fill: none; stroke: #249087; stroke-width: 1.5; stroke-linecap: square"/>
   </g>
   <g id="line2d_70">
    <path d="M 59.06 51.955012 
L 63.417934 51.959238 
L 66.765444 51.925124 
L 66.765444 51.925124 
" clip-path="url(#p0e589515a0)" style="fill: none; stroke: #249087; stroke-width: 1.5; stroke-linecap: square"/>
   </g>
   <g id="line2d_71">
    <path d="M 59.06 51.955012 
L 63.427575 51.959206 
L 68.691805 51.889881 
L 68.691805 51.889881 
" clip-path="url(#p0e589515a0)" style="fill: none; stroke: #249087; stroke-width: 1.5; stroke-linecap: square"/>
   </g>
   <g id="line2d_72">
    <path d="M 59.06 51.955012 
L 63.44493 51.959147 
L 70.618165 51.846108 
L 70.618165 51.846108 
" clip-path="url(#p0e589515a0)" style="fill: none; stroke: #249087; stroke-width: 1.5; stroke-linecap: square"/>
   </g>
   <g id="line2d_73">
    <path d="M 59.06 51.955012 
L 63.446858 51.959141 
L 71.640159 51.819753 
L 72.544526 51.794732 
L 72.544526 51.794732 
" clip-path="url(#p0e589515a0)" style="fill: none; stroke: #249087; stroke-width: 1.5; stroke-linecap: square"/>
   </g>
   <g id="line2d_74">
    <path d="M 59.06 51.955012 
L 63.456499 51.959107 
L 71.647872 51.819546 
L 74.470887 51.736442 
L 74.470887 51.736442 
" clip-path="url(#p0e589515a0)" style="fill: none; stroke: #249087; stroke-width: 1.5; stroke-linecap: square"/>
   </g>
   <g id="line2d_75">
    <path d="M 59.06 51.955012 
L 63.468069 51.959067 
L 71.676796 51.818769 
L 76.397248 51.671896 
L 76.397248 51.671896 
" clip-path="url(#p0e589515a0)" style="fill: none; stroke: #249087; stroke-width: 1.5; stroke-linecap: square"/>
   </g>
   <g id="line2d_76">
    <path d="M 59.06 51.955012 
L 63.475782 51.95904 
L 71.690294 51.818406 
L 78.323609 51.601792 
L 78.323609 51.601792 
" clip-path="url(#p0e589515a0)" style="fill: none; stroke: #249087; stroke-width: 1.5; stroke-linecap: square"/>
   </g>
   <g id="line2d_77">
    <path d="M 59.06 51.955012 
L 63.493137 51.958977 
L 71.723075 51.817524 
L 80.24997 51.526901 
L 80.24997 51.526901 
" clip-path="url(#p0e589515a0)" style="fill: none; stroke: #249087; stroke-width: 1.5; stroke-linecap: square"/>
   </g>
   <g id="line2d_78">
    <path d="M 59.06 51.955012 
L 63.502778 51.958942 
L 71.74043 51.817056 
L 82.176331 51.448077 
L 82.176331 51.448077 
" clip-path="url(#p0e589515a0)" style="fill: none; stroke: #249087; stroke-width: 1.5; stroke-linecap: square"/>
   </g>
   <g id="line2d_79">
    <path d="M 59.06 51.955012 
L 63.522061 51.95887 
L 71.769354 51.816274 
L 83.776811 51.380282 
L 84.102692 51.366281 
L 84.102692 51.366281 
" clip-path="url(#p0e589515a0)" style="fill: none; stroke: #249087; stroke-width: 1.5; stroke-linecap: square"/>
   </g>
   <g id="line2d_80">
    <path d="M 59.06 51.955012 
L 63.541344 51.958796 
L 71.802135 51.815386 
L 83.815377 51.378628 
L 86.029053 51.282585 
L 86.029053 51.282585 
" clip-path="url(#p0e589515a0)" style="fill: none; stroke: #249087; stroke-width: 1.5; stroke-linecap: square"/>
   </g>
   <g id="line2d_81">
    <path d="M 59.06 51.955012 
L 63.543272 51.958789 
L 71.786709 51.815804 
L 83.819233 51.378463 
L 87.955414 51.198199 
L 87.955414 51.198199 
" clip-path="url(#p0e589515a0)" style="fill: none; stroke: #249087; stroke-width: 1.5; stroke-linecap: square"/>
   </g>
   <g id="line2d_82">
    <path d="M 59.06 51.955012 
L 63.564484 51.958706 
L 71.832988 51.814549 
L 83.865512 51.376477 
L 89.881774 51.114484 
L 89.881774 51.114484 
" clip-path="url(#p0e589515a0)" style="fill: none; stroke: #249087; stroke-width: 1.5; stroke-linecap: square"/>
   </g>
   <g id="line2d_83">
    <path d="M 59.06 51.955012 
L 63.550986 51.958759 
L 71.811776 51.815125 
L 83.842373 51.37747 
L 91.808135 51.032986 
L 91.808135 51.032986 
" clip-path="url(#p0e589515a0)" style="fill: none; stroke: #249087; stroke-width: 1.5; stroke-linecap: square"/>
   </g>
   <g id="line2d_84">
    <path d="M 59.06 51.955012 
L 63.572197 51.958675 
L 71.867697 51.813605 
L 83.911791 51.37449 
L 93.734496 50.955469 
L 93.734496 50.955469 
" clip-path="url(#p0e589515a0)" style="fill: none; stroke: #249087; stroke-width: 1.5; stroke-linecap: square"/>
   </g>
   <g id="line2d_85">
    <path d="M 59.06 51.955012 
L 63.603049 51.958549 
L 71.919761 51.812184 
L 84.010134 51.370263 
L 95.660857 50.883965 
L 95.660857 50.883965 
" clip-path="url(#p0e589515a0)" style="fill: none; stroke: #249087; stroke-width: 1.5; stroke-linecap: square"/>
   </g>
   <g id="line2d_86">
    <path d="M 59.06 51.955012 
L 63.610762 51.958516 
L 71.902406 51.812658 
L 83.973496 51.371838 
L 97.587218 50.820836 
L 97.587218 50.820836 
" clip-path="url(#p0e589515a0)" style="fill: none; stroke: #249087; stroke-width: 1.5; stroke-linecap: square"/>
   </g>
   <g id="line2d_87">
    <path d="M 59.06 29.575278 
L 59.06 29.575278 
" clip-path="url(#p0e589515a0)" style="fill: none; stroke: #ff0000; stroke-width: 1.5; stroke-linecap: square"/>
   </g>
   <g id="line2d_88">
    <path d="M 59.06 29.575278 
L 60.986361 29.576787 
L 60.986361 29.576787 
" clip-path="url(#p0e589515a0)" style="fill: none; stroke: #ff0000; stroke-width: 1.5; stroke-linecap: square"/>
   </g>
   <g id="line2d_89">
    <path d="M 59.06 29.575278 
L 62.912722 29.581311 
L 62.912722 29.581311 
" clip-path="url(#p0e589515a0)" style="fill: none; stroke: #ff0000; stroke-width: 1.5; stroke-linecap: square"/>
   </g>
   <g id="line2d_90">
    <path d="M 59.06 29.575278 
L 64.839083 29.588838 
L 64.839083 29.588838 
" clip-path="url(#p0e589515a0)" style="fill: none; stroke: #ff0000; stroke-width: 1.5; stroke-linecap: square"/>
   </g>
   <g id="line2d_91">
    <path d="M 59.06 29.575278 
L 66.765444 29.599346 
L 66.765444 29.599346 
" clip-path="url(#p0e589515a0)" style="fill: none; stroke: #ff0000; stroke-width: 1.5; stroke-linecap: square"/>
   </g>
   <g id="line2d_92">
    <path d="M 59.06 29.575278 
L 68.691805 29.612805 
L 68.691805 29.612805 
" clip-path="url(#p0e589515a0)" style="fill: none; stroke: #ff0000; stroke-width: 1.5; stroke-linecap: square"/>
   </g>
   <g id="line2d_93">
    <path d="M 59.06 29.575278 
L 70.618165 29.629178 
L 70.618165 29.629178 
" clip-path="url(#p0e589515a0)" style="fill: none; stroke: #ff0000; stroke-width: 1.5; stroke-linecap: square"/>
   </g>
   <g id="line2d_94">
    <path d="M 59.06 29.575278 
L 72.544526 29.648418 
L 72.544526 29.648418 
" clip-path="url(#p0e589515a0)" style="fill: none; stroke: #ff0000; stroke-width: 1.5; stroke-linecap: square"/>
   </g>
   <g id="line2d_95">
    <path d="M 59.06 29.575278 
L 74.470887 29.670467 
L 74.470887 29.670467 
" clip-path="url(#p0e589515a0)" style="fill: none; stroke: #ff0000; stroke-width: 1.5; stroke-linecap: square"/>
   </g>
   <g id="line2d_96">
    <path d="M 59.06 29.575278 
L 75.737773 29.686469 
L 76.397248 29.695262 
L 76.397248 29.695262 
" clip-path="url(#p0e589515a0)" style="fill: none; stroke: #ff0000; stroke-width: 1.5; stroke-linecap: square"/>
   </g>
   <g id="line2d_97">
    <path d="M 59.06 29.575278 
L 75.739702 29.686494 
L 78.323609 29.722725 
L 78.323609 29.722725 
" clip-path="url(#p0e589515a0)" style="fill: none; stroke: #ff0000; stroke-width: 1.5; stroke-linecap: square"/>
   </g>
   <g id="line2d_98">
    <path d="M 59.06 29.575278 
L 75.731988 29.686393 
L 80.24997 29.752774 
L 80.24997 29.752774 
" clip-path="url(#p0e589515a0)" style="fill: none; stroke: #ff0000; stroke-width: 1.5; stroke-linecap: square"/>
   </g>
   <g id="line2d_99">
    <path d="M 59.06 29.575278 
L 75.743558 29.686545 
L 82.176331 29.785314 
L 82.176331 29.785314 
" clip-path="url(#p0e589515a0)" style="fill: none; stroke: #ff0000; stroke-width: 1.5; stroke-linecap: square"/>
   </g>
   <g id="line2d_100">
    <path d="M 59.06 29.575278 
L 75.73006 29.686368 
L 84.102692 29.820241 
L 84.102692 29.820241 
" clip-path="url(#p0e589515a0)" style="fill: none; stroke: #ff0000; stroke-width: 1.5; stroke-linecap: square"/>
   </g>
   <g id="line2d_101">
    <path d="M 59.06 29.575278 
L 75.743558 29.686545 
L 86.029053 29.857443 
L 86.029053 29.857443 
" clip-path="url(#p0e589515a0)" style="fill: none; stroke: #ff0000; stroke-width: 1.5; stroke-linecap: square"/>
   </g>
   <g id="line2d_102">
    <path d="M 59.06 29.575278 
L 75.720419 29.686242 
L 87.955414 29.896799 
L 87.955414 29.896799 
" clip-path="url(#p0e589515a0)" style="fill: none; stroke: #ff0000; stroke-width: 1.5; stroke-linecap: square"/>
   </g>
   <g id="line2d_103">
    <path d="M 59.06 29.575278 
L 75.720419 29.686242 
L 89.881774 29.938181 
L 89.881774 29.938181 
" clip-path="url(#p0e589515a0)" style="fill: none; stroke: #ff0000; stroke-width: 1.5; stroke-linecap: square"/>
   </g>
   <g id="line2d_104">
    <path d="M 59.06 29.575278 
L 75.745486 29.68657 
L 91.808135 29.981456 
L 91.808135 29.981456 
" clip-path="url(#p0e589515a0)" style="fill: none; stroke: #ff0000; stroke-width: 1.5; stroke-linecap: square"/>
   </g>
   <g id="line2d_105">
    <path d="M 59.06 29.575278 
L 75.720419 29.686242 
L 93.734496 30.026488 
L 93.734496 30.026488 
" clip-path="url(#p0e589515a0)" style="fill: none; stroke: #ff0000; stroke-width: 1.5; stroke-linecap: square"/>
   </g>
   <g id="line2d_106">
    <path d="M 59.06 29.575278 
L 75.73006 29.686368 
L 94.341907 30.04103 
L 95.660857 30.073145 
L 95.660857 30.073145 
" clip-path="url(#p0e589515a0)" style="fill: none; stroke: #ff0000; stroke-width: 1.5; stroke-linecap: square"/>
   </g>
   <g id="line2d_107">
    <path d="M 59.06 29.575278 
L 75.720419 29.686242 
L 94.347692 30.04117 
L 97.587218 30.121304 
L 97.587218 30.121304 
" clip-path="url(#p0e589515a0)" style="fill: none; stroke: #ff0000; stroke-width: 1.5; stroke-linecap: square"/>
   </g>
   <g id="patch_3">
    <path d="M 59.06 255.92 
L 59.06 14.76 
" style="fill: none; stroke: #000000; stroke-width: 0.8; stroke-linejoin: miter; stroke-linecap: square"/>
   </g>
   <g id="patch_4">
    <path d="M 97.2 255.92 
L 97.2 14.76 
" style="fill: none; stroke: #000000; stroke-width: 0.8; stroke-linejoin: miter; stroke-linecap: square"/>
   </g>
   <g id="patch_5">
    <path d="M 59.06 255.92 
L 97.2 255.92 
" style="fill: none; stroke: #000000; stroke-width: 0.8; stroke-linejoin: miter; stroke-linecap: square"/>
   </g>
   <g id="patch_6">
    <path d="M 59.06 14.76 
L 97.2 14.76 
" style="fill: none; stroke: #000000; stroke-width: 0.8; stroke-linejoin: miter; stroke-linecap: square"/>
   </g>
   <g id="text_5">
    <!-- X -->
    <g transform="translate(84.200625 272.784539) scale(0.18 -0.18)">
     <defs>
      <path id="TimesNewRomanPSMT-58" d="M 2613 2347 
L 3522 991 
Q 3900 428 4083 279 
Q 4266 131 4547 116 
L 4547 0 
L 2728 0 
L 2728 116 
Q 2909 119 2997 153 
Q 3063 181 3105 239 
Q 3147 297 3147 356 
Q 3147 428 3119 500 
Q 3097 553 2947 775 
L 2228 1863 
L 1341 725 
Q 1200 544 1172 483 
Q 1144 422 1144 356 
Q 1144 256 1228 190 
Q 1313 125 1550 116 
L 1550 0 
L 47 0 
L 47 116 
Q 206 131 322 181 
Q 516 263 691 400 
Q 866 538 1091 822 
L 2091 2084 
L 1256 3306 
Q 916 3803 678 3958 
Q 441 4113 131 4122 
L 131 4238 
L 2091 4238 
L 2091 4122 
Q 1841 4113 1748 4041 
Q 1656 3969 1656 3881 
Q 1656 3766 1806 3544 
L 2456 2572 
L 3209 3525 
Q 3341 3694 3370 3756 
Q 3400 3819 3400 3884 
Q 3400 3950 3363 4000 
Q 3316 4066 3244 4092 
Q 3172 4119 2947 4122 
L 2947 4238 
L 4450 4238 
L 4450 4122 
Q 4272 4113 4159 4066 
Q 3991 3994 3850 3872 
Q 3709 3750 3453 3422 
L 2613 2347 
z
" transform="scale(0.015625)"/>
     </defs>
     <use xlink:href="#TimesNewRomanPSMT-58"/>
    </g>
   </g>
  </g>
 </g>
 <defs>
  <clipPath id="p0e589515a0">
   <rect x="59.06" y="14.76" width="38.14" height="241.16"/>
  </clipPath>
 </defs>
</svg>
