<?xml version="1.0" encoding="utf-8" standalone="no"?>
<!DOCTYPE svg PUBLIC "-//W3C//DTD SVG 1.1//EN"
  "http://www.w3.org/Graphics/SVG/1.1/DTD/svg11.dtd">
<svg xmlns:xlink="http://www.w3.org/1999/xlink" width="108pt" height="288pt" viewBox="0 0 108 288" xmlns="http://www.w3.org/2000/svg" version="1.1">
 <metadata>
  <rdf:RDF xmlns:dc="http://purl.org/dc/elements/1.1/" xmlns:cc="http://creativecommons.org/ns#" xmlns:rdf="http://www.w3.org/1999/02/22-rdf-syntax-ns#">
   <cc:Work>
    <dc:type rdf:resource="http://purl.org/dc/dcmitype/StillImage"/>
    <dc:date>2024-12-16T17:12:05.033068</dc:date>
    <dc:format>image/svg+xml</dc:format>
    <dc:creator>
     <cc:Agent>
      <dc:title>Matplotlib v3.9.2, https://matplotlib.org/</dc:title>
     </cc:Agent>
    </dc:creator>
   </cc:Work>
  </rdf:RDF>
 </metadata>
 <defs>
  <style type="text/css">*{stroke-linejoin: round; stroke-linecap: butt}</style>
 </defs>
 <g id="figure_1">
  <g id="patch_1">
   <path d="M 0 288 
L 108 288 
L 108 0 
L 0 0 
z
" style="fill: #ffffff"/>
  </g>
  <g id="axes_1">
   <g id="patch_2">
    <path d="M 59.1275 255.92 
L 97.2 255.92 
L 97.2 14.76 
L 59.1275 14.76 
z
" style="fill: #ffffff"/>
   </g>
   <g id="matplotlib.axis_1">
    <g id="text_1">
     <!-- Γ -->
     <g transform="translate(59.1275 272.41875) scale(0.18 -0.18)">
      <defs>
       <path id="TimesNewRomanPSMT-393" d="M 3516 4238 
L 3531 3247 
L 3409 3247 
Q 3397 3547 3281 3728 
Q 3166 3909 2998 3957 
Q 2831 4006 2516 4006 
L 1328 4006 
L 1328 772 
Q 1328 353 1436 240 
Q 1544 128 1934 116 
L 1934 0 
L 116 0 
L 116 116 
Q 509 128 618 240 
Q 728 353 728 772 
L 728 3466 
Q 728 3884 618 3996 
Q 509 4109 116 4122 
L 116 4238 
L 3516 4238 
z
" transform="scale(0.015625)"/>
      </defs>
      <use xlink:href="#TimesNewRomanPSMT-393"/>
     </g>
    </g>
   </g>
   <g id="matplotlib.axis_2">
    <g id="ytick_1">
     <g id="line2d_1">
      <defs>
       <path id="m35da6326f0" d="M 0 0 
L -3.5 0 
" style="stroke: #000000; stroke-width: 0.8"/>
      </defs>
      <g>
       <use xlink:href="#m35da6326f0" x="59.1275" y="255.92" style="stroke: #000000; stroke-width: 0.8"/>
      </g>
     </g>
     <g id="text_2">
      <!-- 0 -->
      <g transform="translate(47.1275 259.391875) scale(0.1 -0.1)">
       <defs>
        <path id="TimesNewRomanPSMT-30" d="M 231 2094 
Q 231 2819 450 3342 
Q 669 3866 1031 4122 
Q 1313 4325 1613 4325 
Q 2100 4325 2488 3828 
Q 2972 3213 2972 2159 
Q 2972 1422 2759 906 
Q 2547 391 2217 158 
Q 1888 -75 1581 -75 
Q 975 -75 572 641 
Q 231 1244 231 2094 
z
M 844 2016 
Q 844 1141 1059 588 
Q 1238 122 1591 122 
Q 1759 122 1940 273 
Q 2122 425 2216 781 
Q 2359 1319 2359 2297 
Q 2359 3022 2209 3506 
Q 2097 3866 1919 4016 
Q 1791 4119 1609 4119 
Q 1397 4119 1231 3928 
Q 1006 3669 925 3112 
Q 844 2556 844 2016 
z
" transform="scale(0.015625)"/>
       </defs>
       <use xlink:href="#TimesNewRomanPSMT-30"/>
      </g>
     </g>
    </g>
    <g id="ytick_2">
     <g id="line2d_2">
      <g>
       <use xlink:href="#m35da6326f0" x="59.1275" y="14.76" style="stroke: #000000; stroke-width: 0.8"/>
      </g>
     </g>
     <g id="text_3">
      <!-- 6500 -->
      <g transform="translate(32.1275 18.231875) scale(0.1 -0.1)">
       <defs>
        <path id="TimesNewRomanPSMT-36" d="M 2869 4325 
L 2869 4209 
Q 2456 4169 2195 4045 
Q 1934 3922 1679 3669 
Q 1425 3416 1258 3105 
Q 1091 2794 978 2366 
Q 1428 2675 1881 2675 
Q 2316 2675 2634 2325 
Q 2953 1975 2953 1425 
Q 2953 894 2631 456 
Q 2244 -75 1606 -75 
Q 1172 -75 869 213 
Q 275 772 275 1663 
Q 275 2231 503 2743 
Q 731 3256 1154 3653 
Q 1578 4050 1965 4187 
Q 2353 4325 2688 4325 
L 2869 4325 
z
M 925 2138 
Q 869 1716 869 1456 
Q 869 1156 980 804 
Q 1091 453 1309 247 
Q 1469 100 1697 100 
Q 1969 100 2183 356 
Q 2397 613 2397 1088 
Q 2397 1622 2184 2012 
Q 1972 2403 1581 2403 
Q 1463 2403 1327 2353 
Q 1191 2303 925 2138 
z
" transform="scale(0.015625)"/>
        <path id="TimesNewRomanPSMT-35" d="M 2778 4238 
L 2534 3706 
L 1259 3706 
L 981 3138 
Q 1809 3016 2294 2522 
Q 2709 2097 2709 1522 
Q 2709 1188 2573 903 
Q 2438 619 2231 419 
Q 2025 219 1772 97 
Q 1413 -75 1034 -75 
Q 653 -75 479 54 
Q 306 184 306 341 
Q 306 428 378 495 
Q 450 563 559 563 
Q 641 563 702 538 
Q 763 513 909 409 
Q 1144 247 1384 247 
Q 1750 247 2026 523 
Q 2303 800 2303 1197 
Q 2303 1581 2056 1914 
Q 1809 2247 1375 2428 
Q 1034 2569 447 2591 
L 1259 4238 
L 2778 4238 
z
" transform="scale(0.015625)"/>
       </defs>
       <use xlink:href="#TimesNewRomanPSMT-36"/>
       <use xlink:href="#TimesNewRomanPSMT-35" x="50"/>
       <use xlink:href="#TimesNewRomanPSMT-30" x="100"/>
       <use xlink:href="#TimesNewRomanPSMT-30" x="150"/>
      </g>
     </g>
    </g>
    <g id="text_4">
     <!-- Frequency (Hz) -->
     <g transform="translate(24.243438 192.065312) rotate(-90) scale(0.18 -0.18)">
      <defs>
       <path id="TimesNewRomanPSMT-46" d="M 1309 4006 
L 1309 2341 
L 2081 2341 
Q 2347 2341 2470 2458 
Q 2594 2575 2634 2922 
L 2750 2922 
L 2750 1488 
L 2634 1488 
Q 2631 1734 2570 1850 
Q 2509 1966 2401 2023 
Q 2294 2081 2081 2081 
L 1309 2081 
L 1309 750 
Q 1309 428 1350 325 
Q 1381 247 1481 191 
Q 1619 116 1769 116 
L 1922 116 
L 1922 0 
L 103 0 
L 103 116 
L 253 116 
Q 516 116 634 269 
Q 709 369 709 750 
L 709 3488 
Q 709 3809 669 3913 
Q 638 3991 541 4047 
Q 406 4122 253 4122 
L 103 4122 
L 103 4238 
L 3256 4238 
L 3297 3306 
L 3188 3306 
Q 3106 3603 2998 3742 
Q 2891 3881 2733 3943 
Q 2575 4006 2244 4006 
L 1309 4006 
z
" transform="scale(0.015625)"/>
       <path id="TimesNewRomanPSMT-72" d="M 1038 2947 
L 1038 2303 
Q 1397 2947 1775 2947 
Q 1947 2947 2059 2842 
Q 2172 2738 2172 2600 
Q 2172 2478 2090 2393 
Q 2009 2309 1897 2309 
Q 1788 2309 1652 2417 
Q 1516 2525 1450 2525 
Q 1394 2525 1328 2463 
Q 1188 2334 1038 2041 
L 1038 669 
Q 1038 431 1097 309 
Q 1138 225 1241 169 
Q 1344 113 1538 113 
L 1538 0 
L 72 0 
L 72 113 
Q 291 113 397 181 
Q 475 231 506 341 
Q 522 394 522 644 
L 522 1753 
Q 522 2253 501 2348 
Q 481 2444 426 2487 
Q 372 2531 291 2531 
Q 194 2531 72 2484 
L 41 2597 
L 906 2947 
L 1038 2947 
z
" transform="scale(0.015625)"/>
       <path id="TimesNewRomanPSMT-65" d="M 681 1784 
Q 678 1147 991 784 
Q 1303 422 1725 422 
Q 2006 422 2214 576 
Q 2422 731 2563 1106 
L 2659 1044 
Q 2594 616 2278 264 
Q 1963 -88 1488 -88 
Q 972 -88 605 314 
Q 238 716 238 1394 
Q 238 2128 614 2539 
Q 991 2950 1559 2950 
Q 2041 2950 2350 2633 
Q 2659 2316 2659 1784 
L 681 1784 
z
M 681 1966 
L 2006 1966 
Q 1991 2241 1941 2353 
Q 1863 2528 1708 2628 
Q 1553 2728 1384 2728 
Q 1125 2728 920 2526 
Q 716 2325 681 1966 
z
" transform="scale(0.015625)"/>
       <path id="TimesNewRomanPSMT-71" d="M 2734 2947 
L 2734 -734 
Q 2734 -1009 2771 -1087 
Q 2809 -1166 2889 -1209 
Q 2969 -1253 3200 -1253 
L 3200 -1369 
L 1756 -1369 
L 1756 -1253 
L 1816 -1253 
Q 1991 -1253 2081 -1203 
Q 2144 -1169 2181 -1080 
Q 2219 -991 2219 -734 
L 2219 497 
Q 1934 159 1721 35 
Q 1509 -88 1281 -88 
Q 866 -88 539 290 
Q 213 669 213 1303 
Q 213 2031 644 2489 
Q 1075 2947 1684 2947 
Q 1863 2947 2013 2897 
Q 2163 2847 2281 2747 
Q 2463 2834 2628 2947 
L 2734 2947 
z
M 2219 694 
L 2219 2038 
Q 2219 2272 2158 2406 
Q 2097 2541 1940 2634 
Q 1784 2728 1588 2728 
Q 1238 2728 988 2431 
Q 738 2134 738 1531 
Q 738 953 992 653 
Q 1247 353 1606 353 
Q 1791 353 1934 433 
Q 2078 513 2219 694 
z
" transform="scale(0.015625)"/>
       <path id="TimesNewRomanPSMT-75" d="M 2709 2863 
L 2709 1128 
Q 2709 631 2732 520 
Q 2756 409 2807 365 
Q 2859 322 2928 322 
Q 3025 322 3147 375 
L 3191 266 
L 2334 -88 
L 2194 -88 
L 2194 519 
Q 1825 119 1631 15 
Q 1438 -88 1222 -88 
Q 981 -88 804 51 
Q 628 191 559 409 
Q 491 628 491 1028 
L 491 2306 
Q 491 2509 447 2587 
Q 403 2666 317 2708 
Q 231 2750 6 2747 
L 6 2863 
L 1009 2863 
L 1009 947 
Q 1009 547 1148 422 
Q 1288 297 1484 297 
Q 1619 297 1789 381 
Q 1959 466 2194 703 
L 2194 2325 
Q 2194 2569 2105 2655 
Q 2016 2741 1734 2747 
L 1734 2863 
L 2709 2863 
z
" transform="scale(0.015625)"/>
       <path id="TimesNewRomanPSMT-6e" d="M 1034 2341 
Q 1538 2947 1994 2947 
Q 2228 2947 2397 2830 
Q 2566 2713 2666 2444 
Q 2734 2256 2734 1869 
L 2734 647 
Q 2734 375 2778 278 
Q 2813 200 2889 156 
Q 2966 113 3172 113 
L 3172 0 
L 1756 0 
L 1756 113 
L 1816 113 
Q 2016 113 2095 173 
Q 2175 234 2206 353 
Q 2219 400 2219 647 
L 2219 1819 
Q 2219 2209 2117 2386 
Q 2016 2563 1775 2563 
Q 1403 2563 1034 2156 
L 1034 647 
Q 1034 356 1069 288 
Q 1113 197 1189 155 
Q 1266 113 1500 113 
L 1500 0 
L 84 0 
L 84 113 
L 147 113 
Q 366 113 442 223 
Q 519 334 519 647 
L 519 1709 
Q 519 2225 495 2337 
Q 472 2450 423 2490 
Q 375 2531 294 2531 
Q 206 2531 84 2484 
L 38 2597 
L 900 2947 
L 1034 2947 
L 1034 2341 
z
" transform="scale(0.015625)"/>
       <path id="TimesNewRomanPSMT-63" d="M 2631 1088 
Q 2516 522 2178 217 
Q 1841 -88 1431 -88 
Q 944 -88 581 321 
Q 219 731 219 1428 
Q 219 2103 620 2525 
Q 1022 2947 1584 2947 
Q 2006 2947 2278 2723 
Q 2550 2500 2550 2259 
Q 2550 2141 2473 2067 
Q 2397 1994 2259 1994 
Q 2075 1994 1981 2113 
Q 1928 2178 1911 2362 
Q 1894 2547 1784 2644 
Q 1675 2738 1481 2738 
Q 1169 2738 978 2506 
Q 725 2200 725 1697 
Q 725 1184 976 792 
Q 1228 400 1656 400 
Q 1963 400 2206 609 
Q 2378 753 2541 1131 
L 2631 1088 
z
" transform="scale(0.015625)"/>
       <path id="TimesNewRomanPSMT-79" d="M 38 2863 
L 1372 2863 
L 1372 2747 
L 1306 2747 
Q 1166 2747 1095 2686 
Q 1025 2625 1025 2534 
Q 1025 2413 1128 2197 
L 1825 753 
L 2466 2334 
Q 2519 2463 2519 2588 
Q 2519 2644 2497 2672 
Q 2472 2706 2419 2726 
Q 2366 2747 2231 2747 
L 2231 2863 
L 3163 2863 
L 3163 2747 
Q 3047 2734 2984 2696 
Q 2922 2659 2847 2556 
Q 2819 2513 2741 2316 
L 1575 -541 
Q 1406 -956 1132 -1168 
Q 859 -1381 606 -1381 
Q 422 -1381 303 -1275 
Q 184 -1169 184 -1031 
Q 184 -900 270 -820 
Q 356 -741 506 -741 
Q 609 -741 788 -809 
Q 913 -856 944 -856 
Q 1038 -856 1148 -759 
Q 1259 -663 1372 -384 
L 1575 113 
L 547 2272 
Q 500 2369 397 2513 
Q 319 2622 269 2659 
Q 197 2709 38 2747 
L 38 2863 
z
" transform="scale(0.015625)"/>
       <path id="TimesNewRomanPSMT-20" transform="scale(0.015625)"/>
       <path id="TimesNewRomanPSMT-28" d="M 1988 -1253 
L 1988 -1369 
Q 1516 -1131 1200 -813 
Q 750 -359 506 256 
Q 263 872 263 1534 
Q 263 2503 741 3301 
Q 1219 4100 1988 4444 
L 1988 4313 
Q 1603 4100 1356 3731 
Q 1109 3363 987 2797 
Q 866 2231 866 1616 
Q 866 947 969 400 
Q 1050 -31 1165 -292 
Q 1281 -553 1476 -793 
Q 1672 -1034 1988 -1253 
z
" transform="scale(0.015625)"/>
       <path id="TimesNewRomanPSMT-48" d="M 1316 2272 
L 3284 2272 
L 3284 3484 
Q 3284 3809 3244 3913 
Q 3213 3991 3113 4047 
Q 2978 4122 2828 4122 
L 2678 4122 
L 2678 4238 
L 4491 4238 
L 4491 4122 
L 4341 4122 
Q 4191 4122 4056 4050 
Q 3956 4000 3920 3898 
Q 3884 3797 3884 3484 
L 3884 750 
Q 3884 428 3925 325 
Q 3956 247 4053 191 
Q 4191 116 4341 116 
L 4491 116 
L 4491 0 
L 2678 0 
L 2678 116 
L 2828 116 
Q 3088 116 3206 269 
Q 3284 369 3284 750 
L 3284 2041 
L 1316 2041 
L 1316 750 
Q 1316 428 1356 325 
Q 1388 247 1488 191 
Q 1622 116 1772 116 
L 1925 116 
L 1925 0 
L 109 0 
L 109 116 
L 259 116 
Q 522 116 641 269 
Q 716 369 716 750 
L 716 3484 
Q 716 3809 675 3913 
Q 644 3991 547 4047 
Q 409 4122 259 4122 
L 109 4122 
L 109 4238 
L 1925 4238 
L 1925 4122 
L 1772 4122 
Q 1622 4122 1488 4050 
Q 1391 4000 1353 3898 
Q 1316 3797 1316 3484 
L 1316 2272 
z
" transform="scale(0.015625)"/>
       <path id="TimesNewRomanPSMT-7a" d="M 2688 878 
L 2653 0 
L 128 0 
L 128 113 
L 2028 2644 
L 1091 2644 
Q 788 2644 694 2605 
Q 600 2566 541 2456 
Q 456 2300 444 2069 
L 319 2069 
L 338 2863 
L 2738 2863 
L 2738 2747 
L 819 209 
L 1863 209 
Q 2191 209 2308 264 
Q 2425 319 2497 456 
Q 2547 556 2581 878 
L 2688 878 
z
" transform="scale(0.015625)"/>
       <path id="TimesNewRomanPSMT-29" d="M 144 4313 
L 144 4444 
Q 619 4209 934 3891 
Q 1381 3434 1625 2820 
Q 1869 2206 1869 1541 
Q 1869 572 1392 -226 
Q 916 -1025 144 -1369 
L 144 -1253 
Q 528 -1038 776 -670 
Q 1025 -303 1145 264 
Q 1266 831 1266 1447 
Q 1266 2113 1163 2663 
Q 1084 3094 967 3353 
Q 850 3613 656 3853 
Q 463 4094 144 4313 
z
" transform="scale(0.015625)"/>
      </defs>
      <use xlink:href="#TimesNewRomanPSMT-46"/>
      <use xlink:href="#TimesNewRomanPSMT-72" x="55.615234"/>
      <use xlink:href="#TimesNewRomanPSMT-65" x="88.916016"/>
      <use xlink:href="#TimesNewRomanPSMT-71" x="133.300781"/>
      <use xlink:href="#TimesNewRomanPSMT-75" x="183.300781"/>
      <use xlink:href="#TimesNewRomanPSMT-65" x="233.300781"/>
      <use xlink:href="#TimesNewRomanPSMT-6e" x="277.685547"/>
      <use xlink:href="#TimesNewRomanPSMT-63" x="327.685547"/>
      <use xlink:href="#TimesNewRomanPSMT-79" x="372.070312"/>
      <use xlink:href="#TimesNewRomanPSMT-20" x="422.070312"/>
      <use xlink:href="#TimesNewRomanPSMT-28" x="447.070312"/>
      <use xlink:href="#TimesNewRomanPSMT-48" x="480.371094"/>
      <use xlink:href="#TimesNewRomanPSMT-7a" x="552.587891"/>
      <use xlink:href="#TimesNewRomanPSMT-29" x="596.972656"/>
     </g>
    </g>
   </g>
   <g id="line2d_3">
    <path d="M 59.1275 255.919946 
L 59.1275 255.919946 
" clip-path="url(#pc959fbd431)" style="fill: none; stroke: #2e54a1; stroke-width: 1.5; stroke-linecap: square"/>
   </g>
   <g id="line2d_4">
    <path d="M 59.1275 255.919946 
L 61.050452 251.764908 
L 61.050452 251.764908 
" clip-path="url(#pc959fbd431)" style="fill: none; stroke: #2e54a1; stroke-width: 1.5; stroke-linecap: square"/>
   </g>
   <g id="line2d_5">
    <path d="M 59.1275 255.919946 
L 62.973403 247.625005 
L 62.973403 247.625005 
" clip-path="url(#pc959fbd431)" style="fill: none; stroke: #2e54a1; stroke-width: 1.5; stroke-linecap: square"/>
   </g>
   <g id="line2d_6">
    <path d="M 59.1275 255.919946 
L 64.896355 243.516375 
L 64.896355 243.516375 
" clip-path="url(#pc959fbd431)" style="fill: none; stroke: #2e54a1; stroke-width: 1.5; stroke-linecap: square"/>
   </g>
   <g id="line2d_7">
    <path d="M 59.1275 255.919946 
L 66.819307 239.456945 
L 66.819307 239.456945 
" clip-path="url(#pc959fbd431)" style="fill: none; stroke: #2e54a1; stroke-width: 1.5; stroke-linecap: square"/>
   </g>
   <g id="line2d_8">
    <path d="M 59.1275 255.919946 
L 67.904937 237.194566 
L 68.742258 235.467515 
L 68.742258 235.467515 
" clip-path="url(#pc959fbd431)" style="fill: none; stroke: #2e54a1; stroke-width: 1.5; stroke-linecap: square"/>
   </g>
   <g id="line2d_9">
    <path d="M 59.1275 255.919946 
L 67.904937 237.194566 
L 70.66521 231.572873 
L 70.66521 231.572873 
" clip-path="url(#pc959fbd431)" style="fill: none; stroke: #2e54a1; stroke-width: 1.5; stroke-linecap: square"/>
   </g>
   <g id="line2d_10">
    <path d="M 59.1275 255.919946 
L 67.912636 237.178611 
L 72.183937 228.583346 
L 72.588161 227.802881 
L 72.588161 227.802881 
" clip-path="url(#pc959fbd431)" style="fill: none; stroke: #2e54a1; stroke-width: 1.5; stroke-linecap: square"/>
   </g>
   <g id="line2d_11">
    <path d="M 59.1275 255.919946 
L 67.904937 237.194566 
L 72.170463 228.60948 
L 74.511113 224.193243 
L 74.511113 224.193243 
" clip-path="url(#pc959fbd431)" style="fill: none; stroke: #2e54a1; stroke-width: 1.5; stroke-linecap: square"/>
   </g>
   <g id="line2d_12">
    <path d="M 59.1275 255.919946 
L 67.910712 237.182599 
L 72.172388 228.605746 
L 75.377308 222.630536 
L 76.434065 220.785359 
L 76.434065 220.785359 
" clip-path="url(#pc959fbd431)" style="fill: none; stroke: #2e54a1; stroke-width: 1.5; stroke-linecap: square"/>
   </g>
   <g id="line2d_13">
    <path d="M 59.1275 255.919946 
L 67.904937 237.194566 
L 72.178163 228.594545 
L 75.392707 222.603149 
L 78.010539 218.173624 
L 78.357016 217.624344 
L 78.357016 217.624344 
" clip-path="url(#pc959fbd431)" style="fill: none; stroke: #2e54a1; stroke-width: 1.5; stroke-linecap: square"/>
   </g>
   <g id="line2d_14">
    <path d="M 59.1275 255.919946 
L 67.914561 237.174622 
L 72.170463 228.60948 
L 75.388857 222.609994 
L 78.014388 218.16747 
L 80.279968 214.754292 
L 80.279968 214.754292 
" clip-path="url(#pc959fbd431)" style="fill: none; stroke: #2e54a1; stroke-width: 1.5; stroke-linecap: square"/>
   </g>
   <g id="line2d_15">
    <path d="M 59.1275 255.919946 
L 67.904937 237.194566 
L 72.178163 228.594545 
L 75.388857 222.609994 
L 78.022088 218.155165 
L 80.285743 214.746151 
L 82.20292 212.210792 
L 82.20292 212.210792 
" clip-path="url(#pc959fbd431)" style="fill: none; stroke: #2e54a1; stroke-width: 1.5; stroke-linecap: square"/>
   </g>
   <g id="line2d_16">
    <path d="M 59.1275 255.919946 
L 67.910712 237.182599 
L 72.164689 228.620682 
L 75.367683 222.64766 
L 77.99514 218.198252 
L 80.272269 214.765152 
L 82.324187 212.061885 
L 84.125871 210.012725 
L 84.125871 210.012725 
" clip-path="url(#pc959fbd431)" style="fill: none; stroke: #2e54a1; stroke-width: 1.5; stroke-linecap: square"/>
   </g>
   <g id="line2d_17">
    <path d="M 59.1275 255.919946 
L 67.912636 237.178611 
L 72.170463 228.60948 
L 75.377308 222.630536 
L 77.99129 218.204412 
L 80.254945 214.789606 
L 82.303013 212.087785 
L 84.243289 209.889752 
L 86.048823 208.157206 
L 86.048823 208.157206 
" clip-path="url(#pc959fbd431)" style="fill: none; stroke: #2e54a1; stroke-width: 1.5; stroke-linecap: square"/>
   </g>
   <g id="line2d_18">
    <path d="M 59.1275 255.919946 
L 67.904937 237.194566 
L 72.178163 228.594545 
L 75.383082 222.620264 
L 78.010539 218.173624 
L 80.291517 214.738013 
L 82.341511 212.040725 
L 84.276012 209.855709 
L 86.152766 208.066287 
L 87.971775 206.620632 
L 87.971775 206.620632 
" clip-path="url(#pc959fbd431)" style="fill: none; stroke: #2e54a1; stroke-width: 1.5; stroke-linecap: square"/>
   </g>
   <g id="line2d_19">
    <path d="M 59.1275 255.919946 
L 67.904937 237.194566 
L 72.185862 228.579614 
L 75.388857 222.609994 
L 78.006689 218.179779 
L 80.285743 214.746151 
L 82.34921 212.03133 
L 84.289486 209.84172 
L 86.168165 208.052896 
L 88.046845 206.566624 
L 89.894726 205.365214 
L 89.894726 205.365214 
" clip-path="url(#pc959fbd431)" style="fill: none; stroke: #2e54a1; stroke-width: 1.5; stroke-linecap: square"/>
   </g>
   <g id="line2d_20">
    <path d="M 59.1275 255.919946 
L 67.897237 237.210524 
L 72.151214 228.646825 
L 75.358059 222.664789 
L 77.975891 218.229063 
L 80.266494 214.7733 
L 82.328037 212.05718 
L 84.258688 209.873719 
L 86.123893 208.091449 
L 88.021821 206.584579 
L 89.985195 205.312348 
L 91.817678 204.347374 
L 91.817678 204.347374 
" clip-path="url(#pc959fbd431)" style="fill: none; stroke: #2e54a1; stroke-width: 1.5; stroke-linecap: square"/>
   </g>
   <g id="line2d_21">
    <path d="M 59.1275 255.919946 
L 67.893388 237.218503 
L 72.155064 228.639355 
L 75.377308 222.630536 
L 78.010539 218.173624 
L 80.297292 214.729877 
L 82.341511 212.040725 
L 84.281786 209.849712 
L 86.152766 208.066287 
L 88.023746 206.583196 
L 89.964022 205.324674 
L 92.042888 204.241704 
L 93.740629 203.52454 
L 93.740629 203.52454 
" clip-path="url(#pc959fbd431)" style="fill: none; stroke: #2e54a1; stroke-width: 1.5; stroke-linecap: square"/>
   </g>
   <g id="line2d_22">
    <path d="M 59.1275 255.919946 
L 67.904937 237.194566 
L 72.183937 228.583346 
L 75.402331 222.586039 
L 78.035562 218.133642 
L 80.303067 214.721745 
L 82.351135 212.028982 
L 84.289486 209.84172 
L 86.154691 208.064612 
L 88.056469 206.55973 
L 89.99482 205.306754 
L 92.079461 204.224791 
L 94.346966 203.299315 
L 95.663581 202.85901 
L 95.663581 202.85901 
" clip-path="url(#pc959fbd431)" style="fill: none; stroke: #2e54a1; stroke-width: 1.5; stroke-linecap: square"/>
   </g>
   <g id="line2d_23">
    <path d="M 59.1275 255.919946 
L 67.904937 237.194566 
L 72.178163 228.594545 
L 75.373458 222.637385 
L 77.99129 218.204412 
L 80.262644 214.778734 
L 82.303013 212.087785 
L 84.22789 209.905806 
L 86.114269 208.099852 
L 88.000648 206.599809 
L 89.964022 205.324674 
L 92.042888 204.241704 
L 94.314243 203.31109 
L 96.893577 202.501247 
L 97.586533 202.319317 
L 97.586533 202.319317 
" clip-path="url(#pc959fbd431)" style="fill: none; stroke: #2e54a1; stroke-width: 1.5; stroke-linecap: square"/>
   </g>
   <g id="line2d_24">
    <path d="M 59.1275 188.970108 
L 59.1275 188.970108 
" clip-path="url(#pc959fbd431)" style="fill: none; stroke: #2e54a1; stroke-width: 1.5; stroke-linecap: square"/>
   </g>
   <g id="line2d_25">
    <path d="M 59.1275 188.970108 
L 61.050452 188.933165 
L 61.050452 188.933165 
" clip-path="url(#pc959fbd431)" style="fill: none; stroke: #2e54a1; stroke-width: 1.5; stroke-linecap: square"/>
   </g>
   <g id="line2d_26">
    <path d="M 59.1275 188.970108 
L 62.376692 188.863875 
L 62.973403 188.820632 
L 62.973403 188.820632 
" clip-path="url(#pc959fbd431)" style="fill: none; stroke: #2e54a1; stroke-width: 1.5; stroke-linecap: square"/>
   </g>
   <g id="line2d_27">
    <path d="M 59.1275 188.970108 
L 62.378616 188.863748 
L 64.896355 188.627269 
L 64.896355 188.627269 
" clip-path="url(#pc959fbd431)" style="fill: none; stroke: #2e54a1; stroke-width: 1.5; stroke-linecap: square"/>
   </g>
   <g id="line2d_28">
    <path d="M 59.1275 188.970108 
L 62.376692 188.863875 
L 65.533489 188.543932 
L 66.819307 188.343954 
L 66.819307 188.343954 
" clip-path="url(#pc959fbd431)" style="fill: none; stroke: #2e54a1; stroke-width: 1.5; stroke-linecap: square"/>
   </g>
   <g id="line2d_29">
    <path d="M 59.1275 188.970108 
L 62.380541 188.863621 
L 65.537339 188.543398 
L 68.405405 188.033093 
L 68.742258 187.957089 
L 68.742258 187.957089 
" clip-path="url(#pc959fbd431)" style="fill: none; stroke: #2e54a1; stroke-width: 1.5; stroke-linecap: square"/>
   </g>
   <g id="line2d_30">
    <path d="M 59.1275 188.970108 
L 62.384391 188.863366 
L 65.537339 188.543398 
L 68.401555 188.033941 
L 70.66521 187.447839 
L 70.66521 187.447839 
" clip-path="url(#pc959fbd431)" style="fill: none; stroke: #2e54a1; stroke-width: 1.5; stroke-linecap: square"/>
   </g>
   <g id="line2d_31">
    <path d="M 59.1275 188.970108 
L 62.374767 188.864002 
L 65.527714 188.544733 
L 68.397705 188.034788 
L 70.957791 187.358149 
L 72.588161 186.791299 
L 72.588161 186.791299 
" clip-path="url(#pc959fbd431)" style="fill: none; stroke: #2e54a1; stroke-width: 1.5; stroke-linecap: square"/>
   </g>
   <g id="line2d_32">
    <path d="M 59.1275 188.970108 
L 62.376692 188.863875 
L 65.533489 188.543932 
L 68.397705 188.034788 
L 70.953941 187.359352 
L 73.248394 186.526431 
L 74.511113 185.955936 
L 74.511113 185.955936 
" clip-path="url(#pc959fbd431)" style="fill: none; stroke: #2e54a1; stroke-width: 1.5; stroke-linecap: square"/>
   </g>
   <g id="line2d_33">
    <path d="M 59.1275 188.970108 
L 62.384391 188.863366 
L 65.537339 188.543398 
L 68.413104 188.031397 
L 70.97704 187.352127 
L 73.263793 186.519991 
L 75.34266 185.529997 
L 76.434065 184.90389 
L 76.434065 184.90389 
" clip-path="url(#pc959fbd431)" style="fill: none; stroke: #2e54a1; stroke-width: 1.5; stroke-linecap: square"/>
   </g>
   <g id="line2d_34">
    <path d="M 59.1275 188.970108 
L 62.380541 188.863621 
L 65.537339 188.543398 
L 68.405405 188.033093 
L 70.965491 187.355742 
L 73.256094 186.523213 
L 75.33496 185.534136 
L 77.279086 184.362278 
L 78.357016 183.593079 
L 78.357016 183.593079 
" clip-path="url(#pc959fbd431)" style="fill: none; stroke: #2e54a1; stroke-width: 1.5; stroke-linecap: square"/>
   </g>
   <g id="line2d_35">
    <path d="M 59.1275 188.970108 
L 62.388241 188.863111 
L 65.543113 188.542595 
L 68.401555 188.033941 
L 70.963566 187.356344 
L 73.250319 186.525627 
L 75.325336 185.539305 
L 77.252137 184.380359 
L 79.094244 183.013005 
L 80.279968 181.982035 
L 80.279968 181.982035 
" clip-path="url(#pc959fbd431)" style="fill: none; stroke: #2e54a1; stroke-width: 1.5; stroke-linecap: square"/>
   </g>
   <g id="line2d_36">
    <path d="M 59.1275 188.970108 
L 62.384391 188.863366 
L 65.548888 188.541792 
L 68.413104 188.031397 
L 70.97704 187.352127 
L 73.263793 186.519991 
L 75.34266 185.529997 
L 77.282935 184.359691 
L 79.130817 182.983039 
L 80.932501 181.360809 
L 82.20292 180.037469 
L 82.20292 180.037469 
" clip-path="url(#pc959fbd431)" style="fill: none; stroke: #2e54a1; stroke-width: 1.5; stroke-linecap: square"/>
   </g>
   <g id="line2d_37">
    <path d="M 59.1275 188.970108 
L 62.380541 188.863621 
L 65.533489 188.543932 
L 68.411179 188.031821 
L 70.963566 187.356344 
L 73.265718 186.519185 
L 75.34266 185.529997 
L 77.269461 184.368742 
L 79.121192 182.990936 
L 80.922877 181.370257 
L 82.749585 179.420915 
L 84.125871 177.742538 
L 84.125871 177.742538 
" clip-path="url(#pc959fbd431)" style="fill: none; stroke: #2e54a1; stroke-width: 1.5; stroke-linecap: square"/>
   </g>
   <g id="line2d_38">
    <path d="M 59.1275 188.970108 
L 62.388241 188.863111 
L 65.541189 188.542863 
L 68.397705 188.034788 
L 70.957791 187.358149 
L 73.248394 186.526431 
L 75.323411 185.540339 
L 77.263687 184.372617 
L 79.096169 183.011431 
L 80.901703 181.391011 
L 82.707237 179.469695 
L 84.593616 177.131394 
L 86.048823 175.101961 
L 86.048823 175.101961 
" clip-path="url(#pc959fbd431)" style="fill: none; stroke: #2e54a1; stroke-width: 1.5; stroke-linecap: square"/>
   </g>
   <g id="line2d_39">
    <path d="M 59.1275 188.970108 
L 62.390166 188.862983 
L 65.537339 188.543398 
L 68.39578 188.035211 
L 70.965491 187.355742 
L 73.246469 186.527235 
L 75.325336 185.539305 
L 77.259837 184.375199 
L 79.107718 183.001978 
L 80.926727 181.366479 
L 82.745735 179.425356 
L 84.622489 177.093001 
L 86.64361 174.218701 
L 87.971775 172.141019 
L 87.971775 172.141019 
" clip-path="url(#pc959fbd431)" style="fill: none; stroke: #2e54a1; stroke-width: 1.5; stroke-linecap: square"/>
   </g>
   <g id="line2d_40">
    <path d="M 59.1275 188.970108 
L 62.392091 188.862855 
L 65.533489 188.543932 
L 68.397705 188.034788 
L 70.953941 187.359352 
L 73.232995 186.532859 
L 75.327261 185.538272 
L 77.267536 184.370034 
L 79.115418 182.99567 
L 80.932501 181.360809 
L 82.749585 179.420915 
L 84.628264 177.085313 
L 86.660934 174.192525 
L 88.909189 170.592962 
L 89.894726 168.899068 
L 89.894726 168.899068 
" clip-path="url(#pc959fbd431)" style="fill: none; stroke: #2e54a1; stroke-width: 1.5; stroke-linecap: square"/>
   </g>
   <g id="line2d_41">
    <path d="M 59.1275 188.970108 
L 62.367067 188.86451 
L 65.508466 188.547396 
L 68.388081 188.036903 
L 70.940467 187.363556 
L 73.23107 186.533662 
L 75.325336 185.539305 
L 77.255987 184.37778 
L 79.088469 183.017726 
L 80.888229 181.404196 
L 82.720711 179.454193 
L 84.61864 177.098125 
L 86.64746 174.212886 
L 88.90534 170.59945 
L 91.490449 166.027726 
L 91.817678 165.421178 
L 91.817678 165.421178 
" clip-path="url(#pc959fbd431)" style="fill: none; stroke: #2e54a1; stroke-width: 1.5; stroke-linecap: square"/>
   </g>
   <g id="line2d_42">
    <path d="M 59.1275 188.970108 
L 62.384391 188.863366 
L 65.537339 188.543398 
L 68.413104 188.031397 
L 70.97704 187.352127 
L 73.263793 186.519991 
L 75.34266 185.529997 
L 77.282935 184.359691 
L 79.119267 182.992514 
L 80.920952 181.372145 
L 82.757284 179.412027 
L 84.662912 177.039122 
L 86.707131 174.122598 
L 88.959236 170.508534 
L 91.55782 165.903312 
L 93.740629 161.751389 
L 93.740629 161.751389 
" clip-path="url(#pc959fbd431)" style="fill: none; stroke: #2e54a1; stroke-width: 1.5; stroke-linecap: square"/>
   </g>
   <g id="line2d_43">
    <path d="M 59.1275 188.970108 
L 62.382466 188.863493 
L 65.527714 188.544733 
L 68.380381 188.038593 
L 70.940467 187.363556 
L 73.244544 186.528039 
L 75.329186 185.537238 
L 77.267536 184.370034 
L 79.096169 183.011431 
L 80.888229 181.404196 
L 82.716862 179.458624 
L 84.61864 177.098125 
L 86.630136 174.239043 
L 88.89764 170.612421 
L 91.494299 166.020623 
L 94.639547 159.981359 
L 95.663581 157.928885 
L 95.663581 157.928885 
" clip-path="url(#pc959fbd431)" style="fill: none; stroke: #2e54a1; stroke-width: 1.5; stroke-linecap: square"/>
   </g>
   <g id="line2d_44">
    <path d="M 59.1275 188.970108 
L 62.39979 188.862343 
L 65.556588 188.54072 
L 68.405405 188.033093 
L 70.946242 187.361755 
L 73.256094 186.523213 
L 75.33496 185.534136 
L 77.259837 184.375199 
L 79.107718 183.001978 
L 80.917102 181.375921 
L 82.726486 179.447544 
L 84.612865 177.105807 
L 86.653234 174.204162 
L 88.924588 170.567003 
L 91.54242 165.931771 
L 94.699218 159.862773 
L 97.586533 153.986688 
L 97.586533 153.986688 
" clip-path="url(#pc959fbd431)" style="fill: none; stroke: #2e54a1; stroke-width: 1.5; stroke-linecap: square"/>
   </g>
   <g id="line2d_45">
    <path d="M 59.1275 98.58661 
L 59.1275 98.58661 
" clip-path="url(#pc959fbd431)" style="fill: none; stroke: #249087; stroke-width: 1.5; stroke-linecap: square"/>
   </g>
   <g id="line2d_46">
    <path d="M 59.1275 98.58661 
L 61.050452 98.586509 
L 61.050452 98.586509 
" clip-path="url(#pc959fbd431)" style="fill: none; stroke: #249087; stroke-width: 1.5; stroke-linecap: square"/>
   </g>
   <g id="line2d_47">
    <path d="M 59.1275 98.58661 
L 62.973403 98.586541 
L 62.973403 98.586541 
" clip-path="url(#pc959fbd431)" style="fill: none; stroke: #249087; stroke-width: 1.5; stroke-linecap: square"/>
   </g>
   <g id="line2d_48">
    <path d="M 59.1275 98.58661 
L 64.896355 98.587426 
L 64.896355 98.587426 
" clip-path="url(#pc959fbd431)" style="fill: none; stroke: #249087; stroke-width: 1.5; stroke-linecap: square"/>
   </g>
   <g id="line2d_49">
    <path d="M 59.1275 98.58661 
L 66.819307 98.589556 
L 66.819307 98.589556 
" clip-path="url(#pc959fbd431)" style="fill: none; stroke: #249087; stroke-width: 1.5; stroke-linecap: square"/>
   </g>
   <g id="line2d_50">
    <path d="M 59.1275 98.58661 
L 68.742258 98.592878 
L 68.742258 98.592878 
" clip-path="url(#pc959fbd431)" style="fill: none; stroke: #249087; stroke-width: 1.5; stroke-linecap: square"/>
   </g>
   <g id="line2d_51">
    <path d="M 59.1275 98.58661 
L 70.66521 98.597264 
L 70.66521 98.597264 
" clip-path="url(#pc959fbd431)" style="fill: none; stroke: #249087; stroke-width: 1.5; stroke-linecap: square"/>
   </g>
   <g id="line2d_52">
    <path d="M 59.1275 98.58661 
L 72.588161 98.602642 
L 72.588161 98.602642 
" clip-path="url(#pc959fbd431)" style="fill: none; stroke: #249087; stroke-width: 1.5; stroke-linecap: square"/>
   </g>
   <g id="line2d_53">
    <path d="M 59.1275 98.58661 
L 74.511113 98.608981 
L 74.511113 98.608981 
" clip-path="url(#pc959fbd431)" style="fill: none; stroke: #249087; stroke-width: 1.5; stroke-linecap: square"/>
   </g>
   <g id="line2d_54">
    <path d="M 59.1275 98.58661 
L 76.434065 98.616272 
L 76.434065 98.616272 
" clip-path="url(#pc959fbd431)" style="fill: none; stroke: #249087; stroke-width: 1.5; stroke-linecap: square"/>
   </g>
   <g id="line2d_55">
    <path d="M 59.1275 98.58661 
L 78.357016 98.62452 
L 78.357016 98.62452 
" clip-path="url(#pc959fbd431)" style="fill: none; stroke: #249087; stroke-width: 1.5; stroke-linecap: square"/>
   </g>
   <g id="line2d_56">
    <path d="M 59.1275 98.58661 
L 80.279968 98.633734 
L 80.279968 98.633734 
" clip-path="url(#pc959fbd431)" style="fill: none; stroke: #249087; stroke-width: 1.5; stroke-linecap: square"/>
   </g>
   <g id="line2d_57">
    <path d="M 59.1275 98.58661 
L 82.20292 98.643927 
L 82.20292 98.643927 
" clip-path="url(#pc959fbd431)" style="fill: none; stroke: #249087; stroke-width: 1.5; stroke-linecap: square"/>
   </g>
   <g id="line2d_58">
    <path d="M 59.1275 98.58661 
L 84.125871 98.655113 
L 84.125871 98.655113 
" clip-path="url(#pc959fbd431)" style="fill: none; stroke: #249087; stroke-width: 1.5; stroke-linecap: square"/>
   </g>
   <g id="line2d_59">
    <path d="M 59.1275 98.58661 
L 86.048823 98.667304 
L 86.048823 98.667304 
" clip-path="url(#pc959fbd431)" style="fill: none; stroke: #249087; stroke-width: 1.5; stroke-linecap: square"/>
   </g>
   <g id="line2d_60">
    <path d="M 59.1275 98.58661 
L 87.971775 98.68051 
L 87.971775 98.68051 
" clip-path="url(#pc959fbd431)" style="fill: none; stroke: #249087; stroke-width: 1.5; stroke-linecap: square"/>
   </g>
   <g id="line2d_61">
    <path d="M 59.1275 98.58661 
L 89.894726 98.694736 
L 89.894726 98.694736 
" clip-path="url(#pc959fbd431)" style="fill: none; stroke: #249087; stroke-width: 1.5; stroke-linecap: square"/>
   </g>
   <g id="line2d_62">
    <path d="M 59.1275 98.58661 
L 90.966882 98.70311 
L 91.817678 98.709981 
L 91.817678 98.709981 
" clip-path="url(#pc959fbd431)" style="fill: none; stroke: #249087; stroke-width: 1.5; stroke-linecap: square"/>
   </g>
   <g id="line2d_63">
    <path d="M 59.1275 98.58661 
L 90.968807 98.703126 
L 93.740629 98.726237 
L 93.740629 98.726237 
" clip-path="url(#pc959fbd431)" style="fill: none; stroke: #249087; stroke-width: 1.5; stroke-linecap: square"/>
   </g>
   <g id="line2d_64">
    <path d="M 59.1275 98.58661 
L 90.945709 98.702942 
L 95.663581 98.743487 
L 95.663581 98.743487 
" clip-path="url(#pc959fbd431)" style="fill: none; stroke: #249087; stroke-width: 1.5; stroke-linecap: square"/>
   </g>
   <g id="line2d_65">
    <path d="M 59.1275 98.58661 
L 90.964958 98.703095 
L 97.586533 98.7617 
L 97.586533 98.7617 
" clip-path="url(#pc959fbd431)" style="fill: none; stroke: #249087; stroke-width: 1.5; stroke-linecap: square"/>
   </g>
   <g id="line2d_66">
    <path d="M 59.1275 98.575582 
L 59.1275 98.575582 
" clip-path="url(#pc959fbd431)" style="fill: none; stroke: #249087; stroke-width: 1.5; stroke-linecap: square"/>
   </g>
   <g id="line2d_67">
    <path d="M 59.1275 98.575582 
L 61.050452 98.575372 
L 61.050452 98.575372 
" clip-path="url(#pc959fbd431)" style="fill: none; stroke: #249087; stroke-width: 1.5; stroke-linecap: square"/>
   </g>
   <g id="line2d_68">
    <path d="M 59.1275 98.575582 
L 62.973403 98.574412 
L 62.973403 98.574412 
" clip-path="url(#pc959fbd431)" style="fill: none; stroke: #249087; stroke-width: 1.5; stroke-linecap: square"/>
   </g>
   <g id="line2d_69">
    <path d="M 59.1275 98.575582 
L 64.896355 98.571991 
L 64.896355 98.571991 
" clip-path="url(#pc959fbd431)" style="fill: none; stroke: #249087; stroke-width: 1.5; stroke-linecap: square"/>
   </g>
   <g id="line2d_70">
    <path d="M 59.1275 98.575582 
L 66.819307 98.567735 
L 66.819307 98.567735 
" clip-path="url(#pc959fbd431)" style="fill: none; stroke: #249087; stroke-width: 1.5; stroke-linecap: square"/>
   </g>
   <g id="line2d_71">
    <path d="M 59.1275 98.575582 
L 68.742258 98.561718 
L 68.742258 98.561718 
" clip-path="url(#pc959fbd431)" style="fill: none; stroke: #249087; stroke-width: 1.5; stroke-linecap: square"/>
   </g>
   <g id="line2d_72">
    <path d="M 59.1275 98.575582 
L 70.66521 98.554096 
L 70.66521 98.554096 
" clip-path="url(#pc959fbd431)" style="fill: none; stroke: #249087; stroke-width: 1.5; stroke-linecap: square"/>
   </g>
   <g id="line2d_73">
    <path d="M 59.1275 98.575582 
L 72.588161 98.544975 
L 72.588161 98.544975 
" clip-path="url(#pc959fbd431)" style="fill: none; stroke: #249087; stroke-width: 1.5; stroke-linecap: square"/>
   </g>
   <g id="line2d_74">
    <path d="M 59.1275 98.575582 
L 74.511113 98.53442 
L 74.511113 98.53442 
" clip-path="url(#pc959fbd431)" style="fill: none; stroke: #249087; stroke-width: 1.5; stroke-linecap: square"/>
   </g>
   <g id="line2d_75">
    <path d="M 59.1275 98.575582 
L 76.434065 98.522478 
L 76.434065 98.522478 
" clip-path="url(#pc959fbd431)" style="fill: none; stroke: #249087; stroke-width: 1.5; stroke-linecap: square"/>
   </g>
   <g id="line2d_76">
    <path d="M 59.1275 98.575582 
L 78.357016 98.509181 
L 78.357016 98.509181 
" clip-path="url(#pc959fbd431)" style="fill: none; stroke: #249087; stroke-width: 1.5; stroke-linecap: square"/>
   </g>
   <g id="line2d_77">
    <path d="M 59.1275 98.575582 
L 80.279968 98.494553 
L 80.279968 98.494553 
" clip-path="url(#pc959fbd431)" style="fill: none; stroke: #249087; stroke-width: 1.5; stroke-linecap: square"/>
   </g>
   <g id="line2d_78">
    <path d="M 59.1275 98.575582 
L 82.20292 98.478612 
L 82.20292 98.478612 
" clip-path="url(#pc959fbd431)" style="fill: none; stroke: #249087; stroke-width: 1.5; stroke-linecap: square"/>
   </g>
   <g id="line2d_79">
    <path d="M 59.1275 98.575582 
L 84.125871 98.461363 
L 84.125871 98.461363 
" clip-path="url(#pc959fbd431)" style="fill: none; stroke: #249087; stroke-width: 1.5; stroke-linecap: square"/>
   </g>
   <g id="line2d_80">
    <path d="M 59.1275 98.575582 
L 84.243289 98.460267 
L 86.048823 98.442799 
L 86.048823 98.442799 
" clip-path="url(#pc959fbd431)" style="fill: none; stroke: #249087; stroke-width: 1.5; stroke-linecap: square"/>
   </g>
   <g id="line2d_81">
    <path d="M 59.1275 98.575582 
L 84.247139 98.460231 
L 87.971775 98.422897 
L 87.971775 98.422897 
" clip-path="url(#pc959fbd431)" style="fill: none; stroke: #249087; stroke-width: 1.5; stroke-linecap: square"/>
   </g>
   <g id="line2d_82">
    <path d="M 59.1275 98.575582 
L 84.258688 98.460123 
L 89.894726 98.401606 
L 89.894726 98.401606 
" clip-path="url(#pc959fbd431)" style="fill: none; stroke: #249087; stroke-width: 1.5; stroke-linecap: square"/>
   </g>
   <g id="line2d_83">
    <path d="M 59.1275 98.575582 
L 84.258688 98.460123 
L 91.817678 98.378845 
L 91.817678 98.378845 
" clip-path="url(#pc959fbd431)" style="fill: none; stroke: #249087; stroke-width: 1.5; stroke-linecap: square"/>
   </g>
   <g id="line2d_84">
    <path d="M 59.1275 98.575582 
L 84.247139 98.460231 
L 93.740629 98.354485 
L 93.740629 98.354485 
" clip-path="url(#pc959fbd431)" style="fill: none; stroke: #249087; stroke-width: 1.5; stroke-linecap: square"/>
   </g>
   <g id="line2d_85">
    <path d="M 59.1275 98.575582 
L 84.252913 98.460177 
L 95.663581 98.328334 
L 95.663581 98.328334 
" clip-path="url(#pc959fbd431)" style="fill: none; stroke: #249087; stroke-width: 1.5; stroke-linecap: square"/>
   </g>
   <g id="line2d_86">
    <path d="M 59.1275 98.575582 
L 84.22789 98.460411 
L 97.586533 98.300111 
L 97.586533 98.300111 
" clip-path="url(#pc959fbd431)" style="fill: none; stroke: #249087; stroke-width: 1.5; stroke-linecap: square"/>
   </g>
   <g id="line2d_87">
    <path d="M 59.1275 54.904975 
L 59.1275 54.904975 
" clip-path="url(#pc959fbd431)" style="fill: none; stroke: #ff0000; stroke-width: 1.5; stroke-linecap: square"/>
   </g>
   <g id="line2d_88">
    <path d="M 59.1275 54.904975 
L 61.050452 54.905009 
L 61.050452 54.905009 
" clip-path="url(#pc959fbd431)" style="fill: none; stroke: #ff0000; stroke-width: 1.5; stroke-linecap: square"/>
   </g>
   <g id="line2d_89">
    <path d="M 59.1275 54.904975 
L 62.973403 54.905108 
L 62.973403 54.905108 
" clip-path="url(#pc959fbd431)" style="fill: none; stroke: #ff0000; stroke-width: 1.5; stroke-linecap: square"/>
   </g>
   <g id="line2d_90">
    <path d="M 59.1275 54.904975 
L 64.896355 54.905273 
L 64.896355 54.905273 
" clip-path="url(#pc959fbd431)" style="fill: none; stroke: #ff0000; stroke-width: 1.5; stroke-linecap: square"/>
   </g>
   <g id="line2d_91">
    <path d="M 59.1275 54.904975 
L 66.819307 54.905504 
L 66.819307 54.905504 
" clip-path="url(#pc959fbd431)" style="fill: none; stroke: #ff0000; stroke-width: 1.5; stroke-linecap: square"/>
   </g>
   <g id="line2d_92">
    <path d="M 59.1275 54.904975 
L 68.742258 54.905801 
L 68.742258 54.905801 
" clip-path="url(#pc959fbd431)" style="fill: none; stroke: #ff0000; stroke-width: 1.5; stroke-linecap: square"/>
   </g>
   <g id="line2d_93">
    <path d="M 59.1275 54.904975 
L 70.66521 54.906162 
L 70.66521 54.906162 
" clip-path="url(#pc959fbd431)" style="fill: none; stroke: #ff0000; stroke-width: 1.5; stroke-linecap: square"/>
   </g>
   <g id="line2d_94">
    <path d="M 59.1275 54.904975 
L 72.588161 54.906589 
L 72.588161 54.906589 
" clip-path="url(#pc959fbd431)" style="fill: none; stroke: #ff0000; stroke-width: 1.5; stroke-linecap: square"/>
   </g>
   <g id="line2d_95">
    <path d="M 59.1275 54.904975 
L 74.511113 54.907079 
L 74.511113 54.907079 
" clip-path="url(#pc959fbd431)" style="fill: none; stroke: #ff0000; stroke-width: 1.5; stroke-linecap: square"/>
   </g>
   <g id="line2d_96">
    <path d="M 59.1275 54.904975 
L 76.434065 54.907632 
L 76.434065 54.907632 
" clip-path="url(#pc959fbd431)" style="fill: none; stroke: #ff0000; stroke-width: 1.5; stroke-linecap: square"/>
   </g>
   <g id="line2d_97">
    <path d="M 59.1275 54.904975 
L 78.357016 54.908249 
L 78.357016 54.908249 
" clip-path="url(#pc959fbd431)" style="fill: none; stroke: #ff0000; stroke-width: 1.5; stroke-linecap: square"/>
   </g>
   <g id="line2d_98">
    <path d="M 59.1275 54.904975 
L 80.279968 54.908929 
L 80.279968 54.908929 
" clip-path="url(#pc959fbd431)" style="fill: none; stroke: #ff0000; stroke-width: 1.5; stroke-linecap: square"/>
   </g>
   <g id="line2d_99">
    <path d="M 59.1275 54.904975 
L 82.20292 54.909672 
L 82.20292 54.909672 
" clip-path="url(#pc959fbd431)" style="fill: none; stroke: #ff0000; stroke-width: 1.5; stroke-linecap: square"/>
   </g>
   <g id="line2d_100">
    <path d="M 59.1275 54.904975 
L 84.125871 54.910479 
L 84.125871 54.910479 
" clip-path="url(#pc959fbd431)" style="fill: none; stroke: #ff0000; stroke-width: 1.5; stroke-linecap: square"/>
   </g>
   <g id="line2d_101">
    <path d="M 59.1275 54.904975 
L 86.048823 54.911349 
L 86.048823 54.911349 
" clip-path="url(#pc959fbd431)" style="fill: none; stroke: #ff0000; stroke-width: 1.5; stroke-linecap: square"/>
   </g>
   <g id="line2d_102">
    <path d="M 59.1275 54.904975 
L 87.971775 54.912286 
L 87.971775 54.912286 
" clip-path="url(#pc959fbd431)" style="fill: none; stroke: #ff0000; stroke-width: 1.5; stroke-linecap: square"/>
   </g>
   <g id="line2d_103">
    <path d="M 59.1275 54.904975 
L 89.894726 54.913291 
L 89.894726 54.913291 
" clip-path="url(#pc959fbd431)" style="fill: none; stroke: #ff0000; stroke-width: 1.5; stroke-linecap: square"/>
   </g>
   <g id="line2d_104">
    <path d="M 59.1275 54.904975 
L 91.817678 54.914368 
L 91.817678 54.914368 
" clip-path="url(#pc959fbd431)" style="fill: none; stroke: #ff0000; stroke-width: 1.5; stroke-linecap: square"/>
   </g>
   <g id="line2d_105">
    <path d="M 59.1275 54.904975 
L 93.740629 54.915522 
L 93.740629 54.915522 
" clip-path="url(#pc959fbd431)" style="fill: none; stroke: #ff0000; stroke-width: 1.5; stroke-linecap: square"/>
   </g>
   <g id="line2d_106">
    <path d="M 59.1275 54.904975 
L 94.456684 54.915959 
L 95.663581 54.916762 
L 95.663581 54.916762 
" clip-path="url(#pc959fbd431)" style="fill: none; stroke: #ff0000; stroke-width: 1.5; stroke-linecap: square"/>
   </g>
   <g id="line2d_107">
    <path d="M 59.1275 54.904975 
L 94.622223 54.916061 
L 97.586533 54.918099 
L 97.586533 54.918099 
" clip-path="url(#pc959fbd431)" style="fill: none; stroke: #ff0000; stroke-width: 1.5; stroke-linecap: square"/>
   </g>
   <g id="patch_3">
    <path d="M 59.1275 255.92 
L 59.1275 14.76 
" style="fill: none; stroke: #000000; stroke-width: 0.8; stroke-linejoin: miter; stroke-linecap: square"/>
   </g>
   <g id="patch_4">
    <path d="M 97.2 255.92 
L 97.2 14.76 
" style="fill: none; stroke: #000000; stroke-width: 0.8; stroke-linejoin: miter; stroke-linecap: square"/>
   </g>
   <g id="patch_5">
    <path d="M 59.1275 255.92 
L 97.2 255.92 
" style="fill: none; stroke: #000000; stroke-width: 0.8; stroke-linejoin: miter; stroke-linecap: square"/>
   </g>
   <g id="patch_6">
    <path d="M 59.1275 14.76 
L 97.2 14.76 
" style="fill: none; stroke: #000000; stroke-width: 0.8; stroke-linejoin: miter; stroke-linecap: square"/>
   </g>
   <g id="text_5">
    <!-- X -->
    <g transform="translate(84.200625 272.784539) scale(0.18 -0.18)">
     <defs>
      <path id="TimesNewRomanPSMT-58" d="M 2613 2347 
L 3522 991 
Q 3900 428 4083 279 
Q 4266 131 4547 116 
L 4547 0 
L 2728 0 
L 2728 116 
Q 2909 119 2997 153 
Q 3063 181 3105 239 
Q 3147 297 3147 356 
Q 3147 428 3119 500 
Q 3097 553 2947 775 
L 2228 1863 
L 1341 725 
Q 1200 544 1172 483 
Q 1144 422 1144 356 
Q 1144 256 1228 190 
Q 1313 125 1550 116 
L 1550 0 
L 47 0 
L 47 116 
Q 206 131 322 181 
Q 516 263 691 400 
Q 866 538 1091 822 
L 2091 2084 
L 1256 3306 
Q 916 3803 678 3958 
Q 441 4113 131 4122 
L 131 4238 
L 2091 4238 
L 2091 4122 
Q 1841 4113 1748 4041 
Q 1656 3969 1656 3881 
Q 1656 3766 1806 3544 
L 2456 2572 
L 3209 3525 
Q 3341 3694 3370 3756 
Q 3400 3819 3400 3884 
Q 3400 3950 3363 4000 
Q 3316 4066 3244 4092 
Q 3172 4119 2947 4122 
L 2947 4238 
L 4450 4238 
L 4450 4122 
Q 4272 4113 4159 4066 
Q 3991 3994 3850 3872 
Q 3709 3750 3453 3422 
L 2613 2347 
z
" transform="scale(0.015625)"/>
     </defs>
     <use xlink:href="#TimesNewRomanPSMT-58"/>
    </g>
   </g>
  </g>
 </g>
 <defs>
  <clipPath id="pc959fbd431">
   <rect x="59.1275" y="14.76" width="38.0725" height="241.16"/>
  </clipPath>
 </defs>
</svg>
